<?xml version="1.0" encoding="UTF-8"?><svg xmlns="http://www.w3.org/2000/svg" viewBox="0 0 400 400"><defs><style>.cls-1{fill:none;}.cls-2{fill:#e9e9e9;}.cls-3{fill:#fff;}.cls-4{fill:#282828;}</style></defs><g id="Kreis_mit_Rahmen_grau"><g><circle class="cls-3" cx="200" cy="200" r="113.39" transform="translate(-82.84 200) rotate(-45)"/><path class="cls-2" d="M200,100.79c54.79,0,99.21,44.42,99.21,99.21s-44.42,99.21-99.21,99.21-99.21-44.42-99.21-99.21,44.42-99.21,99.21-99.21m0-28.35c-34.07,0-66.11,13.27-90.2,37.36-24.09,24.09-37.36,56.13-37.36,90.2s13.27,66.11,37.36,90.2c24.09,24.09,56.13,37.36,90.2,37.36s66.11-13.27,90.2-37.36c24.09-24.09,37.36-56.13,37.36-90.2s-13.27-66.1-37.36-90.2c-24.09-24.09-56.13-37.36-90.2-37.36h0Z"/></g></g><g id="Illu_beschnitten"><path class="cls-1" d="M103.01,156.5c.03-.29,.09-.58,.18-.85-.02,0-.04,0-.06-.01-.12-.01-.24-.02-.37-.02-.78,0-1.54,.27-2.16,.77-.25,.2-.46,.45-.64,.7,1.02,.23,1.94,.78,2.61,1.6,.29,.36,.51,.77,.68,1.19l.53-.29c-.61-.91-.9-1.99-.78-3.09Z"/><path class="cls-1" d="M109.18,153.9c0,.88,.32,1.7,.88,2.32l.83-.45c-.12-.34-.3-.66-.53-.95-.33-.4-.73-.71-1.18-.92Z"/><path class="cls-1" d="M105.52,154.31c-.21,.17-.39,.37-.56,.59,.56,.29,1.05,.69,1.46,1.2,.39,.49,.68,1.04,.85,1.62l1.66-.89c-.71-.89-1.1-2.04-1.01-3.26-.88-.06-1.72,.19-2.41,.75Z"/><path class="cls-1" d="M99.44,158.25c-.04,.15-.07,.29-.09,.44-.1,.91,.17,1.81,.75,2.52,.07,.09,.15,.16,.23,.24l1.83-.98c-.13-.35-.3-.69-.55-1-.55-.67-1.31-1.1-2.17-1.23Z"/><path class="cls-1" d="M111.63,151.66c.04-.38,.14-.74,.26-1.08-1.11,.24-2.03,1.01-2.46,2.07,.73,.29,1.4,.75,1.91,1.38,.28,.35,.49,.74,.66,1.15l.52-.28c-.68-.94-1.01-2.07-.88-3.24Z"/><path class="cls-1" d="M216.89,211.71c-.16,.7-.28,1.4-.33,2.09,.05-.68,.17-1.39,.33-2.09Z"/><path class="cls-1" d="M242.53,208.28c.75-1.05,1.43-2.1,2.06-3.1-.62,1-1.31,2.05-2.06,3.1Z"/><path class="cls-1" d="M216.89,211.71c.99-4.21,3.66-8.39,3.66-8.39l.02-.03-.02,.03s-2.67,4.19-3.66,8.39Z"/><path class="cls-1" d="M220.58,203.27h0c1.92-1.17,3.18-2.05,4.62-3.16,0,0,4.97-3.32-3.98-17.24,0,0,7.3-1.54,15.14-3.04,.84-4.46,1.55-8.69,1.73-10.85-5.71,2.13-23.13,8.33-34.6,7.04-.45,1.19-.98,2.53-1.54,3.97,.12,.05,.21,.08,.23,.06,2.27-2.62,4.64-2.32,4.64-2.32l-1.76,6.13,6.4,10.11-8.29,14.59,.37,3.65c4.83-2.27,9.94-4.83,14.35-7.36,.52-.3,1.02-.59,1.52-.89h0s1.18-.69,1.18-.69Z"/><path class="cls-1" d="M98.1,158.56c0-.09,.04-.17,.05-.26-1.38,.32-2.48,1.49-2.64,2.98-.09,.89,.17,1.73,.67,2.4l3-1.61s-.04-.04-.06-.06c-.79-.98-1.15-2.2-1.02-3.45Z"/><path class="cls-1" d="M104.39,156.02c-.06,.2-.1,.4-.13,.61-.09,.85,.15,1.68,.64,2.36l1.22-.66c-.11-.52-.33-1.02-.68-1.45-.29-.36-.65-.66-1.06-.87Z"/><path class="cls-1" d="M125.42,143.88c-.12-.01-.24-.02-.36-.02-.92,0-1.76,.37-2.39,.98,1.4,.5,2.47,1.64,2.9,3.03l2.07-1.11,.71-.44c-.39-1.29-1.52-2.29-2.94-2.44Z"/><path class="cls-1" d="M113.24,150.57c-.19,.37-.32,.78-.37,1.22-.1,.94,.2,1.83,.76,2.5l2.29-1.23c-.12-.47-.33-.91-.65-1.3-.52-.64-1.23-1.05-2.03-1.2Z"/><path class="cls-1" d="M121.92,145.94c-.14,.31-.24,.65-.28,1.01-.1,.91,.17,1.81,.75,2.52,.02,.03,.05,.05,.08,.08l1.98-1.07c-.29-1.23-1.26-2.24-2.53-2.55Z"/><path class="cls-1" d="M203.33,190.66l-2.32-6-.74-.47c-.17,.42-.33,.83-.5,1.25,.88,2.15,1.74,4.22,1.74,4.22l1.82,1Z"/><path class="cls-1" d="M120.39,146.81c.03-.33,.1-.64,.2-.94-.6,.09-1.17,.33-1.65,.72-.41,.33-.72,.74-.93,1.21,.75,.29,1.42,.76,1.94,1.4,.32,.4,.55,.85,.73,1.31l.66-.35c-.73-.96-1.08-2.13-.95-3.34Z"/><path class="cls-1" d="M116.43,148.77s0-.04,.01-.05c-.05,0-.1,0-.15,0-.82,0-1.57,.3-2.17,.79,.83,.28,1.56,.78,2.12,1.48,.36,.45,.62,.95,.8,1.48l.42-.23s0,0-.01-.02c-.79-.98-1.15-2.2-1.02-3.45Z"/><path class="cls-1" d="M117.68,149.02c-.06,.88,.19,1.73,.75,2.41,.06,.07,.13,.12,.19,.18l.95-.51c-.13-.4-.33-.78-.6-1.12-.35-.43-.8-.75-1.29-.97Z"/><path class="cls-4" d="M249.41,286.04l32.15-59.08-32.86-27.74c-.17,.35-.36,.74-.58,1.17-.77,1.52-1.85,3.52-3.22,5.7-4.48,7.15-12,16.14-21.23,15.62-4.09-.23-6.28-1.63-7.31-3.55-.23-.43-.4-.88-.52-1.35-.24-.94-.28-1.96-.19-2.99,.1-1.03,.33-2.09,.63-3.1,.99-3.3,2.75-6.2,3.1-6.77-.5,.3-1,.59-1.52,.89-4.41,2.53-9.52,5.09-14.35,7.36l-.37-3.65,8.29-14.59-6.4-10.11,1.76-6.13s-2.37-.3-4.64,2.32c-.02,.02-.11-.01-.23-.06,.57-1.44,1.09-2.78,1.54-3.97,11.48,1.29,28.9-4.91,34.6-7.04-.17,2.16-.89,6.39-1.73,10.85-7.83,1.5-15.14,3.04-15.14,3.04,8.95,13.92,3.98,17.24,3.98,17.24-1.44,1.1-2.7,1.99-4.62,3.16h0v.02s-.04,.03-.04,.03c0,0-2.67,4.19-3.66,8.39-.16,.7-.28,1.4-.33,2.09-.02,.23-.03,.45-.03,.68,0,.89,.12,1.74,.42,2.5,.46,1.14,1.31,2.07,2.74,2.64,4.96,2.01,9.56,.83,13.56-1.81,1.09-.72,2.14-1.55,3.14-2.45,2.33-2.11,4.4-4.61,6.14-7.08,.75-1.06,1.43-2.1,2.06-3.1,1.66-2.68,2.87-5.04,3.54-6.43l-1.76-1.49c1.71-4.38,7.46-17.06,7.46-17.06,0,0-5.1-1.33-11.31-1.11l2.14-11.33c.35,.59,.77,1.19,1.27,1.73,1.89,2.06,3.32,2.97,3.32,2.97,0,0-1.1-1.75-2.21-4.31,1.23,1.05,2.56,2.15,2.7,2.03,12.38-11.57,22.81-29.4,22.81-29.4l2.83,.91s.88-6.95,.71-10.55c1.41,2.91,3,6.55,3,6.55v-14.56c1.06,3.64,2.12,10.19,2.12,10.19,0,0,6.01-24.38-6.01-43.67-1.76-2.81-3.92-5-6.1-6.71,5.21,1.81,8.76,4.16,8.76,4.16,0,0-4.42-6-10.61-8.19-1.51-.53-3.04-.89-4.46-1.13,2.93-.79,6.65-1.1,6.65-1.1,0,0-6.31-2.65-11.45,.18-.26,.14-.47,.27-.65,.4-.08-.84-.34-2.41-1.22-4.89-.88-2-1.59-3.09-1.59-3.09,0,0,.42,3.8,.25,6.03-18.45-13.52-42.4-8.55-55.23-.2,0,0-9.9,5.1-13.79,12.74-3.89,7.64-1.41,13.46-1.41,13.46,0,0-1-5.23,2.99-11.69-2.71,8.11,.37,14.79,.37,14.79,0,0,1.57-4.31,5.48-5.46,3.91-1.15,4.87-2.39,4.87-2.39-7.44,10.28-6.15,19.17-6.15,19.17l3.49,6-.56,3.18c-.33,0-.68-.02-1.05-.08-2.14-.38-4.49-1.72-4.49-1.72,.15,.65,1.41,2.03,3.22,2.66-.18-.02-.34-.02-.52-.04-3.26-.47-4.27-1.16-4.27-1.16,0,0,2.72,4.09,9,3.16-2.43,6.01-7.96,12.34-7.96,12.34l-6.89,2.18c4.53,4.87,17.5,5.46,17.5,5.46,0,0,.53,1.13-.88,2.73-1.79,2.02-5.52,1.89-5.52,1.89l-.43,2.04s3.82,1.42,7,2.55c-1.98,1.24-3.39,2.47-3.39,2.47,0,0,.42,1.82,.42,2.26,4.1-1.02,6.5,4.16,6.5,4.16,.33,1,.45,2.11,.44,3.21-.79-.12-1.6,.12-1.9,.69-.17,.33-1.63,3.84-3.59,8.63-.35-.13-.73-.28-1.11-.42-1.72-.56-3.38-.99-3.38-.99l-1.99,2.49,2.15,5.47-4.64-2.49-1.99,2.49,3.65,5.14-4.31-1.82-1.49,2.65s2.9,3.95,3.98,5.14c-.23-.02-2.49-.17-2.49-.17l-.99,2.98,3.08,2.82c-1.83,4.48-3.1,7.6-3.1,7.6,0,0,.12,.09,.29,.21l-2.49,7.17s.6,.6,1.06-.04c.47-.63,.08-.94,.08-.94,0,0,1.37-1.81,3.16-2.88,.89-.53,1.42-1.98,1.6-2.53,.29-.07,.47-.15,.47-.15,0,0,.93-2.21,2.33-5.57l5.43,4.42v6.15c-6.54,2.92-11.47,4.9-11.47,4.9-17.43,26.38-32.71,42.76-32.71,42.76l-2.91-9.16-3.44,1.57c-11.96-26.46-16.6-40.59-16.6-40.59,0,0,5.87-13.16,5.47-14.59-.23-.79-1.73-2.03-3.03-2.98l-1.48-49.31-1.03-.11,.11-1.03-.56,.24c-.25-2.13-1.94-3.89-4.17-4.13-1.75-.18-3.35,.63-4.3,1.95-1.13-.04-2.22,.31-3.1,1.02-.62,.5-1.07,1.15-1.37,1.87-1.67-.17-3.21,.56-4.17,1.78-2,0-3.74,1.24-4.41,3.06,0,0-.02,0-.03,0-1.25-.13-2.47,.23-3.45,1.02-.4,.33-.72,.72-.99,1.14-.16-.03-.31-.08-.47-.1-1.25-.13-2.47,.23-3.45,1.02-.53,.43-.94,.97-1.24,1.56-2.23,.17-4.07,1.89-4.31,4.18-.12,1.15,.2,2.24,.81,3.13l-.91,.49,.8,5.59c.81,10.98,2.34,34.71,.98,42.02l-1.42,6.05,2.54-.82-.41,2.96,5-3.26,.6,4.21,1.49,.68,15.54-10.99c1.74,1.72,3.92,3.86,5.48,5.33,4.25,10.55,13.59,43.43,13.59,43.43l-7.41,7.01,15.49,30.55c18.51-17.8,35.1-33.34,35.1-33.34,0,0,4.36,20.63,7.28,34.4,3.67,.41,7.4,.64,11.19,.64,17.99,0,34.86-4.8,49.41-13.17Zm-11.88-139.73h2.68s0,11.18,0,11.18l-3.08-.11,.41-11.07Zm-141.35,17.36c-.5-.67-.76-1.51-.67-2.4,.16-1.49,1.26-2.66,2.64-2.98-.01,.09-.04,.17-.05,.26-.13,1.25,.23,2.47,1.02,3.45,.02,.02,.04,.04,.06,.06l-3,1.61Zm4.15-2.23c-.08-.08-.16-.15-.23-.24-.58-.71-.84-1.61-.75-2.52,.02-.15,.05-.3,.09-.44,.85,.13,1.62,.55,2.17,1.23,.24,.3,.42,.64,.55,1l-1.83,.98Zm2.94-1.58c-.17-.42-.39-.83-.68-1.19-.67-.83-1.59-1.37-2.61-1.6,.18-.26,.39-.5,.64-.7,.62-.5,1.37-.77,2.16-.77,.12,0,.24,0,.37,.02,.02,0,.04,0,.06,.01-.08,.28-.14,.56-.18,.85-.12,1.1,.17,2.18,.78,3.09l-.53,.29Zm1.64-.88c-.49-.69-.73-1.51-.64-2.36,.02-.21,.07-.41,.13-.61,.4,.21,.76,.51,1.06,.87,.35,.43,.57,.92,.68,1.45l-1.22,.66Zm2.37-1.28c-.17-.58-.46-1.13-.85-1.62-.41-.5-.91-.9-1.46-1.2,.16-.21,.34-.41,.56-.59,.69-.55,1.53-.81,2.41-.75-.1,1.22,.3,2.36,1.01,3.26l-1.66,.89Zm2.78-1.5c-.56-.62-.89-1.44-.88-2.32,.45,.22,.85,.52,1.18,.92,.23,.29,.41,.61,.53,.95l-.83,.45Zm1.94-1.04c-.17-.4-.38-.8-.66-1.15-.51-.63-1.17-1.09-1.91-1.38,.43-1.06,1.35-1.83,2.46-2.07-.12,.34-.22,.7-.26,1.08-.12,1.16,.2,2.3,.88,3.24l-.52,.28Zm1.64-.88c-.55-.68-.86-1.56-.76-2.5,.05-.44,.17-.85,.37-1.22,.8,.15,1.51,.56,2.03,1.2,.31,.39,.53,.83,.65,1.3l-2.29,1.23Zm3.42-1.84c-.18-.53-.44-1.04-.8-1.48-.56-.7-1.3-1.19-2.12-1.48,.6-.49,1.35-.79,2.17-.79,.05,0,.1,0,.15,0,0,.02,0,.04-.01,.05-.13,1.25,.23,2.47,1.02,3.45,0,0,.01,0,.01,.02l-.42,.23Zm1.57-.85c-.06-.06-.14-.11-.19-.18-.55-.68-.81-1.54-.75-2.41,.49,.22,.94,.54,1.29,.97,.27,.34,.47,.72,.6,1.12l-.95,.51Zm2.05-1.11c-.18-.47-.41-.91-.73-1.31-.52-.64-1.19-1.11-1.94-1.4,.22-.46,.53-.88,.93-1.21,.48-.39,1.05-.62,1.65-.72-.1,.3-.16,.62-.2,.94-.13,1.2,.22,2.38,.95,3.34l-.66,.35Zm1.78-.96s-.05-.05-.08-.08c-.58-.71-.84-1.61-.75-2.52,.04-.36,.14-.7,.28-1.01,1.27,.31,2.23,1.31,2.53,2.55l-1.98,1.07Zm5.18-2.79l-2.07,1.11c-.44-1.39-1.5-2.53-2.9-3.03,.63-.61,1.47-.98,2.39-.98,.12,0,.24,0,.36,.02,1.42,.15,2.55,1.15,2.94,2.44l-.71,.44Zm72.63,37.43l.74,.47,2.32,6-1.82-1s-.86-2.07-1.74-4.22c.17-.42,.34-.84,.5-1.25Z"/><polygon class="cls-3" points="240.21 146.31 237.53 146.32 237.12 157.39 240.2 157.49 240.21 146.31"/><path class="cls-3" d="M242.53,208.28c-1.74,2.46-3.81,4.97-6.14,7.08-1,.9-2.05,1.73-3.14,2.45-4,2.64-8.6,3.82-13.56,1.81-1.42-.58-2.28-1.51-2.74-2.64-.3-.76-.43-1.6-.42-2.5,0-.22,.01-.45,.03-.68,.05-.68,.17-1.39,.33-2.09,.99-4.21,3.66-8.39,3.66-8.39l.02-.03v-.02s-1.16,.69-1.16,.69h0s0,0,0,0c-.35,.56-2.11,3.46-3.1,6.77-.3,1.02-.54,2.07-.63,3.1s-.05,2.05,.19,2.99c.12,.47,.29,.92,.52,1.35,1.03,1.92,3.22,3.31,7.31,3.55,9.23,.52,16.74-8.46,21.23-15.62,1.36-2.18,2.45-4.18,3.22-5.7,.22-.43,.41-.83,.58-1.17l-.58-.49c-.67,1.39-1.88,3.76-3.54,6.43-.62,1-1.31,2.05-2.06,3.1Z"/><path class="cls-3" d="M216.53,214.47c0,.89,.12,1.74,.42,2.5-.3-.76-.43-1.6-.42-2.5Z"/><polygon class="cls-3" points="220.58 203.27 220.58 203.27 220.57 203.28 220.58 203.27"/><path class="cls-3" d="M215.67,213.83c.1-1.04,.33-2.09,.63-3.1-.3,1.02-.54,2.07-.63,3.1Z"/><path class="cls-3" d="M223.69,221.72c-4.09-.23-6.28-1.63-7.31-3.55,1.03,1.92,3.22,3.31,7.31,3.55,9.23,.52,16.74-8.46,21.23-15.62-4.48,7.15-12,16.14-21.23,15.62Z"/><path class="cls-3" d="M216.38,218.17c-.23-.43-.4-.88-.52-1.35,.12,.47,.29,.92,.52,1.35Z"/><path class="cls-3" d="M219.41,203.96c-.35,.56-2.11,3.46-3.1,6.77,.99-3.3,2.75-6.2,3.1-6.77h0Z"/><path class="cls-3" d="M233.25,217.81c1.09-.72,2.14-1.55,3.14-2.45-1,.9-2.05,1.73-3.14,2.45Z"/></g></svg>