<?xml version="1.0" encoding="UTF-8"?><svg xmlns="http://www.w3.org/2000/svg" viewBox="0 0 400 400"><defs><style>.cls-1{fill:none;}.cls-2{fill:#e9e9e9;}.cls-3{fill:#fff;}.cls-4{fill:#282828;}</style></defs><g id="Kreis_mit_Rahmen_grau"><g><circle class="cls-3" cx="200" cy="200" r="113.39"/><path class="cls-2" d="M200,100.79c54.79,0,99.21,44.42,99.21,99.21s-44.42,99.21-99.21,99.21-99.21-44.42-99.21-99.21,44.42-99.21,99.21-99.21m0-28.35c-34.07,0-66.11,13.27-90.2,37.36-24.09,24.09-37.36,56.13-37.36,90.2s13.27,66.11,37.36,90.2,56.13,37.36,90.2,37.36,66.11-13.27,90.2-37.36c24.09-24.09,37.36-56.13,37.36-90.2s-13.27-66.1-37.36-90.2c-24.09-24.09-56.13-37.36-90.2-37.36h0Z"/></g></g><g id="Illu_beschnitten"><polygon class="cls-4" points="84.87 145.67 84.87 145.67 84.87 145.67 84.87 145.67"/><path class="cls-1" d="M226.76,222.9h0c0,.05-.02,.1-.04,.15,.01-.05,.03-.1,.04-.15Z"/><path class="cls-1" d="M218.45,202.65s.02-.06,.04-.08c-.02,.03-.02,.06-.04,.08Z"/><path class="cls-1" d="M225.15,224.13c-.78-.1-1.33-.82-1.23-1.6,0-.03,.02-.06,.02-.09,0,.03-.02,.06-.02,.09-.1,.78,.45,1.5,1.23,1.6,.68,.09,1.31-.31,1.53-.93-.22,.62-.85,1.02-1.53,.93Z"/><path class="cls-1" d="M224.91,202.01c.11-.06,.24-.09,.36-.12-.13,.02-.25,.06-.36,.12Z"/><path class="cls-1" d="M224.28,208.03s0,.01,0,.02c0,.04,0,.07,0,.1,0-.04,0-.07,0-.1,0,0,0-.01,0-.02Z"/><path class="cls-1" d="M225.36,204.71c-.78-.1-1.33-.82-1.23-1.6h0c-.1,.78,.45,1.5,1.23,1.6,.12,.02,.25,.01,.37,0-.12,.02-.24,.02-.37,0Z"/><path class="cls-1" d="M225.7,227.49h0s-.01,.06-.02,.08c0-.03,.02-.05,.02-.08Z"/><path class="cls-1" d="M223.24,226.33c.19-.2,.42-.34,.69-.41-.27,.07-.5,.21-.69,.41Z"/><path class="cls-1" d="M226.27,159.19s-.03,.04-.04,.06c.01-.02,.03-.04,.04-.06Z"/><path class="cls-1" d="M223.2,232.81c.49-.17,.87-.6,.94-1.16h0c-.07,.55-.45,.98-.94,1.16Z"/><path class="cls-1" d="M223.15,226.44s.04-.06,.06-.08c-.02,.03-.04,.06-.06,.08Z"/><path class="cls-1" d="M234.36,200.1s1.41-6.92-2.02-14.74c.09,.62,.17,1.28,.22,1.99,.29,3.86-.8,9.96-1.39,12.86,1.95-.03,3.18-.12,3.18-.12Z"/><path class="cls-1" d="M227,164.05c-.73-.15-1.22-.89-1.09-1.67h0c-.13,.77,.35,1.52,1.09,1.67,.74,.15,1.44-.36,1.57-1.14h0c-.13,.78-.84,1.29-1.57,1.14Z"/><path class="cls-1" d="M225.51,209.65c-.18-.02-.35-.08-.5-.17,.15,.08,.32,.14,.5,.17,.69,.09,1.32-.32,1.54-.95-.22,.63-.85,1.04-1.54,.95Z"/><path class="cls-1" d="M228.52,162.24c-.11-.37-.35-.68-.69-.86,.34,.18,.58,.49,.69,.86Z"/><path class="cls-1" d="M226.45,161.49c-.25,.19-.44,.48-.52,.82,.08-.34,.26-.63,.52-.82Z"/><path class="cls-1" d="M225.72,214.56c-.35-.05-.65-.22-.86-.46,.22,.24,.52,.41,.86,.46,.78,.1,1.5-.45,1.6-1.23h0c-.1,.78-.82,1.33-1.6,1.23Z"/><path class="cls-1" d="M225.72,219.51c-.29-.04-.54-.16-.75-.34,.2,.18,.46,.3,.75,.34,.78,.1,1.5-.45,1.6-1.23h0c-.1,.78-.82,1.33-1.6,1.23Z"/><path class="cls-1" d="M224.49,217.9s0,.04,0,.06c0-.02,0-.04,0-.06h0Z"/><path class="cls-1" d="M224.89,159.58s0,0,0,0c0,0,0,0,0,0Z"/><path class="cls-1" d="M224.83,212.2c-.18,.21-.31,.47-.35,.76,0,.03,0,.06,0,.09,0-.03,0-.06,0-.09,.04-.29,.16-.55,.35-.76Z"/><path class="cls-1" d="M218.21,213.9c-.11-.1-.2-.21-.27-.34,.08,.13,.16,.24,.27,.34Z"/><path class="cls-1" d="M221.31,231.28c.01-.1,.04-.19,.07-.28-.03,.09-.05,.18-.07,.28-.08,.6,.23,1.17,.74,1.44-.51-.27-.82-.84-.74-1.44Z"/><path class="cls-1" d="M218.97,214.24c-.18-.02-.34-.08-.49-.16,.15,.08,.31,.14,.49,.16,.19,.02,.37,0,.54-.03-.17,.04-.36,.06-.54,.03Z"/><path class="cls-1" d="M220.12,213.87c.24-.22,.41-.51,.45-.86h0c-.05,.35-.22,.64-.45,.86Z"/><path class="cls-1" d="M218.3,219.15c-.78-.1-1.33-.82-1.23-1.6h0c-.1,.78,.45,1.5,1.23,1.6,.69,.09,1.32-.32,1.54-.95-.22,.63-.85,1.04-1.54,.95Z"/><path class="cls-1" d="M217.74,212.64c-.03,.2-.01,.39,.04,.57-.05-.18-.07-.37-.04-.57,.09-.64,.58-1.12,1.19-1.22-.6,.1-1.1,.58-1.19,1.22Z"/><path class="cls-1" d="M218.59,202.43s.04-.06,.06-.08c-.02,.03-.04,.06-.06,.08Z"/><path class="cls-1" d="M218.67,202.33c.21-.23,.49-.38,.8-.44-.31,.06-.59,.21-.8,.44Z"/><path class="cls-1" d="M220.61,202.18s.04,.03,.06,.04c-.02-.02-.04-.03-.06-.04Z"/><path class="cls-1" d="M219.54,204.71c.13,.02,.25,.01,.37,0-.12,.02-.24,.02-.37,0-.78-.1-1.33-.82-1.23-1.6,.01-.1,.04-.19,.07-.28-.03,.09-.05,.18-.07,.28-.1,.78,.45,1.5,1.23,1.6Z"/><path class="cls-1" d="M217.88,213.46s-.04-.1-.06-.15c.02,.05,.03,.11,.06,.15Z"/><path class="cls-1" d="M218.9,234.61s.04-.09,.06-.14c-.02,.05-.05,.09-.06,.14Z"/><path class="cls-1" d="M220.44,233.65c-.59-.08-1.14,.21-1.42,.7,.28-.48,.83-.77,1.42-.69,.74,.1,1.26,.74,1.24,1.47,.03-.73-.5-1.38-1.24-1.47Z"/><path class="cls-1" d="M220.07,236.49c-.78-.1-1.33-.82-1.23-1.6,.01-.08,.03-.16,.06-.24-.02,.08-.05,.15-.06,.24-.1,.78,.45,1.5,1.23,1.6,.13,.02,.26,.01,.38,0-.12,.02-.25,.02-.38,0Z"/><path class="cls-1" d="M222.91,230.06c.18,.02,.35,.08,.51,.17-.15-.09-.32-.15-.51-.17-.24-.03-.47,0-.68,.08,.21-.08,.44-.12,.68-.08Z"/><path class="cls-1" d="M218.53,237.79s.02,.06,.03,.09c-.01-.03-.02-.06-.03-.09Z"/><path class="cls-1" d="M217.44,237.01c.47,.06,.85,.34,1.06,.73-.21-.38-.59-.66-1.06-.73-.26-.03-.52,.01-.74,.11,.23-.1,.48-.14,.74-.11Z"/><path class="cls-1" d="M218.68,238.33s0,.04,0,.06c0-.02,0-.04,0-.06Z"/><path class="cls-1" d="M217.97,239.66c.37-.21,.64-.59,.7-1.04h0c-.06,.46-.33,.83-.7,1.04Z"/><path class="cls-1" d="M215.83,238.24c.04-.28,.15-.52,.32-.72-.16,.2-.28,.44-.32,.72-.03,.2-.01,.39,.04,.57-.05-.18-.06-.37-.04-.57Z"/><path class="cls-1" d="M222.86,227.12c.01-.1,.04-.19,.07-.28-.03,.09-.05,.18-.07,.28-.08,.61,.24,1.18,.75,1.45-.51-.27-.83-.84-.75-1.45Z"/><path class="cls-1" d="M206.66,229.61c-.1,.78-.82,1.33-1.6,1.23-.78-.1-1.33-.82-1.23-1.6h0c-.1,.78,.45,1.5,1.23,1.6,.78,.1,1.5-.45,1.61-1.23,.04-.29-.02-.58-.14-.82,.12,.25,.18,.53,.14,.82Z"/><path class="cls-1" d="M203.79,210.69c.17-.15,.37-.25,.6-.31-.22,.05-.43,.16-.6,.31Z"/><path class="cls-1" d="M205.66,210.7s.02,.02,.03,.03c0,0-.02-.02-.03-.03Z"/><path class="cls-1" d="M206,211.13s.01,.03,.02,.05c0-.02-.01-.03-.02-.05Z"/><path class="cls-1" d="M204.53,213.18c.78,.1,1.5-.45,1.6-1.23h0c-.1,.79-.82,1.34-1.6,1.23-.78-.1-1.33-.82-1.23-1.6,0,0,0,0,0,0-.1,.78,.45,1.5,1.23,1.6Z"/><path class="cls-1" d="M208.59,210.89c.15,.02,.3,0,.45-.02-.15,.03-.29,.04-.45,.02-.78-.1-1.33-.82-1.23-1.6h0c-.1,.78,.45,1.5,1.23,1.6Z"/><path class="cls-1" d="M201.72,244.97h0c0,.06-.03,.12-.04,.18,.02-.06,.03-.12,.04-.18Z"/><path class="cls-1" d="M210.2,209.37c-.04-.55-.4-1.03-.91-1.23,.51,.2,.87,.68,.91,1.23Z"/><path class="cls-1" d="M230.99,188.87c.12-3.92-.96-6.89-1.99-8.83,.29,.9,.54,1.83,.67,2.82,.87,6.33-6.46,9.71-10.34,9.81-3.88,.1-3.33-5.57-1.95-7.01,1.38-1.45,3.15-1.14,3.15-1.14,0,0-1.74,1.1-1.31,3.92,.43,2.81,8.5,.84,8.38-3.75-.11-4.05-4.77-10.3-5.86-11.7-2.01-1.36-4.31-2.65-6.98-3.79,0,0-6.18,18.72-6.71,26.84,5.23,3.28,13.99,4.06,19.96,4.17,1.03-2.3,2.83-6.9,2.97-11.33Zm-15.21,7.52c-.11,.86-.9,1.47-1.76,1.35-.86-.11-1.46-.9-1.35-1.76,.12-.86,.9-1.47,1.76-1.35,.86,.12,1.47,.91,1.35,1.76Zm6.36,1.24c-.11,.86-.9,1.47-1.76,1.35-.86-.11-1.47-.9-1.35-1.76,.11-.86,.9-1.47,1.76-1.35,.86,.11,1.47,.91,1.35,1.76Zm5.12,0c-.11,.86-.9,1.47-1.76,1.35-.86-.11-1.47-.9-1.35-1.76,.11-.86,.9-1.47,1.76-1.35,.86,.11,1.47,.91,1.35,1.76Z"/><path class="cls-1" d="M207.89,208.35c-.24,.19-.42,.46-.5,.78,.08-.32,.25-.59,.5-.78Z"/><path class="cls-1" d="M200.3,213.76c.46-.19,.82-.6,.88-1.13h0c-.07,.53-.42,.95-.88,1.13Z"/><path class="cls-1" d="M200.74,211.4c.07,.07,.14,.15,.2,.23-.06-.08-.12-.16-.2-.23Z"/><path class="cls-1" d="M198.88,244.6c.09-.67,.63-1.17,1.27-1.23-.64,.07-1.18,.56-1.27,1.23-.05,.37,.05,.72,.25,1-.2-.28-.29-.63-.25-1Z"/><path class="cls-1" d="M199.96,211.02c.29,.04,.55,.16,.76,.35-.21-.18-.47-.31-.76-.35-.25-.03-.5,0-.72,.1,.22-.09,.46-.13,.72-.1Z"/><path class="cls-1" d="M199.11,213.7c-.51-.27-.83-.84-.75-1.45,.04-.29,.16-.55,.35-.76-.18,.21-.31,.47-.35,.76-.08,.61,.24,1.18,.75,1.45Z"/><path class="cls-1" d="M211.61,161.58c-.16,.03-.33,.04-.51,0-.13-.03-.25-.08-.37-.14,.11,.06,.24,.11,.37,.14,.17,.03,.34,.03,.51,0Z"/><path class="cls-1" d="M201.13,245.95c.24-.17,.43-.41,.52-.69-.1,.29-.29,.52-.52,.69Z"/><path class="cls-1" d="M200.11,246.2c-.17-.02-.32-.08-.47-.15,.14,.07,.3,.13,.47,.15,.15,.02,.3,0,.45-.02-.15,.03-.3,.04-.45,.02Z"/><path class="cls-1" d="M199.76,231.19c-.78-.1-1.33-.82-1.23-1.6h0c-.1,.78,.45,1.5,1.23,1.6,.35,.05,.67-.04,.95-.21-.27,.17-.6,.26-.95,.21Z"/><path class="cls-1" d="M200.88,228.7c.32,.28,.51,.71,.48,1.16,.03-.45-.16-.88-.48-1.16Z"/><path class="cls-1" d="M217.47,160.48s-.04-.06-.05-.09c.02,.03,.04,.06,.05,.09Z"/><path class="cls-1" d="M220.92,158.25s0,.07,.01,.11c0-.04,0-.07-.01-.11Z"/><path class="cls-1" d="M219.78,161.58c-.1,.03-.19,.05-.29,.06,.1-.01,.19-.03,.29-.06Z"/><path class="cls-1" d="M224.73,159.46s-.07-.05-.1-.08c.03,.03,.07,.05,.1,.08Z"/><path class="cls-1" d="M219.78,161.58c.38-.12,.74-.41,1.05-.92,.07-.12,.12-.27,.16-.44-.03,.17-.09,.32-.16,.44-.31,.51-.67,.8-1.05,.92Z"/><path class="cls-1" d="M219.01,161.62s-.08-.01-.12-.02c.04,.01,.08,.02,.12,.02Z"/><path class="cls-1" d="M222.94,144.28c.07,.13,.14,.32,.22,.54-.08-.22-.15-.41-.22-.54-.29-.57-.72-.63-1.12-.45,.4-.17,.83-.11,1.12,.46Z"/><path class="cls-1" d="M226.09,156.6c-.33-.71-.83-1.39-1.28-1.63,.45,.24,.95,.93,1.28,1.63Z"/><path class="cls-1" d="M224.14,155.05c-.45,.53-.48,2.08-.23,3.03,.14,.53,.39,.96,.69,1.26-.3-.3-.55-.74-.69-1.26-.24-.95-.22-2.5,.23-3.03Z"/><path class="cls-1" d="M221.77,143.84s0,0,.01,0c0,0,0,0-.01,0Z"/><path class="cls-1" d="M217.61,150.93h0s0-.04,0-.06c0,.02,0,.04,0,.06Z"/><path class="cls-1" d="M212.68,160.44h0c-.03,.19-.1,.37-.2,.52,.09-.15,.16-.33,.2-.52Z"/><path class="cls-1" d="M220.34,156.06c.16,.32,.41,1.18,.56,2.09-.15-.91-.4-1.76-.56-2.09-.23-.45-.62-.35-.91-.1,.29-.25,.68-.36,.91,.1Z"/><path class="cls-1" d="M212.2,161.28c.11-.09,.2-.19,.28-.32-.08,.12-.17,.23-.28,.32Z"/><path class="cls-1" d="M211.59,158.77c.37,.07,.68,.3,.87,.61-.2-.31-.5-.53-.87-.61-.22-.04-.44-.02-.65,.05,.2-.07,.42-.09,.65-.04Z"/><path class="cls-1" d="M215.9,92.26c-11.47,.72-11.71-6.78-11-10.9-1.07,.74-2.55,2.01-2.2,5.07,1.06,5.46,7.85,6.6,9.81,6.81,1.04-.33,2.16-.67,3.39-.99Z"/><path class="cls-1" d="M210.02,159.91h0c-.04,.21-.02,.41,.02,.6-.04-.19-.05-.39-.02-.6Z"/><path class="cls-1" d="M218.34,166.17c-.1-.02-.19-.05-.28-.09,.09,.04,.18,.07,.28,.09,.36,.07,.71-.01,.99-.21-.28,.2-.63,.28-.99,.21Z"/><path class="cls-1" d="M215.4,153.72c.28-.1,.53-.13,.7,0,.1,.07,.15,.19,.2,.32-.04-.14-.1-.25-.2-.32-.17-.12-.42-.1-.7,0Z"/><path class="cls-1" d="M217.25,159.92c-.18-1.04,1.18-2.78,1.78-3.51-.6,.73-1.96,2.47-1.78,3.51,.02,.14,.07,.28,.14,.42-.07-.14-.12-.28-.14-.42Z"/><path class="cls-1" d="M213.43,157.87c-.51-.37-.57-1.26-.18-2.1-.39,.85-.34,1.74,.18,2.1,.59,.42,1.55,0,2.15-.95,.06-.1,.12-.21,.18-.33-.06,.12-.12,.23-.18,.33-.6,.94-1.56,1.37-2.15,.95Z"/><path class="cls-1" d="M176.44,228.09c.04-.62-.32-1.18-.88-1.41,.56,.23,.92,.79,.88,1.41Z"/><path class="cls-1" d="M257.03,131.15s-.01-.03-.02-.04c0,.02,.01,.03,.02,.04Z"/><path class="cls-1" d="M259.79,137.64s.06-.08,.08-.13c.04-.09,.07-.18,.1-.27-.02,.09-.05,.18-.1,.27-.02,.05-.05,.09-.08,.13Z"/><path class="cls-1" d="M259.36,129.68c.07,.07,.14,.15,.2,.23-.06-.08-.12-.16-.2-.23Z"/><path class="cls-1" d="M258.58,129.31c.29,.04,.55,.16,.76,.35-.21-.18-.47-.31-.76-.35-.22-.03-.43,0-.63,.06,.2-.07,.41-.09,.63-.06Z"/><path class="cls-1" d="M256.98,130.54c.01-.1,.04-.19,.07-.28-.03,.09-.05,.18-.07,.28-.02,.18,0,.36,.03,.53-.04-.17-.06-.35-.03-.53Z"/><path class="cls-1" d="M258.92,132.04c.41-.17,.73-.52,.85-.97-.11,.45-.43,.8-.85,.97Z"/><path class="cls-1" d="M257.18,136.57c-.16,.65,.16,1.34,.78,1.62,.1,.05,.2,.08,.3,.1-.1-.02-.2-.05-.3-.1-.62-.29-.94-.98-.78-1.62Z"/><path class="cls-1" d="M262.79,130.55c.13,.02,.25,.01,.37,0-.12,.02-.24,.02-.37,0-.78-.1-1.33-.82-1.23-1.6h0c-.1,.78,.45,1.5,1.23,1.6Z"/><path class="cls-1" d="M264,137.8c.55,.02,1.09-.29,1.34-.82,0,0,0-.01,0-.02,0,0,0,.01,0,.02-.25,.53-.78,.84-1.34,.82Z"/><path class="cls-1" d="M259.17,135.61c.31,.14,.53,.38,.67,.66-.14-.28-.36-.52-.67-.66-.19-.09-.4-.13-.6-.13,.2,0,.4,.04,.6,.13Z"/><path class="cls-1" d="M172.69,220.18c.28-.1,.52-.28,.7-.52-.17,.24-.41,.42-.7,.52Z"/><path class="cls-1" d="M252.9,135.24c-.26,.11-.48,.29-.64,.53,.16-.24,.38-.42,.64-.53Z"/><path class="cls-1" d="M254.88,136.6c.02-.56-.29-1.1-.82-1.35,0,0,0,0,0,0,.54,.25,.85,.79,.83,1.35Z"/><path class="cls-1" d="M252.1,137.04c-.12-.32-.11-.69,.02-1.03-.14,.34-.14,.7-.02,1.03Z"/><path class="cls-1" d="M171.25,217.8c.2-.19,.45-.32,.72-.37-.27,.05-.52,.18-.72,.37Z"/><path class="cls-1" d="M254.71,129.98s.02,.02,.04,.03c-.01,0-.02-.02-.04-.03Z"/><path class="cls-1" d="M253.61,132.49c.19,.02,.37,0,.54-.03-.17,.04-.35,.06-.54,.03-.78-.1-1.33-.82-1.23-1.6,.09-.67,.63-1.17,1.27-1.23-.64,.07-1.18,.56-1.27,1.23-.1,.78,.45,1.5,1.23,1.6Z"/><path class="cls-1" d="M255.22,131.26c-.04,.32-.19,.6-.4,.81,.21-.21,.36-.49,.4-.81,.06-.49-.13-.95-.46-1.25,.34,.3,.53,.76,.46,1.25Z"/><path class="cls-1" d="M253.4,137.98c.55,.02,1.09-.29,1.34-.83,.03-.07,.06-.15,.08-.23-.02,.08-.04,.15-.08,.23-.25,.54-.79,.84-1.34,.83Z"/><path class="cls-1" d="M253.4,137.98s0,0,0,0c0,0,0,0,0,0Z"/><path class="cls-1" d="M265.45,136.16c-.07-.46-.36-.87-.81-1.08h0c.45,.21,.74,.62,.81,1.08Z"/><path class="cls-1" d="M314.41,180.66c-1.3-7.09-8.43-19.99-10.85-25.72-1.01-2.39-3.83-7.7-6.88-13.25,2.5,9.68,6.78,18.71,16.93,37.38,.29,.54,.55,1.06,.8,1.59Z"/><path class="cls-1" d="M275.27,129.19c-.3-.14-.52-.37-.66-.64,.14,.27,.36,.5,.66,.64,.33,.16,.7,.17,1.02,.07-.33,.1-.69,.09-1.02-.07Z"/><path class="cls-1" d="M272.44,133.26c-.27-.12-.48-.32-.62-.56,.14,.24,.35,.43,.62,.56,.72,.33,1.56,.02,1.9-.69,.03-.07,.06-.15,.08-.23-.02,.08-.04,.15-.08,.23-.34,.72-1.18,1.02-1.9,.69Z"/><path class="cls-1" d="M277.04,128.72c.05-.07,.09-.14,.13-.21,.03-.06,.04-.11,.06-.17-.02,.06-.03,.12-.06,.17-.04,.08-.08,.15-.13,.22Z"/><path class="cls-1" d="M276.48,126.6c.36,.17,.61,.46,.74,.81-.13-.34-.38-.64-.74-.81-.38-.18-.81-.17-1.17-.01,.36-.16,.79-.17,1.17,.01Z"/><path class="cls-1" d="M253.63,236.17c.06,.04,.1,.08,.15,.12,3.53,2.82,10.95,6.71,19.78,5.3,1.46-.23,2.73-.55,3.85-.91-12.18-.18-23.8-4.57-23.8-4.57l.03,.06Z"/><path class="cls-1" d="M300.16,208.23c.51,.57,.96,1.25,1.36,1.99,2.94-1.04,8.39-3.38,10.84-7.11,.98-1.49,1.64-3.32,2.11-5.2-4.54,7.42-14.3,10.32-14.3,10.32Z"/><path class="cls-1" d="M268.53,133.4c-.25,.08-.46,.23-.64,.44,.17-.2,.39-.35,.64-.44Z"/><path class="cls-1" d="M270.4,134.53c-.05-.31-.21-.6-.44-.82,.23,.22,.39,.5,.44,.82Z"/><path class="cls-1" d="M271.75,131.35c-.03,.07-.05,.14-.07,.21,.02-.07,.04-.14,.07-.21,.28-.6,.92-.9,1.54-.8-.62-.11-1.26,.2-1.54,.8Z"/><path class="cls-1" d="M266.86,127.9c-.06,0-.12-.03-.18-.04,.06,.02,.12,.03,.18,.04,.69,.09,1.32-.32,1.54-.95-.22,.63-.85,1.04-1.54,.95Z"/><path class="cls-1" d="M263.99,137.8s-.01,0-.02,0c0,0,.01,0,.02,0Z"/><path class="cls-1" d="M265.63,126.3c.01-.1,.04-.19,.07-.28-.03,.09-.05,.18-.07,.28-.05,.41,.08,.81,.33,1.1-.25-.3-.38-.69-.33-1.1Z"/><path class="cls-1" d="M270.15,135.58s0,.01-.01,.02c0,0,0-.01,.01-.02Z"/><path class="cls-1" d="M270.92,124.9c.78,.1,1.5-.45,1.6-1.23h0c-.1,.78-.82,1.33-1.6,1.23-.78-.1-1.33-.82-1.23-1.6,0,0,0,0,0,0-.1,.78,.45,1.5,1.23,1.6Z"/><path class="cls-1" d="M262.75,135.77c.32-.69,1.13-1,1.83-.72-.7-.28-1.5,.03-1.83,.72-.25,.54-.14,1.15,.23,1.56-.37-.41-.48-1.03-.23-1.56Z"/><path class="cls-1" d="M268.38,136.04c-.09-.04-.16-.09-.24-.14,.07,.05,.15,.1,.24,.14,.61,.29,1.33,.1,1.73-.42-.4,.51-1.11,.7-1.73,.41Z"/><path class="cls-1" d="M215.84,221.24c-.24,.19-.42,.46-.5,.78,.08-.32,.25-.59,.5-.78Z"/><path class="cls-1" d="M209.65,229.41c-.78-.1-1.33-.82-1.23-1.6,.01-.1,.04-.19,.07-.28-.03,.09-.05,.18-.07,.28-.1,.78,.45,1.5,1.23,1.6,.16,.02,.31,0,.46-.02-.15,.03-.3,.04-.46,.02Z"/><path class="cls-1" d="M208.88,226.94c.17-.15,.37-.27,.6-.33-.23,.06-.43,.17-.6,.33Z"/><path class="cls-1" d="M211.21,227.61c-.11-.41-.42-.76-.82-.93,.4,.17,.7,.51,.82,.93Z"/><path class="cls-1" d="M210.25,204.43c.15-.11,.31-.18,.49-.23-.18,.04-.35,.12-.49,.23Z"/><path class="cls-1" d="M210.88,207c-.78-.1-1.33-.82-1.23-1.6h0c-.1,.78,.45,1.5,1.23,1.6,.11,.02,.23,.01,.34,0-.11,.01-.22,.01-.34,0Z"/><path class="cls-1" d="M210.12,244.3s-.02,0-.03,.01c0,0,.02,0,.03-.01Z"/><path class="cls-1" d="M208.07,242.83c.04-.28,.15-.53,.32-.73-.17,.2-.29,.45-.32,.73-.04,.31,.03,.61,.17,.87-.14-.26-.21-.56-.17-.87Z"/><path class="cls-1" d="M210.55,243.97c-.11,.12-.23,.22-.37,.3,.14-.08,.27-.18,.37-.3Z"/><path class="cls-1" d="M214.43,201.71h0c0,.05-.02,.1-.04,.16,.01-.05,.03-.1,.04-.16Z"/><path class="cls-1" d="M209.67,241.6c.28,.04,.53,.16,.73,.33-.2-.17-.45-.29-.73-.33-.17-.02-.33,0-.48,.02,.16-.03,.32-.05,.48-.02Z"/><path class="cls-1" d="M210.43,241.95s0,0,.01,.01c0,0,0,0-.01-.01Z"/><path class="cls-1" d="M218.14,222.55h0c-.11,.78-.82,1.33-1.61,1.23-.78-.1-1.33-.82-1.23-1.6h0c-.1,.78,.45,1.5,1.23,1.6,.78,.1,1.5-.45,1.61-1.23Z"/><path class="cls-1" d="M212.83,202.94c.36,.05,.71-.05,.99-.24-.28,.19-.62,.28-.99,.24-.78-.1-1.33-.82-1.23-1.6,.06-.42,.29-.77,.62-.99-.33,.22-.56,.57-.62,.99-.1,.78,.45,1.5,1.23,1.6Z"/><path class="cls-1" d="M218.13,208.05s0,.03,0,.05c0-.02,0-.03,0-.05h0Z"/><path class="cls-1" d="M214.08,224.47c-.24-.03-.47,0-.68,.08,.21-.08,.44-.12,.68-.08,.76,.1,1.3,.79,1.23,1.54,.07-.76-.47-1.44-1.23-1.54Z"/><path class="cls-1" d="M219.36,209.65c-.18-.02-.35-.08-.51-.17,.15,.08,.32,.15,.51,.17,.69,.09,1.32-.32,1.54-.95-.22,.63-.85,1.04-1.54,.95Z"/><path class="cls-1" d="M214.33,227.25c.51-.16,.91-.6,.99-1.17h0c-.08,.57-.48,1.01-.99,1.17Z"/><path class="cls-1" d="M214.79,240.97c-.04-.53-.37-.99-.85-1.2,.48,.21,.81,.67,.85,1.2Z"/><path class="cls-1" d="M213.18,242.49c-.78-.1-1.33-.82-1.23-1.6,.09-.67,.63-1.17,1.27-1.23-.64,.07-1.18,.56-1.27,1.23-.1,.78,.45,1.5,1.23,1.6,.19,.03,.38,.01,.55-.04-.17,.05-.36,.06-.55,.04Z"/><path class="cls-1" d="M212.48,225.71c.03-.26,.14-.5,.3-.69-.15,.19-.26,.43-.3,.69-.08,.58,.21,1.12,.67,1.4-.47-.29-.75-.83-.67-1.4Z"/><path class="cls-1" d="M171.84,223.3c.1-.78,.82-1.34,1.6-1.23,.38,.05,.71,.25,.93,.53-.22-.28-.55-.48-.93-.53-.78-.1-1.5,.45-1.6,1.23-.06,.49,.13,.95,.47,1.26-.34-.3-.53-.77-.47-1.26Z"/><path class="cls-1" d="M196.96,210.23c-.04-.51-.34-.95-.79-1.17,.45,.22,.75,.66,.79,1.17Z"/><path class="cls-1" d="M174.06,226.94c.17-.16,.38-.27,.6-.33-.23,.06-.43,.17-.6,.33Z"/><path class="cls-1" d="M177.12,233.74c-.78-.1-1.33-.82-1.23-1.6,0-.05,.02-.09,.03-.13-.01,.04-.03,.09-.03,.13-.1,.78,.45,1.5,1.23,1.6,.69,.09,1.32-.32,1.54-.95-.22,.63-.85,1.04-1.54,.95Z"/><path class="cls-1" d="M174.83,229.41c-.78-.1-1.33-.82-1.23-1.6,0,0,0,0,0,0-.1,.78,.45,1.5,1.23,1.6,.16,.02,.31,0,.46-.02-.15,.03-.3,.04-.46,.02Z"/><path class="cls-1" d="M173.07,224.91c-.19-.03-.37-.09-.53-.18,.16,.09,.34,.16,.53,.18,.15,.02,.3,0,.44-.02-.14,.03-.29,.04-.44,.02Z"/><path class="cls-1" d="M183.78,237.54c.39,.05,.72,.26,.95,.55-.22-.29-.56-.5-.95-.55-.23-.03-.46,0-.66,.08,.21-.07,.43-.11,.66-.08Z"/><path class="cls-1" d="M205.08,242.8c.59,.08,1.04,.5,1.19,1.04-.15-.54-.61-.96-1.19-1.04-.22-.03-.43,0-.62,.06,.2-.06,.41-.09,.62-.06Z"/><path class="cls-1" d="M174.6,223.96c-.05,.16-.14,.3-.24,.42,.1-.13,.18-.27,.24-.42Z"/><path class="cls-1" d="M174.32,224.44s-.02,.02-.03,.03c0,0,.02-.02,.03-.03Z"/><path class="cls-1" d="M172.53,224.72s-.07-.05-.1-.07c.03,.02,.07,.05,.1,.07Z"/><path class="cls-1" d="M174.47,222.76s.04,.06,.06,.09c-.02-.03-.04-.06-.06-.09Z"/><path class="cls-1" d="M192.54,205.23c-.46,.04-.86,.31-1.09,.7,.23-.39,.64-.65,1.09-.7Z"/><path class="cls-1" d="M194.09,206.83c-.05,.36-.22,.66-.47,.88,.25-.22,.43-.52,.47-.88,.04-.28-.01-.56-.13-.8,.11,.24,.16,.51,.13,.8Z"/><path class="cls-1" d="M187.05,242.85c-.78-.1-1.33-.82-1.23-1.6,.1-.78,.82-1.33,1.6-1.23,.2,.03,.38,.09,.54,.18-.16-.09-.34-.16-.54-.18-.78-.1-1.5,.45-1.6,1.23-.1,.78,.45,1.5,1.23,1.6,.78,.1,1.5-.45,1.6-1.23h0c-.1,.78-.82,1.33-1.6,1.23Z"/><path class="cls-1" d="M182.53,238.01c-.18,.21-.31,.47-.35,.76-.01,.1-.02,.19,0,.29,0-.09,0-.19,0-.29,.04-.29,.16-.55,.35-.76Z"/><path class="cls-1" d="M205.61,245.45s-.05,.04-.08,.05c.03-.01,.05-.03,.08-.05Z"/><path class="cls-1" d="M182.99,215.3c-.21-.03-.4-.1-.57-.21,.17,.1,.36,.18,.57,.21,.73,.1,1.39-.37,1.57-1.06-.18,.69-.84,1.16-1.56,1.06Z"/><path class="cls-1" d="M183.36,212.47c.17,.02,.33,.08,.48,.16-.15-.08-.31-.13-.48-.16-.73-.1-1.39,.38-1.57,1.08,.17-.7,.84-1.17,1.57-1.08Z"/><path class="cls-1" d="M181.76,213.7h0c-.02,.15,0,.3,.02,.45-.03-.15-.04-.29-.02-.45Z"/><path class="cls-1" d="M186,218.84c-.1,.78-.82,1.33-1.6,1.23-.78-.1-1.33-.82-1.23-1.6,.06-.42,.29-.77,.62-.99-.33,.22-.56,.57-.62,.99-.1,.78,.45,1.5,1.23,1.6,.78,.1,1.5-.45,1.61-1.23h0Z"/><path class="cls-1" d="M223.03,226.62s.01-.03,.02-.04c0,.01-.01,.03-.02,.04Z"/><path class="cls-1" d="M193.07,202.42h0c-.04,.27-.15,.51-.31,.71,.16-.2,.27-.44,.31-.71Z"/><path class="cls-1" d="M186.08,197.34c.42-.2,.73-.59,.8-1.08-.07,.49-.38,.88-.8,1.08Z"/><path class="cls-1" d="M184.07,204.6c-.04-.53-.37-.99-.85-1.2,.48,.21,.81,.67,.85,1.2Z"/><path class="cls-1" d="M181.23,204.52c.04-.28,.16-.54,.33-.74-.17,.2-.29,.46-.33,.74-.03,.2-.01,.39,.04,.57-.05-.18-.06-.37-.04-.57Z"/><path class="cls-1" d="M192.72,203.18s-.02,.02-.03,.02c0,0,.02-.01,.03-.02Z"/><path class="cls-1" d="M175.12,202.01c.43-.13,.78-.46,.93-.9-.15,.44-.5,.76-.93,.9Z"/><path class="cls-1" d="M111.16,182.45c-.6,.06-1.1,.5-1.24,1.1,.14-.6,.64-1.04,1.24-1.1Z"/><path class="cls-1" d="M121.79,140.83s-2.58-2.67-1.9-6.76l-4.95,7.97,4.94,4.14,1.91-5.34Z"/><path class="cls-1" d="M172.18,211.28c.35,.05,.68-.04,.95-.22-.27,.17-.6,.26-.95,.22-.78-.1-1.33-.82-1.23-1.6,.01-.1,.04-.19,.07-.28-.03,.09-.05,.18-.07,.28-.1,.78,.45,1.5,1.23,1.6Z"/><path class="cls-1" d="M173.98,206.38c.23-.09,.42-.23,.58-.41-.15,.18-.35,.32-.58,.41Z"/><path class="cls-1" d="M112.74,183.77c-.04-.57-.42-1.06-.96-1.25,.54,.19,.92,.68,.96,1.25Z"/><path class="cls-1" d="M182.46,206.12c-.23-.03-.44-.12-.62-.24,.18,.12,.39,.21,.62,.24,.16,.02,.31,0,.46-.02-.15,.03-.3,.04-.46,.02Z"/><path class="cls-1" d="M183.72,208.8s.02,.02,.02,.04c0-.01-.02-.02-.02-.04Z"/><path class="cls-1" d="M171.76,215.62c-.18-.02-.35-.08-.5-.17,.15,.08,.32,.14,.5,.17,.16,.02,.31,0,.46-.02-.15,.03-.3,.04-.46,.02Z"/><path class="cls-1" d="M195.72,242.8c.68,.09,1.19,.65,1.24,1.31-.05-.66-.56-1.22-1.24-1.31-.21-.03-.41,0-.6,.05,.19-.06,.39-.08,.6-.05Z"/><path class="cls-1" d="M194.09,198c-.1,.78-.82,1.33-1.6,1.23-.5-.07-.91-.39-1.11-.82,.2,.43,.6,.75,1.11,.82,.78,.1,1.5-.45,1.6-1.23,.06-.44-.09-.85-.37-1.15,.28,.3,.43,.71,.37,1.15Z"/><path class="cls-1" d="M111.12,185.29c-.78-.1-1.33-.82-1.23-1.6,0,0,0,0,0,0-.1,.78,.45,1.5,1.23,1.6,.36,.05,.71-.05,.99-.24-.28,.19-.63,.29-.99,.24Z"/><path class="cls-1" d="M181.05,209.29s0,.03,0,.05c0-.02,0-.03,0-.05h0Z"/><path class="cls-1" d="M194.12,244.03h0c-.04,.29,.02,.58,.14,.82-.12-.25-.18-.53-.14-.82Z"/><path class="cls-1" d="M176.12,200.83h0c0,.06-.03,.12-.04,.18,.02-.06,.03-.12,.04-.18Z"/><path class="cls-1" d="M187.19,223.95c-.17-.02-.32-.08-.47-.15,.14,.07,.3,.13,.47,.15,.78,.1,1.5-.45,1.6-1.23h0c-.1,.78-.82,1.33-1.6,1.23Z"/><path class="cls-1" d="M190.4,227.13c-.48-.28-.77-.83-.69-1.42,.04-.28,.15-.52,.32-.72-.16,.2-.28,.44-.32,.72-.08,.59,.21,1.14,.69,1.42Z"/><path class="cls-1" d="M107.08,181.22c.17,.02,.33,.08,.48,.16-.15-.08-.31-.13-.48-.16-.21-.03-.42,0-.61,.05,.19-.06,.4-.08,.61-.05Z"/><path class="cls-1" d="M178.72,235.66s0,0,0,0c-.08,.6,.22,1.15,.72,1.43-.49-.28-.79-.83-.72-1.43Z"/><path class="cls-1" d="M181.55,236.04h0c0,.06-.03,.12-.04,.18,.02-.06,.03-.12,.04-.18Z"/><path class="cls-1" d="M105.48,182.45h0c-.02,.18,0,.36,.03,.53-.04-.17-.06-.35-.03-.53Z"/><path class="cls-1" d="M190.93,244.61c.69,.09,1.32-.32,1.54-.95-.22,.63-.85,1.04-1.54,.95-.78-.1-1.33-.82-1.23-1.6,.05-.41,.28-.76,.6-.98-.31,.22-.54,.57-.6,.98-.1,.78,.45,1.5,1.23,1.6Z"/><path class="cls-1" d="M188.1,221.3s0,0,0,0c0,0,0,0,0,0Z"/><path class="cls-1" d="M186.31,221.59c.22-.25,.53-.42,.88-.46-.34,.05-.65,.21-.88,.46Z"/><path class="cls-1" d="M181.49,236.32c-.06,.17-.15,.32-.26,.45,.11-.13,.2-.28,.26-.45Z"/><path class="cls-1" d="M191.31,224.47c.49,.06,.89,.37,1.09,.78-.21-.41-.6-.71-1.09-.78-.24-.03-.47,0-.68,.08,.21-.08,.44-.12,.68-.08Z"/><path class="cls-1" d="M181.66,208.3c-.28,.19-.48,.48-.57,.83,.09-.35,.29-.64,.57-.83Z"/><path class="cls-1" d="M184.52,197.12c-.12-.11-.22-.24-.3-.38,.08,.14,.18,.27,.3,.38Z"/><path class="cls-1" d="M191.46,203.65c.19,.02,.38,0,.55-.04-.17,.05-.36,.06-.55,.04-.78-.1-1.33-.82-1.23-1.6,.09-.66,.62-1.16,1.26-1.23-.64,.07-1.17,.57-1.26,1.23-.1,.78,.45,1.5,1.23,1.6Z"/><path class="cls-1" d="M181.21,236.8s0,0,0,0c0,0,0,0,0,0Z"/><path class="cls-1" d="M175.03,196.36s0-.01,0-.02c0,0,0,.01,0,.02-.04,.29,.02,.58,.14,.82-.12-.25-.18-.53-.14-.82Z"/><path class="cls-1" d="M184.05,195.86c.1-.78,.82-1.33,1.6-1.23,.17,.02,.33,.08,.48,.16-.15-.08-.3-.13-.48-.16-.78-.1-1.5,.45-1.6,1.23-.04,.29,.02,.58,.14,.82-.12-.25-.18-.53-.14-.83Z"/><path class="cls-1" d="M106.71,184.05c-.2-.03-.38-.09-.54-.18,.16,.09,.34,.16,.54,.18,.44,.06,.86-.1,1.16-.38-.3,.28-.72,.43-1.16,.38Z"/><path class="cls-1" d="M191.6,227.23c.4-.14,.73-.46,.87-.87-.14,.42-.47,.73-.87,.87Z"/><path class="cls-1" d="M172.13,212.79c.17,.02,.33,.08,.47,.15-.14-.07-.3-.13-.47-.15-.78-.1-1.5,.45-1.6,1.23,0,.02,0,.05,0,.07,0-.02,0-.05,0-.07,.1-.78,.82-1.33,1.6-1.23Z"/><path class="cls-1" d="M196.96,227.89c-.04-.53-.37-.98-.85-1.2,.48,.21,.81,.67,.85,1.2Z"/><path class="cls-1" d="M174.89,199.23c.18,.02,.35,.08,.51,.17-.15-.09-.32-.15-.51-.17-.22-.03-.43,0-.62,.06,.2-.06,.41-.09,.62-.06Z"/><path class="cls-1" d="M183.81,208.99s.03,.07,.04,.1c0-.04-.03-.07-.04-.1Z"/><path class="cls-1" d="M173.28,200.46c.01-.1,.04-.19,.07-.28-.03,.09-.05,.18-.07,.28-.03,.2-.01,.39,.04,.57-.05-.18-.06-.37-.04-.57Z"/><path class="cls-1" d="M195.35,229.41c.19,.03,.38,.01,.55-.04-.17,.05-.36,.06-.55,.04-.78-.1-1.33-.82-1.23-1.6,0,0,0,0,0,0-.1,.78,.45,1.5,1.23,1.6Z"/><path class="cls-1" d="M182.28,210.89c-.39-.05-.72-.26-.95-.55,.22,.29,.56,.5,.95,.55,.16,.02,.31,0,.46-.02-.15,.03-.3,.04-.46,.02Z"/><path class="cls-1" d="M183.35,208.36s.04,.03,.06,.04c-.02-.02-.04-.03-.06-.04Z"/><path class="cls-1" d="M194.72,226.83c.14-.1,.3-.17,.46-.22-.17,.04-.32,.12-.46,.22Z"/><path class="cls-1" d="M196.25,245.45s-.05,.04-.08,.05c.03-.01,.05-.03,.08-.05Z"/><path class="cls-1" d="M183.89,209.35s0,.01,0,.02c0,0,0-.01,0-.02Z"/><path class="cls-1" d="M179.04,191.26c.29,.04,.55,.16,.76,.35-.21-.18-.47-.31-.76-.35-.24-.03-.47,0-.68,.08,.21-.08,.44-.12,.68-.08Z"/><path class="cls-1" d="M195.35,211.75c.14,.02,.27,0,.4-.01-.13,.02-.27,.03-.4,.01-.78-.1-1.33-.82-1.23-1.6,.08-.63,.56-1.1,1.15-1.21-.59,.11-1.07,.58-1.15,1.21-.1,.78,.45,1.5,1.23,1.6Z"/><path class="cls-1" d="M183.37,198.7c-.45,.05-.85,.31-1.08,.69,.23-.38,.63-.64,1.08-.69Z"/><path class="cls-1" d="M177.4,195.48c.09,.08,.16,.17,.23,.26-.07-.1-.14-.19-.23-.26Z"/><path class="cls-1" d="M176.26,197.97c-.15-.02-.3-.07-.43-.13,.13,.06,.28,.11,.43,.14,.33,.04,.65-.03,.91-.19-.27,.16-.58,.24-.91,.19Z"/><path class="cls-1" d="M195.91,229.37c.32-.09,.59-.29,.78-.56-.19,.27-.46,.47-.78,.56Z"/><path class="cls-1" d="M183.34,201.53c-.14-.02-.26-.06-.39-.11,.12,.05,.25,.1,.39,.11,.78,.1,1.5-.45,1.6-1.23h0c-.1,.78-.82,1.33-1.6,1.23Z"/><path class="cls-1" d="M172.79,206.31c-.51-.27-.82-.84-.74-1.44h0c-.08,.6,.23,1.17,.74,1.44Z"/><path class="cls-1" d="M179.35,194.01c.48-.18,.85-.6,.92-1.15h0c-.07,.54-.44,.97-.92,1.15Z"/><path class="cls-1" d="M173.65,203.64c.44,.06,.81,.32,1.03,.67-.22-.35-.58-.61-1.03-.67-.21-.03-.41,0-.6,.05,.19-.06,.39-.08,.6-.05Z"/><path class="cls-1" d="M181.48,205.52c-.09-.12-.15-.26-.2-.4,.04,.15,.11,.28,.2,.4Z"/><path class="cls-1" d="M173.79,210.05h0s0,.03-.01,.05c0-.02,.01-.03,.01-.05Z"/><path class="cls-1" d="M194.59,245.29s-.02-.02-.03-.03c0,0,.02,.02,.03,.03Z"/><path class="cls-4" d="M193.9,193.51c.86,.11,1.65-.49,1.76-1.35,.12-.86-.49-1.65-1.35-1.76-.86-.11-1.65,.49-1.76,1.35-.11,.86,.49,1.65,1.35,1.76Z"/><path class="cls-4" d="M187.17,192.1c.86,.11,1.65-.49,1.76-1.35,.11-.86-.49-1.65-1.35-1.76-.86-.11-1.65,.49-1.76,1.35-.11,.86,.49,1.65,1.35,1.76Z"/><path class="cls-4" d="M181.35,189.8c.86,.11,1.65-.49,1.76-1.35,.11-.86-.49-1.65-1.35-1.76-.86-.11-1.65,.49-1.76,1.35-.11,.86,.49,1.65,1.35,1.76Z"/><path class="cls-4" d="M220.78,195.87c-.86-.11-1.65,.5-1.76,1.35-.11,.86,.49,1.65,1.35,1.76,.86,.11,1.65-.49,1.76-1.35,.11-.86-.49-1.65-1.35-1.76Z"/><path class="cls-4" d="M214.42,194.63c-.86-.11-1.65,.5-1.76,1.35-.11,.86,.49,1.65,1.35,1.76,.86,.11,1.65-.49,1.76-1.35,.11-.86-.49-1.65-1.35-1.76Z"/><path class="cls-4" d="M225.9,195.87c-.86-.11-1.65,.5-1.76,1.35-.11,.86,.49,1.65,1.35,1.76,.86,.11,1.65-.49,1.76-1.35,.11-.86-.49-1.65-1.35-1.76Z"/><path class="cls-4" d="M90.03,150.72c2.11,1.27,5.77,3.44,8.71,5.19l-6.01,8.86s-2.44,2.92,.62,5.11c2.97,2.12,5.06-1.21,5.06-1.21l5.73-9.23,7.32,7.35-1.01,2.63-19.63,40.91,3.86,.16-5.42,14.11,3.59,6.38s3.75-1.51,7.33-2.87c-5.49,16.54-9.56,57.27-6.1,57.27,3.26,0,3.38,5.04,7.15,5.04,3.57,0,3.05,5.67,6.88,5.67,3.52,0,2.49,5.33,7.14,5.33,0,0,.79-.23,.37-.94-6.73-11.22-9.92-60.45-7.77-75.25,.6-.22,3.07-1.2,3.68-1.42,.19,9.89,1.94,19.94,4.92,29.69,14.15,22.05,36.8,38.13,63.32,43.62-30.05-17.52-53.2-46.82-62-75.29,6.72-2.36,9.09-3.05,12.99-3.78,0,0,5.51,31.12,45.68,49.66l15.18,29.49-.44,1.61c2.9,.26,5.84,.4,8.81,.4,9.38,0,18.45-1.31,27.05-3.74-1.56-.87-3.13-1.71-4.7-2.5-6-6.71-7.06-15.54-7.06-20.39,3.88-.71,16.6-3.26,30.37-14.21,1.78,3.57,6.38,12.21,12.02,22.35,2.43-1.74,4.78-3.58,7.04-5.53l-10.58-24.24c1.76-1.41,4.24-5.3,4.24-5.3l-2.75-5.5c3.83,1.65,11.4,4.28,18.64,3.03,3.62-.62,6.34-1.56,8.43-2.71,7.43-.75,14.47-3.54,18.56-10.37,2.68-5.41,2.94-13.06,.97-18.27,3.36-1.37,11.42-5.45,13.96-13.92,.77-2.57,.87-5.05,.73-7.09,1.44-10.55-4.65-21.23-10.76-34.74-3.09-6.82-7.48-15.3-11.13-22.13-5.45-29.19-12.85-49.49-44.07-58.85-21.66-6.5-45.41,3.67-45.41,3.67,0,0-.02,.05-.02,.07-1.14,.56-3.92,2.17-4.43,4.85-.52,2.73,.58,8.91,8.22,10.71-4.03,1.58-5.95,2.96-5.95,2.96,0,0-.16,1.93-.27,2.53,.99,3.35,.73,7.09-.59,10.44-.05,0-.1,0-.17-.02-1.25-.24-3.1-.89-4.16-2.62-1.72-2.81,.1-7.06,.1-7.06,0,0-3.3,4.31-1.73,7.59-.73-.54-1.39-1.2-1.89-2.05-2.28-3.9,.96-9.46,.96-9.46,0,0-5.69,7.1-1.75,11.74-.62-.48-1.17-1.05-1.6-1.77-2.28-3.9,1.09-9.85,1.09-9.85,0,0-10.61,13.83,6.67,16.08h1.21c-3.14,5.16-9.17,8.55-17.35,6.31,2.39,7.54,10.02,10.6,7.75,16.29,0,0-1.14,.82-3.21,.2-2.07-.62-2.37-2.19-1.96-3.34-4.66,.26-5.48,2.83-5.14,4.4,.34,1.57,3.86,4.03,3.54,3.99-7.28-.95-3.85,6.66-3.85,6.66,0,0,2.66-2.26,3.6-1.87,10.34,6.65-4.38,13.21-4.38,13.21l.43,4.32s.4,4.24,6.73,2.24c11.69-2.02,19.86,.16,23.86,1.98-2.18,10.17-8.14,22.6-10.43,27.19-6.71,.35-13.77,.71-29.66-9.54,0,0-6.36,6.36-17.08,10.2l-.71-3.18-22.95,9.54-.58,4.63-14.89,7.24c-.74-1.19-2.76-1.7-4.25-1.7-3.97,0-6.86,5.56-7.65,7.65l-2.51,1.11,3.13-9.52,3.76,.16,11.51-44.99c2.32-2.49,4.92-6.25,5.49-12.52,.62-3.05,2.37-14.67,2.37-14.67,0,0-4.89-2.89-.82-9.39,0,0-2.26,.06-4.04,1.31l3.17-5.11c7.06,.92,19.01-8.65,29.59-23.48,12.06-16.91,16.7-34.28,10.36-38.8-6.34-4.52-21.26,5.52-33.32,22.42-10.98,15.4-14.9,31.17-10.73,37.29l-10.38,15.3-4.07-3.41-2.93,2.94,4.62,3.99-.37,.54-6.74-4.04-2.4,2.68,6.33,5.51-.41,.61-6.2-3.27-2.34,3.11,5.64,4.43-.46,.68c-3.24-1.54-8-3.8-10.24-4.91-3.57-1.76-6.16-1.61-6.16-1.6h0s1.23,2.69,5.16,5.05Zm5.92,123.38c.59,0,1.09,.51,1.1,1.13,.01,.62-.46,1.12-1.05,1.12-.59,0-1.09-.51-1.1-1.13-.01-.62,.46-1.13,1.05-1.12Zm.56,8c-.17,.31-.52,.58-.81,.2-.37-.47-1.37-2.68-1.07-3.5,.65-1.77,2.69-.99,2.89,.03,.2,1.02-.84,2.96-1.01,3.27Zm215.85-79c-2.45,3.74-7.89,6.08-10.84,7.11-.39-.75-.85-1.42-1.36-1.99,0,0,9.77-2.9,14.3-10.32-.47,1.88-1.13,3.71-2.11,5.2Zm-8.8-48.16c2.42,5.73,9.55,18.63,10.85,25.72-.25-.52-.5-1.05-.8-1.59-10.15-18.67-14.43-27.7-16.93-37.38,3.04,5.55,5.87,10.86,6.88,13.25Zm-30,86.65c-8.83,1.41-16.24-2.47-19.78-5.3-.05-.04-.09-.08-.15-.12l-.03-.06s11.62,4.39,23.8,4.57c-1.12,.36-2.39,.67-3.85,.91Zm1.02-114.3c.15-.33,.42-.57,.73-.7,.36-.16,.79-.17,1.17,.01,.36,.17,.61,.46,.74,.81,.11,.29,.11,.61,.01,.92-.02,.06-.03,.12-.06,.17-.04,.08-.08,.15-.13,.21-.19,.27-.45,.45-.75,.54-.33,.1-.69,.09-1.02-.07-.3-.14-.52-.37-.66-.64-.2-.38-.23-.84-.03-1.26Zm-.92,3.37c.64,.3,.95,1.01,.77,1.67-.02,.08-.04,.15-.08,.23-.34,.72-1.18,1.02-1.9,.69-.27-.13-.48-.32-.62-.56-.2-.33-.26-.74-.14-1.13,.02-.07,.04-.14,.07-.21,.28-.6,.92-.91,1.54-.8,.12,.02,.24,.05,.36,.11Zm-3.96-7.37s0,0,0,0h0c.1-.78,.82-1.33,1.6-1.23,.78,.1,1.34,.82,1.23,1.6,0,0,0,0,0,0h0c-.1,.78-.82,1.33-1.6,1.23-.78-.1-1.33-.82-1.23-1.6Zm-.1,10.16c.14,.07,.26,.16,.37,.26,.23,.22,.39,.5,.44,.82,.04,.27,0,.56-.12,.83-.04,.08-.08,.16-.14,.23,0,0,0,.01-.01,.02,0,.01-.02,.02-.02,.03-.4,.51-1.11,.7-1.73,.42-.09-.04-.16-.09-.24-.14-.54-.39-.75-1.13-.45-1.76,.05-.12,.13-.22,.2-.31,.17-.2,.39-.35,.64-.44,.34-.11,.71-.1,1.06,.06Zm-3.96-7.15c.01-.1,.04-.19,.07-.28,.22-.63,.85-1.04,1.54-.95,.78,.1,1.33,.82,1.23,1.6-.01,.1-.04,.19-.07,.28-.22,.63-.85,1.04-1.54,.95-.06,0-.12-.03-.18-.04-.29-.08-.53-.24-.72-.45-.25-.3-.38-.69-.33-1.1Zm-.98,8.78c.45,.21,.74,.62,.81,1.08,.04,.26,0,.54-.11,.8,0,0,0,.01,0,.02-.25,.53-.78,.84-1.34,.82,0,0,0,0-.01,0,0,0-.01,0-.02,0-.18,0-.36-.05-.53-.13-.18-.08-.33-.2-.46-.34-.37-.41-.48-1.03-.23-1.56,.32-.69,1.13-1,1.83-.72,.02,0,.05,.01,.07,.03h0Zm-3.08-6.13h0c.1-.78,.82-1.34,1.6-1.23,.78,.1,1.33,.82,1.23,1.6-.09,.66-.61,1.15-1.24,1.23-.12,.02-.24,.02-.37,0-.78-.1-1.33-.82-1.23-1.6Zm-1.7,8.56s-.05,.09-.08,.13c-.32,.53-.93,.79-1.52,.66-.1-.02-.2-.05-.3-.1-.62-.29-.94-.98-.78-1.62,.02-.09,.05-.18,.1-.27,.24-.52,.76-.82,1.3-.82,.2,0,.41,.04,.6,.13,.31,.14,.53,.38,.67,.66,.15,.29,.19,.63,.12,.96-.02,.09-.05,.18-.1,.27Zm-2.89-6.97c.01-.1,.04-.19,.07-.28,.15-.43,.49-.75,.9-.89,.2-.07,.41-.09,.63-.06,.29,.04,.55,.16,.76,.35,0,0,.02,.02,.03,.03,.07,.07,.14,.15,.2,.23,.2,.28,.29,.63,.25,1,0,.06-.03,.11-.04,.17-.11,.45-.43,.8-.85,.97-.22,.09-.46,.13-.72,.1-.57-.07-1.01-.48-1.17-.99,0-.02-.01-.03-.02-.04,0-.01,0-.02,0-.04-.04-.17-.06-.35-.03-.53Zm-4.59,.35c.09-.67,.63-1.16,1.27-1.23,.11-.01,.22-.01,.33,0,.28,.04,.52,.15,.72,.32,.01,0,.02,.02,.04,.03,0,0,0,0,0,0,.34,.3,.53,.76,.46,1.25-.04,.32-.19,.6-.4,.81-.18,.18-.41,.32-.66,.38-.17,.04-.35,.06-.54,.03-.78-.1-1.33-.82-1.23-1.6Zm-.23,5.06c.03-.06,.07-.12,.11-.18,.16-.24,.38-.42,.64-.53,.36-.15,.77-.16,1.15,.02h0s0,0,0,0c.54,.25,.84,.79,.82,1.35,0,.11-.02,.22-.05,.33-.02,.08-.04,.15-.08,.23-.25,.54-.79,.84-1.34,.83,0,0,0,0,0,0,0,0,0,0,0,0-.18,0-.37-.05-.54-.13-.36-.17-.61-.46-.74-.81-.12-.32-.11-.69,.02-1.03,0-.02,.01-.05,.02-.07Zm-81.34,82.7c.05-.34,.21-.63,.44-.85,.2-.19,.45-.32,.72-.37,.14-.03,.29-.04,.44-.02,.78,.1,1.33,.82,1.23,1.6-.03,.24-.13,.46-.26,.64-.17,.24-.41,.42-.7,.52-.2,.07-.42,.1-.65,.07-.78-.1-1.33-.82-1.23-1.6Zm2.25,6.26c-.19-.03-.37-.09-.53-.18,0,0,0,0,0,0-.04-.02-.07-.05-.1-.07-.04-.03-.08-.06-.12-.09-.34-.3-.53-.77-.47-1.26,.1-.78,.82-1.33,1.6-1.23,.38,.05,.71,.25,.93,.53,.04,.05,.07,.1,.1,.15,.02,.03,.04,.06,.06,.09,.12,.25,.18,.53,.14,.82-.01,.1-.04,.19-.07,.28-.05,.16-.14,.3-.24,.42-.01,.02-.03,.04-.04,.06,0,0-.02,.02-.03,.03-.21,.22-.48,.37-.79,.43-.14,.03-.29,.04-.44,.02Zm1.77,4.5c-.78-.1-1.33-.82-1.23-1.6,0,0,0,0,0,0h0c.05-.35,.22-.65,.46-.87,.17-.16,.38-.27,.6-.33,.17-.04,.35-.06,.54-.03,.13,.02,.24,.05,.36,.1,.56,.23,.92,.79,.88,1.41,0,.03,0,.06,0,.09-.08,.63-.56,1.1-1.15,1.21-.15,.03-.3,.04-.46,.02Zm2.29,4.33c-.78-.1-1.33-.82-1.23-1.6,0-.05,.02-.09,.03-.13,.16-.71,.84-1.2,1.57-1.1,.78,.1,1.33,.82,1.23,1.6-.01,.1-.04,.19-.07,.28-.22,.63-.85,1.04-1.54,.95Zm7.89,5.41c-.1,.78-.82,1.33-1.6,1.23-.68-.09-1.19-.65-1.24-1.31,0-.1,0-.19,0-.29,.04-.29,.16-.55,.35-.76,.16-.18,.36-.31,.59-.39,.21-.07,.43-.11,.66-.08,.39,.05,.72,.26,.95,.55s.34,.67,.28,1.06Zm-3.26-25.44h0c0-.05,.02-.1,.04-.16,.17-.7,.84-1.17,1.57-1.08,.17,.02,.33,.08,.48,.16,.51,.27,.83,.84,.75,1.45,0,.06-.03,.11-.04,.17-.18,.69-.84,1.16-1.57,1.06-.21-.03-.4-.1-.57-.21-.34-.21-.57-.55-.64-.95-.03-.15-.04-.29-.02-.45Zm2.64,6.37c-.78-.1-1.33-.82-1.23-1.6,.06-.42,.29-.77,.62-.99,.28-.19,.62-.29,.98-.24,.78,.1,1.33,.82,1.23,1.6h0c-.1,.78-.82,1.33-1.61,1.23Zm4.25,21.55h0c-.1,.78-.82,1.33-1.6,1.23-.78-.1-1.33-.82-1.23-1.6,.1-.78,.82-1.33,1.6-1.23,.2,.03,.38,.09,.54,.18,.48,.28,.77,.83,.69,1.42Zm5.44-34.78c-.05,.35-.22,.66-.47,.88-.3,.27-.7,.41-1.13,.35-.78-.1-1.33-.82-1.23-1.6,.03-.2,.09-.38,.18-.54,.23-.39,.64-.65,1.09-.7,.11-.01,.21-.01,.33,0,.5,.07,.9,.38,1.1,.81,.11,.24,.17,.51,.13,.8Zm12.22,37.57c-.06,.46-.33,.83-.7,1.05-.03,.02-.05,.04-.08,.05-.25,.12-.53,.18-.82,.14-.78-.1-1.33-.82-1.23-1.6,.08-.56,.47-1,.98-1.17,.2-.06,.41-.09,.62-.06,.59,.08,1.04,.5,1.19,1.04,.05,.18,.07,.37,.04,.57Zm4.59-1.2c-.04,.29-.16,.55-.35,.76-.11,.12-.23,.22-.37,.3-.02,.01-.04,.03-.06,.04,0,0-.02,0-.03,.01-.24,.11-.51,.16-.79,.13-.47-.06-.85-.35-1.06-.73-.14-.26-.21-.56-.17-.87,.04-.28,.15-.53,.32-.73,.2-.24,.48-.41,.8-.48,.16-.03,.32-.05,.48-.02,.28,.04,.53,.16,.73,.33,0,0,.02,.01,.03,.02,0,0,0,0,.01,.01,.33,.3,.52,.76,.46,1.24Zm.35-15.02c-.08,.63-.56,1.1-1.15,1.21-.15,.03-.3,.04-.46,.02-.78-.1-1.33-.82-1.23-1.6,.01-.1,.04-.19,.07-.28,.08-.23,.22-.43,.39-.58,.17-.15,.37-.27,.6-.33,.17-.04,.35-.06,.54-.03,.13,.02,.26,.06,.37,.11,.4,.17,.7,.51,.82,.93,.05,.18,.06,.37,.04,.57Zm1.24-22.41c-.09,.67-.63,1.16-1.27,1.23-.11,.01-.22,.01-.34,0-.78-.1-1.33-.82-1.23-1.6h0c.05-.41,.28-.75,.59-.98,.15-.11,.31-.18,.49-.23,.17-.04,.34-.05,.52-.03,.78,.1,1.33,.82,1.23,1.6Zm-.89-4.44c.06-.42,.29-.77,.62-.99,.28-.19,.62-.28,.98-.24,.78,.1,1.33,.82,1.23,1.6,0,0,0,0,0,0h0c0,.05-.02,.1-.04,.16-.09,.35-.3,.64-.58,.83-.28,.19-.62,.28-.99,.24-.78-.1-1.33-.82-1.23-1.6Zm3.19,39.92c-.08,.59-.51,1.05-1.05,1.19-.17,.05-.36,.06-.55,.04-.78-.1-1.33-.82-1.23-1.6,.09-.67,.63-1.17,1.27-1.23,.11-.01,.22-.01,.34,0,.14,.02,.27,.06,.39,.12,.48,.21,.82,.67,.85,1.2,0,.09,0,.19,0,.29Zm.53-15.19h0c-.08,.57-.48,1.01-.99,1.17-.19,.06-.4,.09-.62,.06-.2-.03-.39-.1-.56-.2-.47-.29-.75-.83-.67-1.4,.03-.26,.14-.5,.3-.69,.16-.21,.38-.36,.62-.46,.21-.08,.44-.12,.68-.08,.76,.1,1.3,.79,1.23,1.54,0,.02,0,.04,0,.06Zm-.01-3.9h0c0-.05,.02-.1,.04-.16,.08-.32,.25-.59,.5-.78,.29-.23,.67-.35,1.07-.3,.78,.1,1.33,.82,1.23,1.6,0,0,0,0,0,0h0c-.11,.78-.82,1.33-1.61,1.23-.78-.1-1.33-.82-1.23-1.6Zm4.43-15.36c.78,.1,1.33,.82,1.23,1.6-.01,.1-.04,.19-.07,.28-.22,.63-.85,1.04-1.54,.95-.18-.02-.35-.08-.51-.17-.48-.27-.78-.81-.72-1.39,0-.02,0-.03,0-.05h0c.1-.78,.82-1.34,1.6-1.23Zm-1.43-3.71c.01-.1,.04-.19,.07-.28,.02-.06,.05-.12,.08-.17,.01-.03,.02-.06,.04-.08,.03-.05,.07-.09,.1-.14,.02-.03,.04-.06,.06-.08,0,0,0,0,.01-.01,.21-.23,.49-.38,.8-.44,.14-.03,.29-.04,.44-.02,.27,.04,.5,.15,.7,.3,.02,.02,.04,.03,.06,.04,.34,.3,.53,.77,.47,1.26-.09,.66-.61,1.15-1.24,1.23-.12,.02-.24,.02-.37,0-.78-.1-1.33-.82-1.23-1.6Zm.62,8.32c.14-.02,.27-.03,.42-.01,.78,.1,1.34,.82,1.23,1.6,0,0,0,0,0,0h0c-.05,.35-.22,.64-.45,.86-.17,.16-.38,.28-.61,.34-.17,.04-.36,.06-.54,.03-.18-.02-.34-.08-.49-.16-.1-.05-.19-.11-.27-.18-.11-.1-.2-.21-.27-.34-.02-.03-.04-.06-.06-.09-.02-.05-.04-.1-.06-.15-.01-.03-.03-.07-.04-.1-.05-.18-.07-.37-.04-.57,.09-.64,.58-1.12,1.19-1.22Zm-.26,4.9c.78,.1,1.34,.82,1.23,1.6-.01,.1-.04,.19-.07,.28-.22,.63-.85,1.04-1.54,.95-.78-.1-1.33-.82-1.23-1.6h0c.1-.78,.82-1.34,1.6-1.23Zm0,22.07c0,.07,0,.15,0,.23,0,0,0,0,0,0h0c-.06,.46-.33,.83-.7,1.04-.26,.15-.58,.23-.9,.19-.59-.08-1.04-.5-1.19-1.04-.05-.18-.06-.37-.04-.57,.04-.28,.15-.52,.32-.72,.15-.18,.33-.31,.54-.4,.23-.1,.48-.14,.74-.11,.47,.06,.85,.34,1.06,.73,.01,.02,.02,.04,.03,.05,.01,.03,.02,.06,.03,.09,.06,.14,.1,.29,.11,.45,0,.02,0,.04,0,.06Zm2.99-3.13c-.09,.65-.6,1.14-1.22,1.22-.12,.02-.25,.02-.38,0-.78-.1-1.33-.82-1.23-1.6,.01-.08,.03-.16,.06-.24,0-.01,0-.03,.01-.04,.02-.05,.04-.09,.06-.14,.02-.04,.03-.08,.05-.12,.28-.48,.83-.77,1.42-.7,.74,.1,1.27,.74,1.24,1.47,0,.04,0,.09,0,.13Zm2.47-3.6s0,0,0,0h0c-.07,.55-.45,.98-.94,1.16-.21,.07-.43,.11-.67,.08-.18-.02-.34-.08-.49-.16-.51-.27-.82-.84-.74-1.44,.01-.1,.04-.19,.07-.28,.14-.41,.46-.72,.85-.86,.21-.08,.44-.12,.68-.08,.18,.02,.36,.09,.51,.17,.5,.28,.8,.83,.72,1.43Zm1.55-4.17s0,0,0,0h0s-.01,.06-.02,.08c-.14,.74-.83,1.25-1.58,1.15-.17-.02-.33-.08-.48-.16-.51-.27-.83-.84-.75-1.45,.01-.1,.04-.19,.07-.28,.03-.07,.06-.14,.1-.21,0-.01,.01-.03,.02-.04,.03-.05,.07-.09,.1-.14,.02-.03,.04-.06,.06-.08,0,0,.02-.02,.03-.02,.19-.2,.42-.34,.69-.41,.17-.04,.35-.06,.54-.04,.78,.1,1.33,.82,1.23,1.6Zm1.06-4.59h0c0,.05-.02,.1-.04,.16-.01,.05-.02,.1-.04,.15-.22,.62-.85,1.02-1.53,.93-.78-.1-1.33-.82-1.23-1.6,0-.03,.02-.06,.02-.09,.15-.73,.83-1.24,1.58-1.14,.78,.1,1.34,.82,1.23,1.6Zm.21-19.42c-.09,.66-.61,1.15-1.24,1.23-.12,.02-.24,.02-.37,0-.78-.1-1.33-.82-1.23-1.6h0c.07-.49,.37-.89,.78-1.09,.11-.06,.24-.09,.36-.12,.15-.03,.3-.04,.46-.02,.78,.1,1.34,.82,1.23,1.6Zm.14,4.94c-.01,.1-.04,.19-.07,.28-.22,.63-.85,1.04-1.54,.95-.18-.02-.35-.08-.5-.17-.47-.26-.76-.77-.73-1.33,0-.04,0-.07,0-.1,0,0,0-.01,0-.02,.11-.77,.82-1.32,1.6-1.21,.78,.1,1.33,.82,1.23,1.6Zm.21,9.85h0c-.1,.78-.82,1.34-1.6,1.23-.29-.04-.54-.16-.75-.34-.34-.29-.53-.73-.48-1.21,0-.02,0-.04,0-.06h0c.1-.78,.82-1.33,1.6-1.23,.78,.1,1.33,.82,1.23,1.6Zm0-4.94h0c-.1,.79-.82,1.33-1.6,1.23-.35-.05-.65-.22-.86-.46-.25-.28-.4-.65-.37-1.06,0-.03,0-.06,0-.09,.04-.29,.16-.55,.35-.76,.3-.34,.77-.53,1.26-.47,.78,.1,1.33,.82,1.23,1.6Zm5.24-25.98c-.05-.71-.13-1.37-.22-1.99,3.43,7.81,2.02,14.74,2.02,14.74,0,0-1.23,.08-3.18,.12,.58-2.91,1.67-9.01,1.39-12.86Zm-5.08-26.11c.13,.03,.24,.08,.36,.13,.33,.18,.58,.49,.69,.86,.06,.21,.08,.44,.04,.67h0c-.13,.78-.84,1.29-1.57,1.14-.73-.15-1.22-.89-1.09-1.67h0s.01-.05,.02-.08c.08-.34,.26-.63,.52-.82,.29-.22,.66-.32,1.03-.24Zm-3.09-6.37c.13-.04,.27,0,.42,.09,.45,.24,.95,.93,1.28,1.63,.13,.28,.24,.55,.3,.8,.18,.69,.12,1.35-.12,1.8-.01,.02-.03,.04-.04,.06-.14,.23-.33,.4-.56,.47-.25,.07-.52,0-.77-.15,0,0,0,0,0,0-.05-.03-.1-.08-.15-.12-.03-.03-.07-.05-.1-.08-.01-.01-.02-.03-.04-.04-.3-.3-.55-.74-.69-1.26-.24-.95-.22-2.5,.23-3.03,.07-.08,.15-.15,.25-.18Zm-3.27-10.51c.18-.22,.41-.41,.66-.53,0,0,0,0,.01,0,0,0,.02,0,.03,0,.4-.17,.83-.11,1.12,.45,.07,.13,.14,.32,.22,.54,.62,1.74,1.49,5.93,.61,7.38-2.12,3.52-5.79,.85-6.15-1.26h0s0,0,0,0c0-.02,0-.04,0-.06-.29-2.13,3.02-5.92,3.51-6.51Zm-2.08,12.05c.11-.14,.21-.25,.25-.3,.04-.05,.09-.1,.15-.15,.29-.25,.68-.36,.91,.1,.16,.32,.41,1.18,.56,2.09,0,.04,.01,.07,.02,.11,0,.04,0,.07,.01,.11,.1,.67,.14,1.36,.04,1.85-.03,.17-.09,.32-.16,.44-.31,.51-.67,.8-1.05,.92-.1,.03-.19,.05-.29,.06-.16,.02-.32,0-.48-.02-.04,0-.08-.01-.12-.02-.6-.16-1.13-.61-1.42-1.11-.02-.03-.04-.06-.05-.09,0-.02-.01-.03-.02-.05-.07-.14-.12-.28-.14-.42-.18-1.04,1.18-2.78,1.78-3.51Zm-1.78,8.09c.13-.77,.84-1.29,1.57-1.14,.74,.15,1.22,.89,1.09,1.67-.07,.4-.29,.72-.58,.93-.28,.2-.63,.28-.99,.21-.1-.02-.19-.05-.28-.09-.57-.26-.92-.91-.8-1.58Zm-1.49-7.91c-.06,.12-.12,.23-.18,.33-.6,.94-1.56,1.37-2.15,.95-.51-.37-.57-1.26-.18-2.1,.06-.12,.12-.24,.2-.36,.42-.67,1.28-1.44,1.95-1.69,.28-.1,.53-.13,.7,0,.1,.07,.15,.19,.2,.32,.19,.6-.12,1.75-.53,2.56Zm-13.07-70.16c-.35-3.07,1.14-4.33,2.2-5.07-.71,4.12-.47,11.62,11,10.9-1.24,.32-2.35,.65-3.39,.99-1.96-.21-8.75-1.35-9.81-6.81Zm8.41,75.15c-.13-.03-.25-.08-.37-.14-.35-.19-.61-.53-.7-.93-.04-.19-.05-.39-.02-.6h0c.09-.54,.46-.94,.92-1.09,.2-.07,.42-.09,.65-.05,.37,.07,.68,.3,.87,.61,.19,.3,.28,.68,.22,1.06,0,0,0,0,0,0h0c-.03,.19-.1,.37-.2,.52,0,0,0,0,0,0-.08,.12-.17,.23-.28,.32-.17,.14-.37,.25-.59,.29-.16,.03-.33,.04-.51,0Zm3.66,7.62c2.67,1.15,4.97,2.43,6.98,3.79,1.09,1.41,5.76,7.65,5.86,11.7,.12,4.59-7.95,6.56-8.38,3.75-.43-2.81,1.31-3.92,1.31-3.92,0,0-1.77-.31-3.15,1.14-1.38,1.45-1.93,7.12,1.95,7.01,3.88-.1,11.21-3.47,10.34-9.81-.14-.99-.38-1.92-.67-2.82,1.03,1.94,2.11,4.91,1.99,8.83-.14,4.43-1.94,9.03-2.97,11.33-5.97-.12-14.73-.89-19.96-4.17,.53-8.12,6.71-26.84,6.71-26.84Zm-7.41,40.09h0c0-.05,.02-.1,.04-.16,.08-.32,.25-.59,.5-.78,.29-.23,.67-.35,1.07-.3,.12,.02,.22,.05,.33,.09,.51,.2,.87,.68,.91,1.23,0,.09,0,.19,0,.29-.08,.63-.56,1.1-1.15,1.21-.15,.03-.29,.04-.45,.02-.78-.1-1.34-.82-1.23-1.6Zm-.7,20.32c-.11,.78-.82,1.33-1.61,1.23-.78-.1-1.33-.82-1.23-1.6h0c.1-.78,.82-1.33,1.61-1.23,.49,.06,.89,.37,1.09,.78,.12,.25,.18,.53,.14,.82Zm-3.36-18.03s0,0,0,0h0c.05-.36,.23-.67,.49-.89,.17-.15,.37-.25,.6-.31,.17-.04,.34-.05,.52-.03,.29,.04,.55,.16,.76,.35,0,0,.02,.02,.03,.03,.12,.12,.23,.25,.31,.41,0,.02,.01,.03,.02,.05,.11,.23,.15,.5,.12,.77h0c-.1,.79-.82,1.33-1.6,1.23-.78-.1-1.33-.82-1.23-1.6Zm-1.58,33.39s0,0,0,0h0c0,.06-.03,.12-.04,.18,0,.03-.01,.07-.02,.1-.1,.29-.29,.52-.52,.69-.17,.12-.36,.2-.56,.24-.15,.03-.3,.04-.45,.02-.17-.02-.32-.08-.47-.15-.21-.11-.38-.26-.51-.45-.2-.28-.3-.63-.25-1,.09-.67,.63-1.16,1.27-1.23,.11-.01,.22-.01,.33,0,.78,.1,1.33,.82,1.23,1.6Zm-.35-15.01c-.06,.44-.31,.8-.66,1.02-.27,.17-.6,.26-.95,.21-.78-.1-1.33-.82-1.23-1.6h0c.1-.78,.82-1.34,1.6-1.23,.29,.04,.54,.16,.75,.34,.32,.28,.51,.71,.48,1.16,0,.04,0,.07,0,.11Zm-3.01-17.71c.04-.29,.16-.55,.35-.76,.15-.17,.33-.29,.54-.37,.22-.09,.46-.13,.72-.1,.29,.04,.55,.16,.76,.35,0,0,.02,.02,.03,.03,.07,.07,.14,.15,.2,.23,.2,.28,.29,.63,.25,1h0c-.07,.53-.42,.95-.88,1.13-.22,.09-.47,.13-.72,.1-.17-.02-.33-.08-.48-.16-.51-.27-.83-.84-.75-1.45Zm-4.24-2.1c.08-.63,.56-1.1,1.15-1.21,.15-.03,.3-.04,.45-.02,.16,.02,.31,.07,.45,.14,.45,.22,.75,.66,.79,1.17,0,.09,0,.19,0,.29-.09,.64-.59,1.13-1.2,1.22-.13,.02-.27,.03-.4,.01-.78-.1-1.33-.82-1.23-1.6Zm0,17.66s0,0,0,0h0c.05-.41,.28-.76,.6-.98,.14-.1,.3-.17,.46-.22,.17-.04,.35-.06,.54-.03,.14,.02,.27,.06,.39,.12,.48,.21,.81,.67,.85,1.2,0,.09,0,.19,0,.29-.03,.24-.13,.45-.26,.63-.19,.27-.46,.47-.78,.56,0,0-.01,0-.02,0-.17,.05-.36,.06-.55,.04-.78-.1-1.33-.82-1.23-1.6Zm0,16.23h0c.08-.57,.48-1.02,1-1.18,.19-.06,.39-.08,.6-.05,.68,.09,1.19,.65,1.24,1.31,0,.09,0,.19,0,.29-.06,.46-.33,.83-.7,1.05-.03,.02-.05,.04-.08,.05-.25,.12-.53,.18-.82,.14-.29-.04-.55-.16-.76-.35,0,0-.02-.02-.03-.03-.12-.12-.23-.25-.31-.41-.12-.25-.18-.53-.14-.82Zm-2.86-46.4c.05-.39,.26-.72,.55-.95,.29-.22,.67-.33,1.06-.28,.35,.05,.64,.22,.86,.45,.28,.3,.43,.71,.37,1.15-.1,.78-.82,1.33-1.6,1.23-.5-.07-.91-.39-1.11-.82-.11-.24-.16-.51-.12-.78Zm-1.03,4.41c.09-.67,.62-1.16,1.26-1.23,.11-.01,.23-.02,.35,0,.78,.1,1.33,.82,1.23,1.6h0c-.04,.27-.15,.51-.31,.71-.01,.02-.02,.03-.04,.05,0,0-.02,.02-.03,.02-.18,.2-.42,.34-.68,.41-.17,.05-.36,.06-.55,.04-.78-.1-1.33-.82-1.23-1.6Zm-.53,23.66c.04-.28,.15-.52,.32-.72,.16-.19,.37-.34,.6-.43,.21-.08,.44-.12,.68-.08,.49,.06,.89,.37,1.09,.78,.12,.25,.18,.53,.14,.82-.01,.1-.04,.19-.07,.28-.14,.42-.47,.73-.87,.87-.21,.07-.43,.11-.67,.08-.2-.03-.38-.09-.54-.18-.48-.28-.77-.83-.69-1.42Zm0,17.3c.05-.41,.28-.76,.6-.98,.28-.2,.64-.3,1.01-.25,.78,.1,1.33,.82,1.23,1.6-.01,.1-.04,.19-.07,.28-.22,.63-.85,1.04-1.54,.95-.78-.1-1.33-.82-1.23-1.6Zm-2.14-21.89c.19,.03,.37,.09,.53,.18,0,0,0,0,0,0,.48,.28,.77,.83,.69,1.42h0c-.1,.78-.82,1.33-1.6,1.23-.17-.02-.32-.08-.47-.15-.52-.27-.84-.84-.76-1.45,.04-.29,.16-.55,.35-.76,.22-.25,.53-.42,.88-.46,.12-.02,.25-.02,.38,0Zm-3.51-25.26c.1-.78,.82-1.33,1.6-1.23,.17,.02,.33,.08,.48,.16,.51,.27,.83,.84,.75,1.45,0,0,0,.02,0,.03-.07,.49-.38,.88-.8,1.08-.24,.11-.51,.16-.8,.13-.29-.04-.55-.16-.76-.35-.12-.11-.22-.24-.3-.38-.01-.02-.03-.04-.04-.06-.12-.25-.18-.53-.14-.82Zm-1.94,4.06c.03-.2,.09-.38,.18-.54,.23-.38,.63-.64,1.08-.69,.11-.01,.23-.02,.34,0,.78,.1,1.33,.82,1.23,1.6h0c-.1,.78-.82,1.33-1.6,1.23-.14-.02-.26-.06-.39-.11-.57-.25-.93-.84-.85-1.49Zm-.88,4.59c.04-.28,.16-.54,.33-.74,.3-.36,.77-.56,1.27-.49,.14,.02,.27,.06,.39,.12,.48,.21,.82,.67,.85,1.2,0,.09,0,.19,0,.29-.08,.63-.56,1.1-1.15,1.21-.15,.03-.3,.04-.46,.02-.23-.03-.44-.12-.62-.24-.14-.1-.27-.22-.37-.36-.09-.12-.15-.26-.2-.4,0,0,0-.02-.01-.03-.05-.18-.06-.37-.04-.57Zm-.18,4.77h0c0-.05,.02-.1,.04-.16,.09-.35,.29-.64,.57-.83,.28-.2,.63-.29,1-.25,.27,.04,.5,.15,.7,.3,.02,.02,.04,.03,.06,.04,.13,.11,.23,.25,.31,.4,0,.01,.02,.02,.02,.04,.02,.05,.04,.1,.06,.15,.01,.03,.03,.07,.04,.1,.02,.08,.04,.17,.04,.26,0,0,0,.01,0,.02,0,.09,0,.19,0,.29-.08,.62-.56,1.1-1.15,1.21-.15,.03-.3,.04-.46,.02-.39-.05-.72-.26-.95-.55-.21-.28-.32-.64-.28-1.01,0-.02,0-.03,0-.05Zm.5,26.75h0c0,.06-.03,.12-.04,.18,0,.03-.01,.07-.02,.1-.06,.17-.15,.32-.26,.45,0,.01-.01,.02-.02,.03,0,0,0,0,0,0-.3,.34-.77,.53-1.25,.46-.19-.02-.36-.09-.51-.17-.49-.28-.79-.83-.72-1.43,0,0,0,0,0,0h0c.1-.78,.82-1.33,1.6-1.23,.78,.1,1.33,.82,1.23,1.6Zm-4.12-43.54c.07-.54,.44-.97,.92-1.15,.21-.08,.44-.12,.68-.08,.29,.04,.55,.16,.76,.35,.34,.3,.53,.77,.47,1.26h0c-.07,.54-.44,.97-.92,1.15-.21,.08-.44,.12-.69,.08-.78-.1-1.33-.82-1.23-1.6Zm-2.4,3.87s0-.01,0-.02c.11-.77,.82-1.31,1.6-1.21,.29,.04,.55,.17,.76,.35,.09,.08,.16,.17,.23,.26,.19,.28,.29,.63,.24,.99-.06,.45-.33,.82-.69,1.04-.27,.16-.58,.24-.91,.19-.15-.02-.3-.07-.43-.14-.29-.14-.52-.36-.66-.64-.12-.25-.18-.53-.14-.82Zm-1.75,4.1c.01-.1,.04-.19,.07-.28,.15-.43,.49-.75,.91-.89,.2-.06,.41-.09,.62-.06,.18,.02,.35,.08,.51,.17,.5,.28,.8,.83,.72,1.43h0c0,.06-.03,.12-.04,.18,0,.03-.01,.07-.02,.1-.15,.44-.5,.76-.93,.9-.19,.06-.39,.08-.6,.05-.59-.08-1.04-.5-1.19-1.04-.05-.18-.06-.37-.04-.57Zm-1.24,4.41h0c.08-.57,.48-1.02,1-1.18,.19-.06,.39-.08,.6-.05,.44,.06,.81,.32,1.03,.67,.17,.27,.25,.59,.2,.93-.04,.28-.15,.53-.32,.73-.15,.18-.35,.32-.58,.41-.22,.08-.45,.12-.7,.09-.18-.02-.34-.08-.49-.16-.51-.27-.82-.84-.74-1.44Zm-1.1,4.8c.01-.1,.04-.19,.07-.28,.22-.63,.85-1.04,1.54-.95,.78,.1,1.33,.82,1.23,1.6,0,0,0,0,0,0h0s0,.04-.01,.05c-.07,.41-.31,.75-.64,.96-.27,.17-.6,.26-.95,.22-.78-.1-1.33-.82-1.23-1.6Zm-.42,4.34c.1-.78,.82-1.33,1.6-1.23,.17,.02,.33,.08,.47,.15,.52,.27,.84,.84,.76,1.45-.08,.62-.56,1.1-1.15,1.21-.15,.03-.3,.04-.46,.02-.18-.02-.35-.08-.5-.17-.48-.26-.78-.79-.74-1.37,0-.02,0-.05,0-.07Zm-60.42,74.98c.36,.98-.36,3.05-.48,3.39-.12,.33-.42,.65-.77,.32-.44-.41-1.77-2.43-1.6-3.29,.36-1.85,2.5-1.4,2.85-.42Zm-2.28-4.43c.58-.09,1.15,.33,1.26,.95,.11,.61-.27,1.18-.86,1.27-.59,.09-1.15-.33-1.26-.94-.11-.61,.27-1.18,.86-1.27Zm-5.99-4.93c.59-.04,1.12,.43,1.17,1.05,.06,.62-.38,1.15-.97,1.19-.59,.04-1.12-.43-1.18-1.05-.06-.62,.38-1.15,.97-1.19Zm-.99,4.78c.52-1.81,2.61-1.18,2.88-.17,.27,1.01-.63,3.01-.77,3.33-.15,.32-.48,.61-.79,.26-.4-.45-1.55-2.57-1.31-3.42Zm7.47-101.6c-.05,.34-.21,.64-.45,.85-.3,.28-.72,.43-1.16,.38-.2-.03-.38-.09-.54-.18-.33-.19-.57-.51-.66-.89-.04-.17-.06-.35-.03-.53h0c.08-.57,.48-1.02,1-1.18,.19-.06,.4-.08,.61-.05,.17,.02,.33,.08,.48,.16,.51,.27,.83,.84,.75,1.45Zm11.57-48.76c-.68,4.09,1.9,6.76,1.9,6.76l-1.91,5.34-4.94-4.14,4.95-7.97Zm-7.15,49.7c0,.09,0,.19,0,.29-.06,.42-.29,.77-.62,.99-.28,.19-.63,.29-.99,.24-.78-.1-1.33-.82-1.23-1.6,0,0,0,0,0,0h0s.02-.09,.03-.13c.14-.6,.64-1.04,1.24-1.1,.11-.01,.22-.01,.34,0,.1,.01,.19,.04,.28,.07,.54,.19,.92,.68,.96,1.25Z"/><path class="cls-3" d="M226.45,161.49c-.25,.19-.44,.48-.52,.82,0,.03-.02,.05-.02,.08-.13,.78,.36,1.52,1.09,1.67,.73,.15,1.44-.36,1.57-1.14,.04-.23,.02-.46-.04-.67-.11-.37-.35-.68-.69-.86-.11-.06-.23-.11-.36-.13-.38-.07-.74,.02-1.03,.24Z"/><path class="cls-3" d="M218.67,216.32c-.78-.1-1.5,.45-1.6,1.23-.1,.78,.45,1.5,1.23,1.6,.69,.09,1.32-.32,1.54-.95,.03-.09,.05-.18,.07-.28,.1-.78-.45-1.5-1.23-1.6Z"/><path class="cls-3" d="M174.83,229.41c.16,.02,.31,0,.46-.02,.59-.11,1.06-.58,1.15-1.21,0-.03,0-.06,0-.09,.04-.62-.32-1.18-.88-1.41-.11-.05-.23-.08-.36-.1-.19-.02-.37,0-.54,.03-.23,.06-.43,.17-.6,.33-.24,.22-.41,.52-.46,.87-.1,.78,.45,1.5,1.23,1.6Z"/><path class="cls-3" d="M187.19,221.13c-.34,.05-.65,.21-.88,.46-.18,.21-.31,.47-.35,.76-.08,.61,.24,1.18,.76,1.45,.14,.07,.3,.13,.47,.15,.78,.1,1.5-.45,1.6-1.23,.08-.59-.21-1.14-.69-1.42,0,0,0,0,0,0-.16-.09-.34-.16-.53-.18-.13-.02-.26-.01-.38,0Z"/><path class="cls-3" d="M172.79,206.31c.15,.08,.31,.14,.49,.16,.25,.03,.48,0,.7-.09,.23-.09,.42-.23,.58-.41,.17-.2,.29-.45,.32-.73,.04-.34-.04-.66-.2-.93-.22-.35-.58-.61-1.03-.67-.21-.03-.41,0-.6,.05-.52,.16-.92,.6-1,1.18-.08,.6,.23,1.17,.74,1.44Z"/><path class="cls-3" d="M181.33,210.34c.22,.29,.56,.5,.95,.55,.16,.02,.31,0,.46-.02,.59-.11,1.06-.58,1.15-1.21,.01-.1,.02-.19,0-.29,0,0,0-.01,0-.02,0-.09-.02-.18-.04-.26,0-.04-.03-.07-.04-.1-.02-.05-.03-.11-.06-.15,0-.01-.02-.02-.02-.04-.08-.15-.18-.29-.31-.4-.02-.02-.04-.03-.06-.04-.2-.16-.43-.27-.7-.3-.37-.05-.72,.05-1,.25-.28,.19-.48,.48-.57,.83-.01,.05-.03,.1-.04,.16,0,.02,0,.03,0,.05-.04,.37,.07,.73,.28,1.01Z"/><path class="cls-3" d="M226.09,211.73c-.49-.06-.95,.13-1.26,.47-.18,.21-.31,.47-.35,.76,0,.03,0,.06,0,.09-.03,.4,.11,.78,.37,1.06,.22,.24,.52,.41,.86,.46,.78,.1,1.5-.45,1.6-1.23,.1-.78-.45-1.5-1.23-1.6Z"/><path class="cls-3" d="M171.26,215.46c.15,.08,.32,.14,.5,.17,.16,.02,.31,0,.46-.02,.59-.11,1.06-.59,1.15-1.21,.08-.61-.24-1.18-.76-1.45-.14-.07-.3-.13-.47-.15-.78-.1-1.5,.45-1.6,1.23,0,.02,0,.05,0,.07-.05,.57,.25,1.1,.74,1.37Z"/><path class="cls-3" d="M219.73,206.82c-.78-.1-1.5,.45-1.6,1.23,0,.02,0,.03,0,.05-.06,.58,.24,1.12,.72,1.39,.15,.08,.32,.15,.51,.17,.69,.09,1.32-.32,1.54-.95,.03-.09,.05-.18,.07-.28,.1-.78-.45-1.5-1.23-1.6Z"/><path class="cls-3" d="M170.81,218.64c-.1,.78,.45,1.5,1.23,1.6,.23,.03,.45,0,.65-.07,.28-.1,.52-.28,.7-.52,.13-.19,.23-.4,.26-.64,.1-.78-.45-1.5-1.23-1.6-.15-.02-.3,0-.44,.02-.27,.05-.52,.18-.72,.37-.23,.22-.4,.51-.44,.85Z"/><path class="cls-3" d="M226.97,203.48c.1-.78-.45-1.5-1.23-1.6-.16-.02-.31,0-.46,.02-.13,.02-.25,.06-.36,.12-.41,.21-.71,.6-.78,1.09-.1,.78,.45,1.5,1.23,1.6,.12,.02,.25,.01,.37,0,.63-.08,1.15-.57,1.24-1.23Z"/><path class="cls-3" d="M173.51,224.89c.31-.06,.58-.21,.79-.43,0,0,.02-.02,.03-.03,.02-.02,.03-.04,.04-.06,.1-.13,.18-.27,.24-.42,.03-.09,.05-.18,.07-.28,.04-.29-.01-.58-.14-.82-.02-.03-.04-.06-.06-.09-.03-.05-.06-.11-.1-.15-.22-.28-.55-.48-.93-.53-.78-.1-1.5,.45-1.6,1.23-.06,.49,.13,.95,.47,1.26,.04,.03,.08,.06,.12,.09,.03,.02,.07,.05,.1,.07,0,0,0,0,0,0,.16,.09,.34,.16,.53,.18,.15,.02,.3,0,.44-.02Z"/><path class="cls-3" d="M224.47,225.89c-.19-.02-.37,0-.54,.03-.27,.07-.5,.21-.69,.41,0,0-.02,.01-.03,.02-.02,.03-.04,.06-.06,.08-.04,.05-.07,.09-.1,.14,0,.01-.01,.03-.02,.04-.04,.07-.07,.14-.1,.21-.03,.09-.05,.18-.07,.28-.08,.61,.24,1.18,.75,1.45,.15,.08,.3,.13,.48,.16,.75,.1,1.44-.41,1.58-1.15,0-.03,.02-.05,.02-.08,.1-.78-.45-1.5-1.23-1.6Z"/><path class="cls-3" d="M220.44,233.66c-.59-.08-1.14,.21-1.42,.69-.02,.04-.04,.08-.05,.12-.02,.05-.05,.09-.06,.14,0,.01,0,.03-.01,.04-.02,.08-.05,.16-.06,.24-.1,.78,.45,1.5,1.23,1.6,.13,.02,.26,.01,.38,0,.62-.09,1.14-.57,1.22-1.22,0-.04,0-.09,0-.13,.03-.73-.5-1.38-1.24-1.47Z"/><path class="cls-3" d="M225.52,221.3c-.75-.1-1.43,.41-1.58,1.14,0,.03-.02,.06-.02,.09-.1,.78,.45,1.5,1.23,1.6,.68,.09,1.31-.31,1.53-.93,.02-.05,.03-.1,.04-.15,.01-.05,.03-.1,.04-.15,.1-.78-.45-1.5-1.23-1.6Z"/><path class="cls-3" d="M182.42,215.1c.17,.1,.36,.18,.57,.21,.73,.1,1.39-.37,1.56-1.06,.01-.05,.03-.11,.04-.17,.08-.61-.24-1.18-.75-1.45-.15-.08-.31-.13-.48-.16-.73-.1-1.39,.38-1.57,1.08-.01,.05-.03,.1-.04,.16-.02,.15,0,.3,.02,.45,.07,.39,.31,.74,.64,.95Z"/><path class="cls-3" d="M172.18,211.28c.35,.05,.68-.04,.95-.22,.33-.21,.57-.55,.64-.96,0-.02,.01-.03,.01-.05,.1-.78-.45-1.5-1.23-1.6-.68-.09-1.32,.32-1.54,.95-.03,.09-.05,.18-.07,.28-.1,.78,.45,1.5,1.23,1.6Z"/><path class="cls-3" d="M184.05,195.86c-.04,.29,.02,.58,.14,.83,.01,.02,.03,.04,.04,.06,.08,.14,.18,.27,.3,.38,.21,.18,.47,.31,.76,.34,.28,.04,.56-.01,.8-.13,.42-.2,.73-.59,.8-1.08,0,0,0-.02,0-.03,.08-.61-.24-1.17-.75-1.45-.15-.08-.3-.13-.48-.16-.78-.1-1.5,.45-1.6,1.23Z"/><path class="cls-3" d="M219.54,204.71c.13,.02,.25,.01,.37,0,.63-.08,1.15-.57,1.24-1.23,.07-.49-.13-.95-.47-1.26-.02-.02-.04-.03-.06-.04-.2-.16-.43-.27-.7-.3-.15-.02-.3,0-.44,.02-.31,.06-.59,.21-.8,.44,0,0,0,0-.01,.01-.02,.03-.04,.06-.06,.08-.04,.05-.07,.09-.1,.14-.02,.03-.02,.06-.04,.08-.03,.06-.06,.11-.08,.17-.03,.09-.05,.18-.07,.28-.1,.78,.45,1.5,1.23,1.6Z"/><path class="cls-3" d="M182.96,201.42c.12,.05,.25,.1,.39,.11,.78,.1,1.5-.45,1.6-1.23,.1-.78-.45-1.5-1.23-1.6-.12-.02-.23-.01-.34,0-.45,.05-.85,.31-1.08,.69-.09,.16-.16,.34-.18,.54-.08,.65,.28,1.24,.84,1.49Z"/><path class="cls-3" d="M223.42,230.23c-.15-.09-.32-.15-.51-.17-.24-.03-.47,0-.68,.08-.39,.15-.71,.46-.85,.86-.03,.09-.05,.18-.07,.28-.08,.6,.23,1.17,.74,1.44,.15,.08,.31,.14,.49,.16,.23,.03,.46,0,.67-.08,.49-.17,.87-.6,.94-1.16,.08-.6-.23-1.15-.72-1.43Z"/><path class="cls-3" d="M226.09,216.67c-.78-.1-1.5,.45-1.6,1.23,0,.02,0,.04,0,.06-.04,.47,.15,.91,.48,1.21,.2,.18,.46,.3,.75,.34,.78,.1,1.5-.45,1.6-1.23,.1-.78-.45-1.5-1.23-1.6Z"/><path class="cls-3" d="M173.32,201.02c.15,.54,.6,.96,1.19,1.04,.21,.03,.41,0,.6-.05,.43-.13,.78-.46,.93-.9,.01-.03,.01-.07,.02-.1,.02-.06,.03-.12,.04-.18,.08-.6-.23-1.16-.72-1.43-.15-.09-.32-.15-.51-.17-.22-.03-.43,0-.62,.06-.42,.14-.76,.46-.91,.89-.03,.09-.05,.18-.07,.28-.03,.2-.01,.39,.04,.57Z"/><path class="cls-3" d="M252.38,130.89c-.1,.78,.45,1.5,1.23,1.6,.19,.02,.37,0,.54-.03,.25-.06,.48-.2,.66-.38,.21-.21,.36-.49,.4-.81,.06-.49-.12-.95-.46-1.25,0,0,0,0,0,0-.01,0-.02-.02-.04-.03-.2-.17-.45-.28-.72-.32-.11-.02-.22-.01-.33,0-.64,.07-1.18,.56-1.27,1.23Z"/><path class="cls-3" d="M225.88,206.82c-.77-.1-1.48,.44-1.6,1.21,0,0,0,.01,0,.02,0,.04,0,.07,0,.1-.03,.56,.26,1.07,.73,1.33,.15,.08,.32,.14,.5,.17,.69,.09,1.32-.32,1.54-.95,.03-.09,.05-.18,.07-.28,.1-.78-.45-1.5-1.23-1.6Z"/><path class="cls-3" d="M187.96,240.2c-.16-.09-.34-.16-.54-.18-.78-.1-1.5,.45-1.6,1.23-.1,.78,.45,1.5,1.23,1.6,.78,.1,1.5-.45,1.6-1.23,.08-.59-.21-1.14-.69-1.42Z"/><path class="cls-3" d="M252.1,137.04c.12,.34,.38,.64,.74,.81,.18,.08,.36,.13,.54,.13,0,0,0,0,0,0,0,0,0,0,0,0,.55,.02,1.09-.29,1.34-.83,.03-.07,.06-.15,.08-.23,.03-.11,.05-.22,.05-.33,.02-.56-.29-1.1-.83-1.35-.38-.18-.79-.17-1.15-.02-.26,.11-.48,.29-.64,.53-.04,.06-.08,.12-.11,.18-.01,.02-.01,.05-.02,.07-.14,.34-.14,.7-.02,1.03Z"/><path class="cls-3" d="M183.17,218.47c-.1,.78,.45,1.5,1.23,1.6,.78,.1,1.5-.44,1.6-1.23,.1-.78-.45-1.5-1.23-1.6-.36-.05-.7,.05-.98,.24-.33,.22-.56,.57-.62,.99Z"/><path class="cls-3" d="M205.43,228.01c-.78-.1-1.5,.45-1.6,1.23-.1,.78,.45,1.5,1.23,1.6,.78,.1,1.5-.45,1.6-1.23,.04-.29-.01-.58-.14-.82-.21-.41-.6-.71-1.09-.78Z"/><path class="cls-3" d="M268.53,133.4c-.25,.08-.46,.23-.64,.44-.08,.09-.15,.19-.2,.31-.29,.63-.09,1.37,.45,1.76,.07,.05,.15,.1,.24,.14,.61,.29,1.33,.1,1.73-.41,0,0,.02-.02,.02-.03,0,0,0-.01,.01-.02,.05-.07,.1-.15,.14-.23,.13-.27,.16-.56,.12-.83-.05-.31-.21-.6-.44-.82-.11-.1-.23-.19-.37-.26-.35-.16-.72-.17-1.06-.06Z"/><path class="cls-3" d="M211.6,201.34c-.1,.78,.45,1.5,1.23,1.6,.36,.05,.71-.05,.99-.24,.28-.19,.5-.48,.58-.83,.01-.05,.03-.1,.04-.16,.1-.78-.45-1.5-1.23-1.6-.36-.05-.7,.05-.98,.24-.33,.22-.56,.57-.62,.99Z"/><path class="cls-3" d="M208.59,210.89c.15,.02,.3,0,.45-.02,.59-.11,1.07-.58,1.15-1.21,.01-.1,.02-.19,0-.29-.04-.55-.4-1.03-.91-1.23-.1-.04-.21-.07-.33-.09-.4-.05-.78,.07-1.07,.3-.24,.19-.42,.46-.5,.78-.01,.05-.03,.1-.04,.16-.1,.78,.45,1.5,1.23,1.6Z"/><path class="cls-3" d="M204.53,213.18c.78,.1,1.5-.45,1.6-1.23,.04-.27-.01-.54-.12-.77,0-.02-.01-.03-.02-.05-.08-.15-.18-.29-.31-.41,0,0-.02-.02-.03-.03-.21-.18-.47-.31-.76-.35-.18-.02-.35,0-.52,.03-.22,.05-.43,.16-.6,.31-.26,.22-.44,.53-.49,.89-.1,.78,.45,1.5,1.23,1.6Z"/><path class="cls-3" d="M212.49,205.77c.1-.78-.45-1.5-1.23-1.6-.18-.02-.35,0-.52,.03-.18,.04-.35,.12-.49,.23-.31,.22-.54,.57-.59,.98-.1,.78,.45,1.5,1.23,1.6,.11,.02,.23,.01,.34,0,.64-.07,1.18-.56,1.27-1.23Z"/><path class="cls-3" d="M194.25,244.86c.08,.15,.18,.29,.31,.41,0,0,.02,.02,.03,.03,.21,.18,.47,.31,.76,.35,.29,.04,.58-.01,.82-.14,.03-.01,.05-.03,.08-.05,.37-.22,.64-.59,.7-1.05,.01-.1,.02-.19,0-.29-.05-.66-.56-1.22-1.24-1.31-.21-.03-.41,0-.6,.05-.52,.16-.93,.6-1,1.18-.04,.29,.02,.58,.14,.82Z"/><path class="cls-3" d="M262.75,135.77c-.25,.54-.14,1.15,.23,1.56,.12,.14,.28,.25,.46,.34,.17,.08,.35,.12,.53,.13,0,0,.01,0,.02,0,0,0,0,0,.01,0,.55,.02,1.09-.29,1.34-.82,0,0,0-.01,0-.02,.12-.26,.15-.54,.11-.8-.07-.46-.36-.87-.81-1.08-.02-.01-.05-.02-.07-.03-.7-.28-1.5,.03-1.83,.72Z"/><path class="cls-3" d="M180.32,234.43c-.78-.1-1.5,.45-1.6,1.23-.08,.6,.22,1.15,.72,1.43,.15,.09,.33,.15,.51,.17,.49,.06,.95-.12,1.25-.46,0,0,0,0,0,0,0,0,.01-.02,.02-.03,.11-.13,.2-.28,.26-.45,.01-.03,.01-.07,.02-.1,.02-.06,.03-.12,.04-.18,.1-.78-.45-1.5-1.23-1.6Z"/><path class="cls-3" d="M211.61,161.58c.22-.04,.42-.15,.59-.29,.11-.09,.2-.19,.28-.32,0,0,0,0,0,0,.09-.15,.16-.33,.2-.52,.07-.38-.02-.76-.22-1.06-.2-.31-.5-.53-.87-.61-.22-.04-.44-.02-.65,.04-.46,.15-.83,.55-.92,1.09-.04,.2-.02,.41,.02,.6,.09,.4,.35,.74,.7,.93,.11,.06,.24,.11,.37,.14,.17,.03,.34,.03,.51,0Z"/><path class="cls-3" d="M111.16,182.45c-.6,.06-1.1,.5-1.24,1.1,0,.04-.02,.08-.03,.13-.1,.78,.45,1.5,1.23,1.6,.36,.05,.71-.05,.99-.24,.33-.22,.56-.57,.62-.99,.01-.1,.02-.19,0-.29-.04-.57-.42-1.06-.96-1.25-.09-.03-.18-.05-.28-.07-.11-.02-.23-.01-.34,0Z"/><path class="cls-3" d="M195.35,229.41c.19,.02,.38,.01,.55-.04,0,0,.01,0,.02,0,.32-.09,.59-.29,.78-.56,.13-.18,.22-.4,.26-.63,.01-.1,.02-.19,0-.29-.04-.53-.37-.98-.85-1.2-.12-.05-.25-.1-.39-.12-.19-.02-.37,0-.54,.03-.17,.04-.32,.12-.46,.22-.32,.22-.55,.57-.6,.98-.1,.78,.45,1.5,1.23,1.6Z"/><path class="cls-3" d="M265.95,127.4c.18,.22,.43,.38,.72,.45,.06,.02,.12,.03,.18,.04,.69,.09,1.32-.32,1.54-.95,.03-.09,.05-.18,.07-.28,.1-.78-.45-1.5-1.23-1.6-.68-.09-1.32,.32-1.54,.95-.03,.09-.05,.18-.07,.28-.05,.41,.08,.81,.33,1.1Z"/><path class="cls-3" d="M270.92,124.9c.78,.1,1.5-.45,1.6-1.23,.1-.79-.45-1.5-1.23-1.6-.78-.1-1.5,.45-1.6,1.23-.1,.78,.45,1.5,1.23,1.6Z"/><path class="cls-3" d="M200.88,228.7c-.2-.18-.46-.3-.75-.34-.78-.1-1.5,.45-1.6,1.23-.1,.78,.45,1.5,1.23,1.6,.35,.05,.67-.04,.95-.21,.35-.22,.6-.58,.66-1.02,0-.04,0-.07,0-.11,.03-.45-.16-.88-.48-1.16Z"/><path class="cls-3" d="M194.12,210.15c-.1,.78,.45,1.5,1.23,1.6,.14,.02,.27,0,.4-.01,.61-.09,1.12-.58,1.2-1.22,.01-.1,.02-.19,0-.29-.04-.51-.34-.95-.79-1.17-.14-.07-.29-.12-.45-.14-.15-.02-.31,0-.45,.02-.59,.11-1.07,.58-1.15,1.21Z"/><path class="cls-3" d="M274.58,127.29c-.19,.42-.16,.88,.03,1.26,.14,.27,.36,.5,.66,.64,.33,.16,.7,.17,1.02,.07,.3-.09,.56-.28,.75-.54,.05-.07,.09-.14,.13-.22,.03-.06,.04-.11,.06-.17,.1-.31,.09-.63-.01-.92-.13-.34-.38-.64-.74-.81-.39-.18-.81-.17-1.17-.01-.31,.13-.58,.37-.73,.7Z"/><path class="cls-3" d="M199.11,213.7c.15,.08,.3,.13,.48,.16,.25,.03,.5,0,.72-.1,.46-.19,.82-.6,.88-1.13,.05-.37-.05-.72-.25-1-.06-.08-.12-.16-.2-.23,0,0-.02-.02-.03-.03-.21-.18-.47-.31-.76-.35-.25-.03-.5,0-.72,.1-.21,.08-.39,.21-.54,.37-.18,.21-.31,.47-.35,.76-.08,.61,.24,1.18,.75,1.45Z"/><path class="cls-3" d="M177.43,192.49c-.1,.78,.45,1.5,1.23,1.6,.24,.03,.47,0,.69-.08,.48-.18,.85-.6,.92-1.15,.06-.49-.13-.95-.47-1.26-.21-.18-.47-.31-.76-.35-.24-.03-.47,0-.68,.08-.48,.18-.85,.6-.92,1.15Z"/><path class="cls-3" d="M271.75,131.35c-.03,.07-.05,.14-.07,.21-.11,.39-.06,.8,.14,1.13,.14,.24,.35,.43,.62,.56,.71,.33,1.56,.02,1.9-.69,.03-.07,.06-.15,.08-.23,.18-.66-.13-1.37-.77-1.67-.12-.06-.24-.09-.36-.11-.62-.11-1.26,.2-1.54,.8Z"/><path class="cls-3" d="M211.25,228.18c.03-.2,.01-.39-.04-.57-.11-.41-.42-.76-.82-.93-.12-.05-.24-.09-.37-.11-.19-.02-.37,0-.54,.03-.23,.06-.43,.17-.6,.33-.17,.16-.31,.35-.39,.58-.03,.09-.05,.18-.07,.28-.1,.78,.45,1.5,1.23,1.6,.16,.02,.31,0,.46-.02,.59-.11,1.06-.58,1.15-1.21Z"/><path class="cls-3" d="M210.44,241.96s0,0-.01-.01c0,0-.02-.01-.03-.02-.2-.17-.45-.29-.73-.33-.17-.02-.33,0-.48,.02-.31,.07-.59,.24-.8,.48-.17,.2-.29,.45-.32,.73-.04,.31,.03,.61,.17,.87,.21,.39,.59,.67,1.06,.73,.28,.04,.55-.01,.79-.13,0,0,.02,0,.03-.01,.02-.01,.04-.03,.06-.04,.14-.08,.27-.18,.37-.3,.18-.21,.31-.47,.35-.76,.06-.48-.12-.94-.46-1.24Z"/><path class="cls-3" d="M200.49,243.37c-.11-.02-.22-.01-.33,0-.64,.07-1.18,.56-1.27,1.23-.05,.37,.05,.72,.25,1,.13,.19,.31,.34,.51,.45,.14,.07,.3,.13,.47,.15,.15,.02,.3,0,.45-.02,.21-.04,.4-.12,.56-.24,.24-.17,.43-.41,.52-.69,.01-.03,.01-.07,.02-.1,.02-.06,.03-.12,.04-.18,.1-.78-.45-1.5-1.23-1.6Z"/><path class="cls-3" d="M183.41,240.37c.78,.1,1.5-.45,1.6-1.23,.05-.39-.06-.77-.28-1.06-.22-.29-.56-.5-.95-.55-.23-.03-.46,0-.66,.08-.23,.08-.43,.21-.59,.39-.18,.21-.31,.47-.35,.76-.01,.1-.02,.19,0,.29,.05,.66,.55,1.22,1.24,1.31Z"/><path class="cls-3" d="M215.4,153.72c-.67,.25-1.53,1.02-1.95,1.69-.07,.12-.14,.24-.2,.36-.39,.85-.34,1.74,.18,2.1,.59,.42,1.55,0,2.15-.95,.06-.1,.12-.21,.18-.33,.42-.81,.72-1.95,.53-2.56-.04-.14-.1-.25-.2-.32-.17-.12-.42-.1-.7,0Z"/><path class="cls-3" d="M221.12,144.37c-.48,.59-3.8,4.38-3.51,6.51,0,.02,0,.04,0,.06,.36,2.12,4.03,4.78,6.15,1.26,.87-1.45,0-5.64-.61-7.38-.08-.22-.15-.41-.22-.54-.29-.57-.72-.63-1.12-.46,0,0-.02,0-.03,0,0,0,0,0-.01,0-.24,.11-.47,.31-.66,.53Z"/><path class="cls-3" d="M216.53,223.78c.78,.1,1.5-.45,1.61-1.23,.1-.78-.45-1.5-1.23-1.6-.4-.05-.78,.07-1.07,.3-.24,.19-.42,.46-.5,.78-.01,.05-.03,.1-.04,.16-.1,.78,.45,1.5,1.23,1.6Z"/><path class="cls-3" d="M181.27,205.08s0,.02,.01,.03c.04,.15,.11,.28,.2,.4,.1,.14,.22,.26,.37,.36,.18,.12,.39,.21,.62,.24,.16,.02,.31,0,.46-.02,.59-.11,1.06-.59,1.15-1.21,.01-.1,.02-.19,0-.29-.04-.53-.37-.99-.85-1.2-.12-.05-.25-.1-.39-.12-.5-.07-.97,.14-1.27,.49-.17,.2-.29,.46-.33,.74-.03,.2-.01,.39,.04,.57Z"/><path class="cls-3" d="M214.08,224.47c-.24-.03-.47,0-.68,.08-.25,.09-.46,.25-.62,.46-.15,.2-.26,.43-.3,.69-.08,.58,.21,1.12,.67,1.4,.16,.1,.35,.17,.56,.2,.21,.03,.42,0,.62-.06,.51-.16,.91-.61,.99-1.17,0-.02,0-.04,0-.06,.07-.76-.47-1.44-1.23-1.54Z"/><path class="cls-3" d="M190.4,227.13c.16,.09,.34,.16,.54,.18,.23,.03,.46,0,.67-.08,.4-.14,.73-.46,.87-.87,.03-.09,.05-.18,.07-.28,.04-.29-.01-.58-.14-.82-.21-.41-.6-.72-1.09-.78-.24-.03-.47,0-.68,.08-.23,.09-.44,.23-.6,.43-.16,.2-.28,.44-.32,.72-.08,.59,.21,1.14,.69,1.42Z"/><path class="cls-3" d="M189.7,243.01c-.1,.78,.45,1.5,1.23,1.6,.69,.09,1.32-.32,1.54-.95,.03-.09,.05-.18,.07-.28,.1-.78-.45-1.5-1.23-1.6-.37-.05-.72,.05-1.01,.25-.31,.22-.54,.57-.6,.98Z"/><path class="cls-3" d="M194.09,206.83c.04-.28-.01-.56-.13-.8-.2-.42-.6-.74-1.1-.81-.11-.01-.22-.01-.33,0-.46,.04-.86,.31-1.09,.7-.09,.16-.16,.34-.18,.54-.1,.78,.45,1.5,1.23,1.6,.43,.06,.83-.09,1.13-.35,.25-.22,.42-.52,.47-.88Z"/><path class="cls-3" d="M259.84,136.27c-.14-.28-.36-.52-.67-.66-.19-.09-.4-.13-.6-.13-.54,0-1.06,.3-1.3,.82-.04,.09-.07,.18-.1,.27-.16,.65,.16,1.33,.78,1.62,.1,.05,.2,.08,.3,.1,.59,.13,1.21-.13,1.52-.66,.03-.04,.06-.08,.08-.13,.04-.09,.07-.18,.1-.27,.08-.33,.03-.67-.12-.96Z"/><path class="cls-3" d="M257.01,131.07s0,.02,0,.04c0,.02,.01,.03,.02,.04,.16,.52,.6,.92,1.17,.99,.25,.03,.5,0,.72-.1,.41-.17,.73-.52,.85-.97,.01-.05,.03-.11,.04-.17,.05-.37-.05-.72-.25-1-.06-.08-.12-.16-.2-.23,0,0-.02-.02-.03-.03-.21-.18-.47-.31-.76-.35-.22-.03-.43,0-.63,.06-.42,.14-.76,.46-.9,.89-.03,.09-.05,.18-.07,.28-.02,.18,0,.36,.03,.53Z"/><path class="cls-3" d="M224.14,155.05c-.45,.53-.48,2.08-.23,3.03,.14,.53,.39,.96,.69,1.26,.01,.01,.02,.03,.04,.04,.03,.03,.07,.05,.1,.08,.05,.04,.1,.08,.15,.12,0,0,0,0,0,0,.25,.16,.52,.21,.77,.15,.23-.06,.42-.23,.56-.47,.01-.02,.03-.04,.04-.06,.24-.45,.3-1.11,.12-1.79-.06-.25-.17-.53-.3-.8-.33-.71-.83-1.39-1.28-1.63-.15-.08-.29-.12-.42-.09-.09,.03-.17,.09-.25,.17Z"/><path class="cls-3" d="M218.53,237.79s-.02-.04-.03-.05c-.21-.38-.59-.66-1.06-.73-.26-.03-.52,0-.74,.11-.21,.09-.4,.23-.54,.4-.16,.2-.28,.44-.32,.72-.03,.2-.01,.39,.04,.57,.15,.54,.6,.96,1.19,1.04,.33,.04,.64-.03,.9-.19,.37-.21,.64-.59,.7-1.04,.01-.08,0-.15,0-.23,0-.02,0-.04,0-.06-.01-.16-.05-.31-.11-.45-.01-.03-.02-.06-.03-.09Z"/><path class="cls-3" d="M206.31,244.41c.03-.2,.01-.39-.04-.57-.15-.54-.61-.96-1.19-1.04-.22-.03-.43,0-.62,.06-.51,.17-.9,.61-.98,1.17-.1,.78,.45,1.5,1.23,1.6,.29,.04,.58-.01,.82-.14,.03-.01,.05-.03,.08-.05,.37-.21,.64-.59,.7-1.05Z"/><path class="cls-3" d="M219.92,165.03c.13-.77-.35-1.52-1.09-1.67-.73-.15-1.43,.36-1.57,1.14-.12,.67,.23,1.32,.8,1.58,.09,.04,.18,.07,.28,.09,.36,.07,.71-.01,.99-.21,.29-.21,.51-.53,.58-.93Z"/><path class="cls-3" d="M262.79,130.55c.13,.02,.25,.01,.37,0,.63-.08,1.15-.57,1.24-1.23,.1-.78-.45-1.5-1.23-1.6-.78-.1-1.5,.45-1.6,1.23-.1,.78,.45,1.5,1.23,1.6Z"/><path class="cls-3" d="M175.17,197.19c.14,.28,.37,.51,.66,.64,.13,.06,.28,.11,.43,.13,.33,.04,.65-.03,.91-.19,.36-.22,.63-.59,.69-1.04,.05-.36-.05-.71-.24-.99-.07-.1-.14-.19-.23-.26-.21-.18-.47-.31-.76-.35-.78-.1-1.49,.44-1.6,1.21,0,0,0,.01,0,.02-.04,.29,.02,.58,.14,.82Z"/><path class="cls-3" d="M214.78,241.26c.01-.1,.02-.19,0-.29-.04-.53-.37-.99-.85-1.2-.12-.05-.25-.1-.39-.12-.11-.02-.23-.01-.34,0-.64,.07-1.18,.56-1.27,1.23-.1,.78,.45,1.5,1.23,1.6,.19,.02,.38,.01,.55-.04,.54-.14,.98-.6,1.05-1.19Z"/><path class="cls-3" d="M190.23,202.05c-.1,.78,.45,1.5,1.23,1.6,.19,.03,.38,.01,.55-.04,.26-.07,.5-.21,.68-.41,0,0,.02-.01,.03-.02,.01-.02,.02-.03,.04-.05,.16-.2,.27-.44,.31-.71,.1-.78-.45-1.5-1.23-1.6-.12-.02-.23-.01-.35,0-.64,.07-1.17,.57-1.26,1.23Z"/><path class="cls-3" d="M217.74,212.64c-.03,.2-.01,.39,.04,.57,0,.04,.03,.07,.04,.1,.02,.05,.03,.11,.06,.15,.02,.03,.04,.06,.06,.09,.08,.13,.16,.24,.27,.34,.08,.07,.17,.13,.27,.18,.15,.08,.31,.14,.49,.16,.19,.02,.37,0,.54-.03,.23-.06,.44-.18,.61-.34,.24-.22,.41-.51,.45-.86,.1-.78-.45-1.5-1.23-1.6-.14-.02-.28,0-.42,.01-.61,.1-1.1,.58-1.19,1.22Z"/><path class="cls-3" d="M217.39,160.34s.01,.03,.02,.05c.02,.03,.04,.06,.05,.09,.29,.5,.82,.96,1.42,1.11,.04,.01,.08,.02,.12,.02,.16,.03,.32,.04,.48,.02,.1-.01,.19-.03,.29-.06,.38-.12,.74-.41,1.05-.92,.07-.12,.12-.27,.16-.44,.1-.49,.06-1.18-.04-1.85,0-.04,0-.07-.01-.11,0-.04-.01-.07-.02-.11-.15-.91-.4-1.76-.56-2.09-.23-.45-.62-.35-.91-.1-.05,.05-.1,.09-.15,.15-.04,.05-.14,.17-.25,.3-.6,.73-1.96,2.47-1.78,3.51,.02,.14,.07,.28,.14,.42Z"/><path class="cls-3" d="M108.32,182.82c.08-.61-.24-1.18-.75-1.45-.15-.08-.31-.13-.48-.16-.21-.03-.42,0-.61,.05-.52,.16-.92,.6-1,1.18-.02,.18,0,.36,.03,.53,.09,.37,.33,.69,.66,.89,.16,.09,.34,.16,.54,.18,.44,.06,.86-.1,1.16-.38,.23-.22,.4-.51,.45-.85Z"/><path class="cls-3" d="M191.26,197.63c-.04,.28,.01,.55,.12,.78,.2,.43,.6,.75,1.11,.82,.78,.1,1.5-.45,1.6-1.23,.06-.44-.09-.85-.37-1.15-.22-.24-.51-.41-.86-.45-.39-.05-.77,.06-1.06,.28s-.5,.56-.55,.95Z"/><path class="cls-3" d="M177.12,233.74c.69,.09,1.32-.32,1.54-.95,.03-.09,.05-.18,.07-.28,.1-.78-.45-1.5-1.23-1.6-.73-.1-1.41,.39-1.57,1.1-.01,.04-.03,.09-.03,.13-.1,.78,.45,1.5,1.23,1.6Z"/><path class="cls-3" d="M185.02,239.14c-.1,.78-.82,1.33-1.6,1.23-.68-.09-1.19-.65-1.24-1.31,.05,.66,.55,1.22,1.24,1.31,.78,.1,1.5-.45,1.6-1.23,.05-.39-.06-.77-.28-1.06,.22,.29,.33,.67,.28,1.06Z"/><path class="cls-3" d="M181.76,213.7h0c0-.05,.02-.1,.04-.16-.01,.05-.03,.1-.04,.16Z"/><path class="cls-3" d="M174.26,199.29c-.42,.14-.76,.46-.91,.89,.15-.43,.49-.75,.91-.89Z"/><path class="cls-3" d="M206.31,244.41c-.06,.46-.33,.83-.7,1.05,.37-.21,.64-.59,.7-1.05,.03-.2,.01-.39-.04-.57,.05,.18,.07,.37,.04,.57Z"/><path class="cls-3" d="M210.4,241.93s.02,.01,.03,.02c0,0-.02-.01-.03-.02Z"/><path class="cls-3" d="M176.64,195.13c.29,.04,.55,.16,.76,.35-.21-.18-.47-.31-.76-.35-.77-.1-1.49,.44-1.6,1.21,.11-.77,.82-1.31,1.6-1.21Z"/><path class="cls-3" d="M210.18,244.26s-.04,.03-.06,.04c.02-.01,.04-.03,.06-.04Z"/><path class="cls-3" d="M177.87,196.73c-.06,.45-.33,.82-.69,1.04,.36-.22,.63-.59,.69-1.04,.05-.36-.05-.71-.24-.99,.19,.28,.29,.63,.24,.99Z"/><path class="cls-3" d="M209.19,241.63c-.31,.07-.59,.24-.8,.48,.2-.24,.48-.41,.8-.48Z"/><path class="cls-3" d="M210.9,243.2c-.04,.29-.16,.56-.35,.76,.18-.21,.31-.47,.35-.76,.06-.48-.12-.94-.46-1.24,.33,.3,.52,.76,.46,1.24Z"/><path class="cls-3" d="M209.3,244.44c-.47-.06-.85-.35-1.06-.73,.21,.39,.59,.67,1.06,.73,.28,.04,.55-.01,.79-.13-.24,.11-.51,.16-.79,.13Z"/><path class="cls-3" d="M175.17,197.19c.14,.28,.37,.51,.66,.64-.29-.14-.52-.36-.66-.64Z"/><path class="cls-3" d="M182.42,215.1c-.34-.21-.57-.55-.64-.95,.07,.4,.31,.74,.64,.95Z"/><path class="cls-3" d="M176.12,200.83h0c.08-.6-.23-1.16-.72-1.43,.5,.28,.8,.83,.72,1.43Z"/><path class="cls-3" d="M184.77,217.24c.78,.1,1.33,.82,1.23,1.6h0c.1-.78-.45-1.5-1.23-1.6-.36-.05-.7,.05-.98,.24,.28-.19,.62-.28,.98-.24Z"/><path class="cls-3" d="M184.59,214.07c0,.06-.03,.11-.04,.17,.01-.06,.03-.11,.04-.17,.08-.61-.24-1.18-.75-1.45,.51,.27,.83,.84,.75,1.45Z"/><path class="cls-3" d="M187.96,240.2c.48,.28,.77,.83,.69,1.42h0c.08-.59-.21-1.14-.69-1.42Z"/><path class="cls-3" d="M174.51,202.06c-.59-.08-1.04-.5-1.19-1.04,.15,.54,.6,.96,1.19,1.04,.21,.03,.41,0,.6-.05-.19,.06-.39,.08-.6,.05Z"/><path class="cls-3" d="M192.86,205.23c.5,.07,.9,.38,1.1,.81-.2-.42-.6-.74-1.1-.81-.11-.01-.22-.01-.33,0,.11-.01,.21-.01,.33,0Z"/><path class="cls-3" d="M192.49,208.06c-.78-.1-1.33-.82-1.23-1.6,.03-.2,.09-.38,.18-.54-.09,.16-.16,.34-.18,.54-.1,.78,.45,1.5,1.23,1.6,.43,.06,.83-.09,1.13-.35-.3,.27-.7,.41-1.13,.35Z"/><path class="cls-3" d="M176.07,201.01s-.01,.07-.02,.1c.01-.03,.01-.07,.02-.1Z"/><path class="cls-3" d="M204.7,245.64c-.78-.1-1.33-.82-1.23-1.6,.07-.56,.47-1,.98-1.17-.51,.16-.9,.6-.98,1.17-.1,.78,.45,1.5,1.23,1.6,.29,.04,.58-.02,.82-.14-.25,.12-.53,.18-.82,.14Z"/><path class="cls-3" d="M274.42,132.34c.18-.66-.13-1.38-.77-1.67-.12-.06-.24-.09-.36-.11,.12,.02,.24,.05,.36,.11,.64,.3,.95,1.01,.77,1.67Z"/><path class="cls-3" d="M263.17,127.72c.78,.1,1.33,.82,1.23,1.6-.09,.66-.61,1.15-1.24,1.23,.63-.08,1.15-.57,1.24-1.23,.1-.78-.45-1.5-1.23-1.6-.78-.1-1.5,.45-1.6,1.23h0c.1-.78,.82-1.34,1.6-1.23Z"/><path class="cls-3" d="M109.9,183.68h0s.02-.09,.03-.13c0,.04-.02,.08-.03,.13Z"/><path class="cls-3" d="M258.57,135.48c-.54,0-1.06,.3-1.3,.82-.04,.09-.07,.18-.1,.27,.02-.09,.05-.18,.1-.27,.24-.52,.76-.82,1.3-.82Z"/><path class="cls-3" d="M264.57,135.05s.05,.01,.07,.03h0s-.05-.02-.07-.03Z"/><path class="cls-3" d="M262.98,137.33c.12,.14,.28,.25,.46,.34,.17,.08,.35,.12,.53,.13-.18,0-.36-.05-.53-.13-.18-.08-.33-.2-.46-.34Z"/><path class="cls-3" d="M265.34,136.96c.12-.26,.15-.54,.11-.8,.04,.26,0,.54-.11,.8Z"/><path class="cls-3" d="M107.56,181.37c.51,.27,.83,.84,.75,1.45-.05,.34-.21,.64-.45,.85,.23-.22,.4-.51,.45-.85,.08-.61-.24-1.18-.75-1.45Z"/><path class="cls-3" d="M257.01,131.1s0-.02,0-.04c0,.01,0,.02,0,.04Z"/><path class="cls-3" d="M258.26,138.3c.59,.13,1.21-.13,1.52-.66-.32,.53-.93,.79-1.52,.66Z"/><path class="cls-3" d="M258.2,132.14c-.57-.07-1.01-.48-1.17-.99,.16,.52,.6,.92,1.17,.99,.25,.03,.5,0,.72-.1-.22,.09-.47,.13-.72,.1Z"/><path class="cls-3" d="M105.52,182.98c.09,.37,.33,.69,.66,.89-.33-.19-.57-.51-.66-.89Z"/><path class="cls-3" d="M112.11,185.05c.33-.22,.56-.57,.62-.99,.01-.1,.02-.19,0-.29,0,.09,0,.19,0,.29-.06,.42-.29,.77-.62,.99Z"/><path class="cls-3" d="M259.34,129.65s.02,.02,.03,.03c0,0-.02-.02-.03-.03Z"/><path class="cls-3" d="M259.84,136.27c.15,.29,.19,.63,.12,.96,.08-.33,.03-.67-.12-.96Z"/><path class="cls-3" d="M270.28,135.35c-.04,.08-.08,.16-.14,.23,.05-.07,.1-.15,.14-.23,.13-.27,.16-.56,.12-.83,.04,.27,0,.56-.12,.83Z"/><path class="cls-3" d="M178.66,194.1c.24,.03,.47,0,.69-.08-.21,.08-.44,.12-.69,.08-.78-.1-1.33-.82-1.23-1.6,.07-.54,.44-.97,.92-1.15-.48,.18-.85,.6-.92,1.15-.1,.78,.45,1.5,1.23,1.6Z"/><path class="cls-3" d="M271.68,131.56c-.11,.39-.06,.8,.14,1.13-.2-.33-.26-.74-.14-1.13Z"/><path class="cls-3" d="M271.29,122.07c.78,.1,1.34,.82,1.23,1.6,0,0,0,0,0,0,.11-.78-.45-1.5-1.23-1.6-.78-.1-1.5,.45-1.6,1.23h0c.1-.78,.82-1.33,1.6-1.23Z"/><path class="cls-3" d="M270.13,135.6s-.02,.02-.02,.03c0,0,.02-.02,.02-.03Z"/><path class="cls-3" d="M264,137.8s0,0-.01,0c0,0,0,0,.01,0Z"/><path class="cls-3" d="M274.58,127.29c.15-.33,.42-.57,.73-.7-.31,.13-.58,.37-.73,.7-.19,.42-.16,.88,.03,1.26-.2-.38-.23-.84-.03-1.26Z"/><path class="cls-3" d="M277.23,128.33c.1-.31,.09-.63-.01-.92,.11,.29,.11,.61,.01,.92Z"/><path class="cls-3" d="M276.29,129.26c.3-.09,.56-.28,.75-.54-.19,.27-.45,.45-.75,.54Z"/><path class="cls-3" d="M267.69,134.14c.05-.12,.13-.22,.2-.31-.08,.09-.15,.19-.2,.31-.29,.63-.09,1.37,.45,1.76-.54-.39-.75-1.13-.45-1.76Z"/><path class="cls-3" d="M265.95,127.4c.18,.22,.43,.38,.72,.45-.29-.08-.53-.24-.72-.45Z"/><path class="cls-3" d="M267.23,125.07c.78,.1,1.33,.82,1.23,1.6-.01,.1-.04,.19-.07,.28,.03-.09,.05-.18,.07-.28,.1-.78-.45-1.5-1.23-1.6-.68-.09-1.32,.32-1.54,.95,.22-.63,.85-1.04,1.54-.95Z"/><path class="cls-3" d="M111.16,182.45c.11-.01,.22-.01,.34,0,.1,.01,.19,.04,.28,.07-.09-.03-.18-.05-.28-.07-.11-.02-.23-.01-.34,0Z"/><path class="cls-3" d="M173.28,206.47c-.18-.02-.34-.08-.49-.16,.15,.08,.31,.14,.49,.16,.25,.03,.48,0,.7-.09-.22,.08-.45,.12-.7,.09Z"/><path class="cls-3" d="M259.81,130.91c0,.06-.02,.11-.04,.17,.01-.05,.03-.11,.04-.17,.05-.37-.05-.72-.25-1,.2,.28,.29,.63,.25,1Z"/><path class="cls-3" d="M269.59,133.45c.14,.07,.26,.16,.37,.26-.11-.1-.23-.19-.37-.26-.35-.16-.72-.17-1.06-.06,.34-.11,.71-.1,1.06,.06Z"/><path class="cls-3" d="M174.3,224.46c-.21,.22-.48,.37-.79,.43,.31-.06,.58-.21,.79-.43Z"/><path class="cls-3" d="M172.43,224.65s-.08-.06-.12-.09c.04,.03,.08,.06,.12,.09Z"/><path class="cls-3" d="M174.67,223.68c-.01,.1-.04,.19-.07,.28,.03-.09,.05-.18,.07-.28,.04-.29-.01-.58-.14-.82,.12,.25,.18,.53,.14,.82Z"/><path class="cls-3" d="M174.37,222.61s.07,.1,.1,.15c-.03-.05-.06-.11-.1-.15Z"/><path class="cls-3" d="M173.05,203.69c-.52,.16-.92,.6-1,1.18h0c.08-.57,.48-1.02,1-1.18Z"/><path class="cls-3" d="M173.13,211.06c.33-.21,.57-.55,.64-.96-.07,.41-.31,.75-.64,.96Z"/><path class="cls-3" d="M172.56,208.44c.78,.1,1.33,.82,1.23,1.6,0,0,0,0,0,0,.1-.78-.45-1.5-1.23-1.6-.68-.09-1.32,.32-1.54,.95,.22-.63,.85-1.04,1.54-.95Z"/><path class="cls-3" d="M174.36,224.38s-.03,.04-.04,.06c.02-.02,.03-.04,.04-.06Z"/><path class="cls-3" d="M177.5,230.9c.78,.1,1.33,.82,1.23,1.6-.01,.1-.04,.19-.07,.28,.03-.09,.05-.18,.07-.28,.1-.78-.45-1.5-1.23-1.6-.73-.1-1.41,.39-1.57,1.1,.16-.71,.84-1.2,1.57-1.1Z"/><path class="cls-3" d="M174.88,205.24c-.04,.28-.15,.53-.32,.73,.17-.2,.29-.45,.32-.73,.04-.34-.04-.66-.2-.93,.17,.27,.25,.59,.2,.93Z"/><path class="cls-3" d="M182.53,238.01c.16-.18,.36-.31,.59-.39-.23,.08-.43,.21-.59,.39Z"/><path class="cls-3" d="M175.2,226.58c.13,.02,.24,.05,.36,.1-.11-.05-.23-.08-.36-.1-.19-.02-.37,0-.54,.03,.17-.04,.35-.06,.54-.03Z"/><path class="cls-3" d="M175.29,229.39c.59-.11,1.06-.58,1.15-1.21,0-.03,0-.06,0-.09,0,.03,0,.06,0,.09-.08,.63-.56,1.1-1.15,1.21Z"/><path class="cls-3" d="M106.48,181.27c-.52,.16-.92,.6-1,1.17h0c.08-.57,.48-1.01,1-1.17Z"/><path class="cls-3" d="M174.06,226.94c-.24,.22-.41,.52-.46,.87h0c.05-.35,.22-.65,.46-.87Z"/><path class="cls-3" d="M254.88,136.6c0,.11-.02,.22-.05,.33,.03-.11,.05-.22,.05-.33Z"/><path class="cls-3" d="M253.4,137.98s0,0,0,0c0,0,0,0,0,0Z"/><path class="cls-3" d="M253.99,129.66c.28,.04,.52,.15,.72,.32-.2-.17-.45-.28-.72-.32-.11-.02-.22-.01-.33,0,.11-.01,.22-.01,.33,0Z"/><path class="cls-3" d="M254.75,130.01s0,0,0,0c0,0,0,0,0,0Z"/><path class="cls-3" d="M254.81,132.08c-.18,.18-.41,.32-.66,.38,.25-.06,.48-.2,.66-.38Z"/><path class="cls-3" d="M257.95,129.37c-.42,.14-.76,.46-.9,.89,.15-.43,.49-.75,.9-.89Z"/><path class="cls-3" d="M252.1,137.04c.12,.34,.38,.64,.74,.81,.18,.08,.36,.12,.54,.13-.18,0-.37-.05-.54-.13-.36-.17-.61-.46-.74-.81Z"/><path class="cls-3" d="M172.54,224.73s0,0,0,0c0,0,0,0,0,0Z"/><path class="cls-3" d="M171.26,215.46c-.48-.26-.78-.79-.74-1.37-.05,.57,.25,1.1,.74,1.37Z"/><path class="cls-3" d="M172.41,217.41c.78,.1,1.33,.82,1.23,1.6-.03,.24-.13,.46-.26,.64,.13-.18,.23-.4,.26-.64,.1-.78-.45-1.5-1.23-1.6-.15-.02-.3,0-.44,.02,.14-.03,.29-.04,.44-.02Z"/><path class="cls-3" d="M172.69,220.18c-.2,.07-.42,.1-.65,.07-.78-.1-1.33-.82-1.23-1.6,.04-.34,.21-.63,.44-.85-.23,.22-.4,.51-.44,.85-.1,.78,.45,1.5,1.23,1.6,.23,.03,.45,0,.65-.07Z"/><path class="cls-3" d="M173.36,214.39c-.08,.62-.56,1.1-1.15,1.21,.59-.11,1.06-.59,1.15-1.21,.08-.61-.24-1.18-.76-1.45,.52,.27,.84,.84,.76,1.45Z"/><path class="cls-3" d="M252.26,135.76c-.04,.06-.08,.12-.11,.18-.01,.02-.01,.05-.02,.07,0-.02,.01-.05,.02-.07,.03-.07,.07-.12,.11-.18Z"/><path class="cls-3" d="M254.05,135.25h0c-.38-.18-.79-.17-1.15-.02,.36-.15,.77-.16,1.15,.02Z"/><path class="cls-3" d="M181.28,205.11s0-.02-.01-.03c0,0,0,.02,.01,.03Z"/><path class="cls-3" d="M220.9,158.15s.01,.07,.02,.11c0-.04-.01-.07-.02-.11Z"/><path class="cls-3" d="M190.93,227.31c-.2-.03-.38-.09-.54-.18,.16,.09,.34,.16,.54,.18,.23,.03,.46,0,.67-.08-.21,.07-.43,.11-.67,.08Z"/><path class="cls-3" d="M192.54,226.08c-.01,.1-.04,.19-.07,.28,.03-.09,.05-.18,.07-.28,.04-.29-.01-.58-.14-.82,.12,.25,.18,.53,.14,.82Z"/><path class="cls-3" d="M217.41,160.39s-.01-.03-.02-.05c0,.02,.01,.03,.02,.05Z"/><path class="cls-3" d="M217.47,160.48c.29,.5,.82,.96,1.42,1.11-.6-.16-1.13-.61-1.42-1.11Z"/><path class="cls-3" d="M221.79,143.83s.02,0,.03,0c0,0-.02,0-.03,0Z"/><path class="cls-3" d="M190.62,224.56c-.23,.09-.44,.23-.6,.43,.16-.19,.37-.34,.6-.43Z"/><path class="cls-3" d="M223.77,152.2c-2.12,3.52-5.79,.85-6.15-1.26h0c.36,2.12,4.04,4.78,6.15,1.26,.87-1.45,0-5.64-.61-7.38,.62,1.74,1.49,5.93,.61,7.38Z"/><path class="cls-3" d="M221.12,144.37c.18-.22,.41-.41,.66-.53-.24,.11-.47,.31-.66,.53-.48,.59-3.8,4.38-3.51,6.51-.29-2.13,3.02-5.92,3.51-6.51Z"/><path class="cls-3" d="M219.01,161.62c.16,.03,.32,.04,.48,.02-.16,.02-.32,0-.48-.02Z"/><path class="cls-3" d="M215.4,153.72c-.67,.25-1.53,1.02-1.95,1.69-.07,.12-.14,.24-.2,.36,.06-.12,.12-.24,.2-.36,.42-.67,1.28-1.44,1.95-1.69Z"/><path class="cls-3" d="M192.76,203.13s-.02,.03-.04,.05c.01-.02,.02-.03,.04-.05Z"/><path class="cls-3" d="M192.69,203.2c-.18,.2-.42,.34-.68,.41,.26-.07,.5-.21,.68-.41Z"/><path class="cls-3" d="M218.06,166.08c-.57-.26-.92-.91-.8-1.58,.13-.78,.84-1.29,1.57-1.14,.73,.15,1.22,.89,1.09,1.67-.07,.4-.29,.72-.58,.93,.29-.21,.51-.53,.58-.93,.13-.77-.35-1.52-1.09-1.67-.73-.15-1.43,.36-1.57,1.14-.12,.67,.23,1.32,.8,1.58Z"/><path class="cls-3" d="M215.77,156.59c.42-.81,.72-1.95,.53-2.56,.19,.6-.12,1.75-.53,2.56Z"/><path class="cls-3" d="M220.98,160.21c.1-.49,.06-1.18-.04-1.85,.1,.67,.14,1.36,.04,1.85Z"/><path class="cls-3" d="M191.84,200.81c.78,.1,1.33,.82,1.23,1.6h0c.1-.78-.45-1.5-1.23-1.6-.12-.02-.23-.01-.35,0,.11-.01,.23-.02,.35,0Z"/><path class="cls-3" d="M219.43,155.96c-.05,.05-.1,.09-.15,.15-.04,.05-.14,.17-.25,.3,.11-.14,.21-.25,.25-.3,.04-.05,.09-.1,.15-.15Z"/><path class="cls-3" d="M226.09,211.73c-.49-.06-.95,.13-1.26,.47,.3-.34,.77-.53,1.26-.47,.78,.1,1.33,.82,1.23,1.6h0c.1-.78-.45-1.5-1.23-1.6Z"/><path class="cls-3" d="M224.39,154.88c.13-.04,.27,0,.42,.09-.15-.08-.29-.12-.42-.09-.09,.03-.17,.09-.25,.18,.07-.08,.15-.15,.25-.17Z"/><path class="cls-3" d="M224.48,213.05c-.03,.4,.11,.78,.37,1.06-.25-.28-.39-.65-.37-1.06Z"/><path class="cls-3" d="M225.91,162.38h0s.01-.05,.02-.07c0,.03-.02,.05-.02,.07Z"/><path class="cls-3" d="M187.57,221.12c.19,.03,.37,.09,.53,.18-.16-.09-.34-.16-.53-.18-.13-.02-.26-.01-.38,0,.12-.02,.25-.02,.38,0Z"/><path class="cls-3" d="M224.48,217.96c-.04,.47,.15,.91,.48,1.21-.34-.29-.53-.73-.48-1.21Z"/><path class="cls-3" d="M226.09,216.67c-.78-.1-1.5,.45-1.6,1.23h0c.1-.78,.82-1.33,1.6-1.23,.78,.1,1.34,.82,1.23,1.6h0c.1-.78-.45-1.5-1.23-1.6Z"/><path class="cls-3" d="M185.96,222.35c.04-.29,.16-.55,.35-.76-.18,.21-.31,.47-.35,.76-.08,.61,.24,1.18,.76,1.45-.52-.27-.84-.84-.76-1.45Z"/><path class="cls-3" d="M188.8,222.72h0c.08-.59-.21-1.14-.69-1.42,.48,.28,.77,.83,.69,1.42Z"/><path class="cls-3" d="M228.57,162.91h0c.04-.23,.02-.46-.04-.67,.06,.21,.08,.44,.04,.67Z"/><path class="cls-3" d="M225.66,159.72c-.25,.07-.52,0-.77-.15,.25,.16,.52,.21,.77,.15,.23-.06,.42-.24,.56-.47-.14,.23-.33,.4-.56,.47Z"/><path class="cls-3" d="M226.27,159.19c.24-.45,.3-1.11,.12-1.8-.06-.25-.17-.53-.3-.8,.13,.28,.24,.55,.3,.8,.18,.69,.12,1.35-.12,1.79Z"/><path class="cls-3" d="M191.31,241.78c.78,.1,1.33,.82,1.23,1.6-.01,.1-.04,.19-.07,.28,.03-.09,.05-.18,.07-.28,.1-.78-.45-1.5-1.23-1.6-.37-.05-.72,.05-1.01,.25,.28-.2,.64-.3,1.01-.25Z"/><path class="cls-3" d="M224.63,159.38s-.02-.03-.04-.04c.01,.01,.02,.03,.04,.04Z"/><path class="cls-3" d="M227.48,161.24c.13,.03,.24,.08,.36,.13-.11-.06-.23-.11-.36-.13-.38-.08-.74,.02-1.03,.24,.29-.22,.66-.32,1.03-.24Z"/><path class="cls-3" d="M224.88,159.58c-.05-.03-.1-.08-.15-.12,.05,.04,.1,.08,.15,.12Z"/><path class="cls-3" d="M194.56,245.26c-.12-.12-.23-.25-.31-.41,.08,.15,.18,.29,.31,.41Z"/><path class="cls-3" d="M195.72,226.58c.14,.02,.27,.06,.39,.12-.12-.05-.25-.1-.39-.12-.19-.02-.37,0-.54,.03,.17-.04,.35-.06,.54-.03Z"/><path class="cls-3" d="M191.26,197.63c.05-.39,.26-.73,.55-.95-.29,.22-.5,.56-.55,.95-.04,.28,.01,.55,.12,.78-.11-.24-.16-.51-.12-.78Z"/><path class="cls-3" d="M199.13,245.6c.13,.19,.31,.34,.51,.45-.21-.11-.38-.26-.51-.45Z"/><path class="cls-3" d="M196.7,228.81c.13-.18,.22-.4,.26-.63,.01-.1,.02-.19,0-.29,0,.09,0,.19,0,.29-.03,.24-.13,.45-.26,.63Z"/><path class="cls-3" d="M203.79,210.69c-.26,.22-.44,.53-.49,.89h0c.05-.36,.23-.67,.49-.89Z"/><path class="cls-3" d="M200.49,243.37c-.11-.02-.22-.01-.33,0,.11-.01,.22-.01,.33,0,.78,.1,1.33,.82,1.23,1.6,0,0,0,0,0,0,.1-.78-.45-1.5-1.23-1.6Z"/><path class="cls-3" d="M194.72,226.83c-.32,.22-.55,.57-.6,.98h0c.06-.41,.28-.76,.6-.98Z"/><path class="cls-3" d="M201.68,245.15s-.01,.07-.02,.1c.01-.03,.01-.07,.02-.1Z"/><path class="cls-3" d="M195.91,229.37s-.01,0-.02,0c0,0,.01,0,.02,0Z"/><path class="cls-3" d="M200.72,211.37s.02,.02,.03,.03c0,0-.02-.02-.03-.03Z"/><path class="cls-3" d="M199.58,213.86c-.17-.02-.33-.08-.48-.16,.15,.08,.3,.13,.48,.16,.25,.03,.5,0,.72-.1-.22,.09-.47,.13-.72,.1Z"/><path class="cls-3" d="M201.19,212.63h0c.05-.37-.05-.72-.25-1,.2,.28,.29,.63,.25,1Z"/><path class="cls-3" d="M195.72,208.92c.16,.02,.31,.07,.45,.14-.14-.07-.29-.12-.45-.14-.15-.02-.31,0-.45,.02,.15-.03,.3-.04,.45-.02Z"/><path class="cls-3" d="M200.71,230.98c.35-.22,.6-.58,.66-1.02,0-.04,0-.07,0-.11,0,.04,0,.07,0,.11-.06,.44-.31,.8-.66,1.02Z"/><path class="cls-3" d="M200.14,228.36c.29,.04,.54,.16,.75,.34-.2-.18-.46-.3-.75-.34-.78-.1-1.5,.45-1.6,1.23h0c.1-.78,.82-1.34,1.6-1.23Z"/><path class="cls-3" d="M204.9,210.35c.29,.04,.56,.16,.76,.35-.21-.18-.47-.31-.76-.35-.18-.02-.35,0-.52,.03,.17-.04,.34-.05,.52-.03Z"/><path class="cls-3" d="M198.7,211.49c.15-.17,.33-.29,.54-.37-.21,.08-.39,.21-.54,.37Z"/><path class="cls-3" d="M201.13,245.95c-.17,.12-.36,.2-.56,.24,.21-.04,.4-.12,.56-.24Z"/><path class="cls-3" d="M212.68,160.44s0,0,0,0c.07-.38-.02-.76-.22-1.06,.19,.3,.28,.68,.22,1.06Z"/><path class="cls-3" d="M210.04,160.51c.09,.4,.35,.74,.7,.93-.35-.19-.61-.53-.7-.93Z"/><path class="cls-3" d="M207.36,209.29h0c0-.05,.02-.1,.04-.16-.01,.05-.03,.1-.04,.16Z"/><path class="cls-3" d="M195.12,242.86c-.52,.16-.93,.6-1,1.18h0c.08-.57,.48-1.02,1-1.18Z"/><path class="cls-3" d="M210.94,158.82c-.46,.15-.83,.55-.92,1.09h0c.09-.54,.46-.94,.92-1.09Z"/><path class="cls-3" d="M212.48,160.96s0,0,0,0c0,0,0,0,0,0Z"/><path class="cls-3" d="M192.86,196.4c.35,.05,.64,.22,.86,.45-.22-.24-.51-.41-.86-.45-.39-.05-.77,.06-1.06,.28,.29-.22,.67-.33,1.06-.28Z"/><path class="cls-3" d="M212.2,161.28c-.17,.14-.37,.25-.59,.29,.22-.04,.42-.15,.59-.29Z"/><path class="cls-3" d="M209.04,210.87c.59-.11,1.07-.58,1.15-1.21,.01-.1,.02-.2,0-.29,0,.09,0,.19,0,.29-.08,.63-.56,1.1-1.15,1.21Z"/><path class="cls-3" d="M184.23,196.75s-.03-.04-.04-.06c.01,.02,.03,.04,.04,.06Z"/><path class="cls-3" d="M205.43,228.01c-.78-.1-1.5,.45-1.61,1.23h0c.1-.78,.82-1.33,1.6-1.23,.49,.06,.89,.37,1.09,.78-.21-.41-.6-.72-1.09-.78Z"/><path class="cls-3" d="M205.69,210.72c.13,.12,.23,.25,.31,.41-.08-.15-.18-.29-.31-.41Z"/><path class="cls-3" d="M208.96,208.05c.12,.02,.22,.05,.33,.09-.1-.04-.21-.07-.33-.09-.4-.05-.78,.07-1.07,.3,.29-.23,.67-.35,1.07-.3Z"/><path class="cls-3" d="M206.13,211.95h0c.04-.27-.01-.54-.12-.77,.11,.23,.15,.5,.12,.77Z"/><path class="cls-3" d="M196.25,245.45c.37-.22,.64-.59,.7-1.05,.01-.1,.02-.19,0-.29,0,.09,0,.19,0,.29-.06,.46-.33,.83-.7,1.05Z"/><path class="cls-3" d="M195.35,245.64c-.29-.04-.55-.16-.76-.35,.21,.18,.47,.31,.76,.35,.29,.04,.58-.02,.82-.14-.25,.12-.53,.18-.82,.14Z"/><path class="cls-3" d="M183.71,198.7c.78,.1,1.33,.82,1.23,1.6h0c.1-.78-.45-1.5-1.23-1.6-.12-.02-.23-.01-.34,0,.11-.01,.23-.02,.34,0Z"/><path class="cls-3" d="M218.49,202.57c.03-.05,.07-.09,.1-.14-.04,.05-.07,.09-.1,.14Z"/><path class="cls-3" d="M218.65,202.34s0,0,.01-.01c0,0,0,0-.01,.01Z"/><path class="cls-3" d="M182.65,208.05c.27,.04,.5,.15,.7,.3-.2-.16-.43-.27-.7-.3-.37-.05-.72,.05-1,.25,.28-.2,.63-.29,1-.25Z"/><path class="cls-3" d="M182.74,210.87c.59-.11,1.06-.58,1.15-1.21,.01-.1,.02-.2,0-.29,0,.09,0,.19,0,.29-.08,.63-.56,1.1-1.15,1.21Z"/><path class="cls-3" d="M221.14,203.48c-.09,.66-.61,1.15-1.24,1.23,.63-.08,1.15-.57,1.24-1.23,.07-.49-.13-.95-.47-1.26,.34,.3,.53,.77,.47,1.26Z"/><path class="cls-3" d="M218.13,208.1c-.06,.58,.24,1.12,.72,1.39-.48-.27-.78-.81-.72-1.39Z"/><path class="cls-3" d="M181.33,210.34c-.21-.28-.32-.64-.28-1.01-.04,.37,.07,.73,.28,1.01Z"/><path class="cls-3" d="M218.13,208.05c.1-.78,.82-1.33,1.6-1.23,.78,.1,1.33,.82,1.23,1.6-.01,.1-.04,.19-.07,.28,.03-.09,.05-.18,.07-.28,.1-.78-.45-1.5-1.23-1.6-.78-.1-1.5,.45-1.6,1.23h0Z"/><path class="cls-3" d="M218.37,202.82c.02-.06,.05-.12,.08-.17-.03,.06-.06,.11-.08,.17Z"/><path class="cls-3" d="M218.48,214.08c-.1-.05-.19-.11-.27-.18,.08,.07,.17,.13,.27,.18Z"/><path class="cls-3" d="M183.41,208.4c.13,.11,.23,.25,.31,.4-.08-.15-.18-.28-.31-.4Z"/><path class="cls-3" d="M183.75,208.83s.04,.1,.06,.15c-.02-.05-.03-.11-.06-.15Z"/><path class="cls-3" d="M217.82,213.31s-.03-.07-.04-.1c0,.04,.03,.07,.04,.1Z"/><path class="cls-3" d="M219.35,211.41c.78,.1,1.34,.82,1.23,1.6,0,0,0,0,0,0,.1-.78-.45-1.5-1.23-1.6-.14-.02-.28,0-.42,.01,.14-.02,.27-.03,.42-.01Z"/><path class="cls-3" d="M220.12,213.87c-.17,.16-.38,.28-.61,.34,.23-.06,.44-.18,.61-.34Z"/><path class="cls-3" d="M217.94,213.56s-.04-.06-.06-.09c.02,.03,.04,.06,.06,.09Z"/><path class="cls-3" d="M219.91,201.87c.27,.04,.5,.15,.7,.3-.2-.16-.43-.27-.7-.3-.15-.02-.3,0-.44,.02,.14-.03,.29-.04,.44-.02Z"/><path class="cls-3" d="M181.51,236.22s-.01,.07-.02,.1c.01-.03,.01-.07,.02-.1Z"/><path class="cls-3" d="M183.85,209.09c.02,.08,.04,.17,.04,.26,0-.09-.02-.18-.04-.26Z"/><path class="cls-3" d="M213.81,202.7c.28-.19,.5-.48,.58-.83-.09,.35-.3,.64-.58,.83Z"/><path class="cls-3" d="M210.74,204.2c.17-.04,.34-.05,.52-.03,.78,.1,1.33,.82,1.23,1.6-.09,.67-.63,1.16-1.27,1.23,.64-.07,1.18-.56,1.27-1.23,.1-.78-.45-1.5-1.23-1.6-.18-.02-.35,0-.52,.03Z"/><path class="cls-3" d="M216.91,220.94c.78,.1,1.33,.82,1.23,1.6,0,0,0,0,0,0,.1-.78-.45-1.5-1.23-1.6-.4-.05-.78,.07-1.07,.3,.29-.23,.67-.35,1.07-.3Z"/><path class="cls-3" d="M180.27,192.87h0c.06-.49-.13-.95-.47-1.26,.34,.3,.53,.77,.47,1.26Z"/><path class="cls-3" d="M213.2,200.11c.78,.1,1.33,.82,1.23,1.6,0,0,0,0,0,0,.1-.78-.45-1.5-1.23-1.6-.36-.05-.7,.05-.98,.24,.28-.19,.62-.28,.98-.24Z"/><path class="cls-3" d="M208.88,226.94c-.17,.16-.31,.35-.39,.58,.08-.23,.22-.43,.39-.58Z"/><path class="cls-3" d="M210.25,204.43c-.31,.22-.54,.57-.59,.98h0c.05-.41,.28-.75,.59-.98Z"/><path class="cls-3" d="M211.25,228.18c-.08,.63-.56,1.1-1.15,1.21,.59-.11,1.06-.58,1.15-1.21,.03-.2,.01-.39-.04-.57,.05,.18,.06,.37,.04,.57Z"/><path class="cls-3" d="M178.72,235.66h0c.1-.78,.82-1.33,1.6-1.23,.78,.1,1.33,.82,1.23,1.6h0c.1-.78-.45-1.5-1.23-1.6-.78-.1-1.5,.45-1.6,1.23Z"/><path class="cls-3" d="M181.23,236.76s-.01,.02-.02,.03c0,0,.01-.02,.02-.03Z"/><path class="cls-3" d="M213.4,224.56c-.25,.09-.46,.25-.62,.46,.16-.21,.38-.36,.62-.46Z"/><path class="cls-3" d="M213.71,227.31c-.2-.03-.39-.1-.56-.2,.16,.1,.35,.17,.56,.2,.21,.03,.42,0,.62-.06-.19,.06-.4,.09-.62,.06Z"/><path class="cls-3" d="M215.3,222.17h0c0-.05,.02-.1,.04-.16-.01,.05-.03,.1-.04,.16Z"/><path class="cls-3" d="M215.31,226.08s0-.04,0-.06c0,.02,0,.04,0,.06h0Z"/><path class="cls-3" d="M179.95,237.27c-.19-.02-.36-.09-.51-.17,.15,.09,.33,.15,.51,.17,.49,.06,.95-.12,1.25-.46-.3,.34-.77,.53-1.25,.46Z"/><path class="cls-3" d="M214.78,241.26c-.08,.59-.51,1.05-1.05,1.19,.54-.14,.98-.6,1.05-1.19,.01-.1,.02-.19,0-.29,0,.09,0,.19,0,.29Z"/><path class="cls-3" d="M213.55,239.66c.14,.02,.27,.06,.39,.12-.12-.05-.25-.1-.39-.12-.11-.02-.23-.01-.34,0,.11-.01,.22-.01,.34,0Z"/><path class="cls-3" d="M182.83,203.29c.14,.02,.27,.06,.39,.12-.12-.05-.25-.1-.39-.12-.5-.07-.97,.14-1.27,.49,.3-.36,.77-.56,1.27-.49Z"/><path class="cls-3" d="M210.02,226.58c.13,.02,.26,.06,.37,.11-.12-.05-.24-.09-.37-.11-.19-.02-.37,0-.54,.03,.17-.04,.35-.06,.54-.03Z"/><path class="cls-3" d="M223.21,226.36s.02-.02,.03-.02c0,0-.02,.01-.03,.02Z"/><path class="cls-3" d="M224.09,228.72c-.17-.02-.33-.08-.48-.16,.15,.08,.3,.13,.48,.16,.75,.1,1.44-.41,1.58-1.15-.14,.74-.83,1.25-1.58,1.15Z"/><path class="cls-3" d="M182.96,201.42c-.57-.25-.93-.84-.84-1.49,.03-.2,.09-.38,.18-.54-.09,.16-.16,.34-.18,.54-.08,.65,.28,1.24,.85,1.49Z"/><path class="cls-3" d="M222.93,226.84c.03-.07,.06-.14,.1-.21-.04,.07-.07,.14-.1,.21Z"/><path class="cls-3" d="M224.47,225.89c-.19-.02-.37,0-.54,.04,.17-.04,.35-.06,.54-.03,.78,.1,1.33,.82,1.23,1.6,0,0,0,0,0,0,.1-.78-.45-1.5-1.23-1.6Z"/><path class="cls-3" d="M223.05,226.58c.03-.05,.07-.09,.1-.14-.04,.05-.07,.09-.1,.14Z"/><path class="cls-3" d="M225.52,221.3c-.75-.1-1.43,.41-1.58,1.14,.15-.73,.83-1.24,1.58-1.14,.78,.1,1.34,.82,1.23,1.6h0c.1-.78-.45-1.5-1.23-1.6Z"/><path class="cls-3" d="M225.74,201.87c-.16-.02-.31,0-.46,.02,.15-.03,.3-.04,.46-.02,.78,.1,1.34,.82,1.23,1.6-.09,.66-.61,1.15-1.24,1.23,.63-.08,1.15-.57,1.24-1.23,.1-.78-.45-1.5-1.23-1.6Z"/><path class="cls-3" d="M224.27,208.15c-.03,.56,.26,1.07,.73,1.33-.47-.26-.76-.77-.73-1.33Z"/><path class="cls-3" d="M186.89,196.24s0,.02,0,.03c0,0,0-.02,0-.03,.08-.61-.24-1.17-.75-1.45,.51,.27,.83,.84,.75,1.45Z"/><path class="cls-3" d="M223.42,230.23c.5,.28,.8,.83,.72,1.43,0,0,0,0,0,0,.08-.6-.23-1.15-.72-1.43Z"/><path class="cls-3" d="M185.28,197.47c-.29-.04-.55-.16-.76-.34,.21,.18,.47,.31,.76,.35,.28,.04,.56-.01,.8-.13-.24,.11-.51,.16-.8,.13Z"/><path class="cls-3" d="M224.91,202.01c-.41,.21-.72,.6-.78,1.09h0c.07-.49,.37-.89,.78-1.09Z"/><path class="cls-3" d="M217.07,217.55h0c.1-.78,.82-1.34,1.6-1.23,.78,.1,1.34,.82,1.23,1.6-.01,.1-.04,.19-.07,.28,.03-.09,.05-.18,.07-.28,.1-.78-.45-1.5-1.23-1.6-.78-.1-1.5,.45-1.6,1.23Z"/><path class="cls-3" d="M226.72,223.06s-.02,.1-.04,.15c.02-.05,.03-.1,.04-.15Z"/><path class="cls-3" d="M218.89,234.65s0-.03,.01-.04c0,.01,0,.03-.01,.04Z"/><path class="cls-3" d="M218.57,237.88c.06,.14,.1,.29,.11,.45-.01-.16-.05-.31-.11-.45Z"/><path class="cls-3" d="M195.75,211.74c.61-.09,1.12-.58,1.2-1.22,.01-.1,.02-.19,0-.29,0,.09,0,.19,0,.29-.09,.64-.59,1.13-1.2,1.22Z"/><path class="cls-3" d="M225.88,206.82c-.77-.1-1.49,.44-1.6,1.21,.11-.77,.82-1.31,1.6-1.21,.78,.1,1.33,.82,1.23,1.6-.01,.1-.04,.19-.07,.28,.03-.09,.05-.18,.07-.28,.1-.78-.45-1.5-1.23-1.6Z"/><path class="cls-3" d="M217.06,239.84c-.59-.08-1.04-.5-1.19-1.04,.15,.54,.6,.96,1.19,1.04,.33,.04,.64-.03,.9-.19-.26,.15-.58,.23-.9,.19Z"/><path class="cls-3" d="M218.5,237.74s.02,.04,.03,.05c0-.02-.02-.04-.03-.05Z"/><path class="cls-3" d="M216.69,237.12c-.21,.09-.4,.23-.54,.4,.15-.18,.33-.31,.54-.4Z"/><path class="cls-3" d="M220.45,236.48c.62-.08,1.14-.57,1.22-1.22,0-.04,0-.09,0-.13,0,.04,0,.09,0,.13-.09,.65-.6,1.14-1.22,1.22Z"/><path class="cls-3" d="M218.67,238.61c.01-.08,0-.15,0-.23,0,.07,0,.15,0,.23,0,0,0,0,0,0Z"/><path class="cls-3" d="M181.05,209.29h0c0-.05,.02-.1,.04-.16-.01,.05-.03,.1-.04,.16Z"/><path class="cls-3" d="M218.97,234.47s.03-.08,.05-.12c-.02,.04-.04,.08-.05,.12Z"/><path class="cls-3" d="M222.23,230.14c-.39,.15-.71,.46-.85,.86,.14-.41,.46-.72,.85-.86Z"/><path class="cls-3" d="M182.92,206.1c.59-.11,1.06-.59,1.15-1.21,.01-.1,.02-.19,0-.29,0,.09,0,.19,0,.29-.08,.63-.56,1.1-1.15,1.21Z"/><path class="cls-3" d="M181.48,205.52c.1,.14,.22,.26,.37,.36-.14-.1-.27-.22-.37-.36Z"/><path class="cls-3" d="M222.54,232.89c-.18-.02-.34-.08-.49-.16,.15,.08,.31,.14,.49,.16,.23,.03,.46,0,.67-.08-.21,.07-.43,.11-.67,.08Z"/><path class="cls-4" d="M97.41,296.79c-.75,.06-1.32,.74-1.29,1.52,.04,.79,.67,1.38,1.42,1.32,.74-.06,1.32-.74,1.28-1.52-.04-.79-.67-1.38-1.42-1.32Z"/><path class="cls-4" d="M98.23,293.43c.36-1.19-1.31-3.65-1.55-4.03-.24-.38-.71-.68-1.04-.18-.42,.63-1.49,3.49-1.04,4.5,.97,2.18,3.28,.9,3.64-.29Z"/><path class="cls-4" d="M105.24,297.85c.17-1.09-1.6-3.58-2.17-4.08-.45-.4-.82,.02-.96,.44-.13,.43-.95,3.08-.46,4.3,.49,1.22,3.21,1.7,3.59-.66Z"/><path class="cls-4" d="M104.12,301.22c-.73,.14-1.2,.87-1.03,1.64,.17,.77,.9,1.28,1.63,1.14,.74-.14,1.2-.87,1.03-1.64-.17-.77-.9-1.28-1.63-1.14Z"/><path class="cls-3" d="M102.95,287.59c.15-.32,1.04-2.32,.77-3.33-.27-1.01-2.36-1.64-2.88,.17-.24,.84,.91,2.97,1.31,3.42,.32,.35,.65,.06,.79-.26Z"/><path class="cls-3" d="M102.04,281.89c.59-.04,1.02-.57,.97-1.19-.06-.62-.58-1.09-1.17-1.05-.59,.04-1.02,.57-.97,1.19,.06,.62,.58,1.09,1.18,1.05Z"/><path class="cls-3" d="M94.62,278.8c-.3,.82,.7,3.03,1.07,3.5,.29,.38,.64,.11,.81-.2,.17-.31,1.2-2.25,1.01-3.27-.2-1.02-2.24-1.81-2.89-.03Z"/><path class="cls-3" d="M96,276.35c.59,0,1.06-.5,1.05-1.12-.01-.62-.51-1.13-1.1-1.13-.59,0-1.06,.5-1.05,1.12,.01,.62,.51,1.13,1.1,1.13Z"/><path class="cls-3" d="M108.23,286.79c.58-.09,.97-.66,.86-1.27-.11-.61-.68-1.04-1.26-.95-.59,.09-.97,.66-.86,1.27,.11,.61,.68,1.04,1.26,.94Z"/><path class="cls-3" d="M107.26,289.42c-.17,.86,1.17,2.88,1.6,3.29,.35,.33,.65,0,.77-.32,.12-.33,.84-2.41,.48-3.39-.36-.98-2.49-1.43-2.85,.42Z"/><path class="cls-4" d="M110.82,307.09c-.74,.12-1.21,.85-1.06,1.62,.15,.77,.88,1.29,1.61,1.17,.74-.12,1.21-.85,1.06-1.63-.15-.77-.88-1.29-1.61-1.17Z"/><path class="cls-4" d="M112.01,303.77c.19-1.09-1.54-3.61-2.1-4.12-.44-.4-.82,0-.97,.43-.14,.43-1.17,3.22-.53,4.29,.64,1.07,3.18,1.75,3.6-.6Z"/><path class="cls-4" d="M117.13,313.26c.3,.73,1.11,1.1,1.81,.84,.7-.26,1.03-1.07,.73-1.8-.3-.73-1.11-1.1-1.81-.84-.7,.26-1.03,1.07-.73,1.8Z"/><path class="cls-4" d="M114.4,305.06c-.06,.45-.53,3.38,.3,4.31,.83,.93,3.46,1.12,3.42-1.27-.02-1.11-2.2-3.25-2.85-3.64-.51-.31-.81,.16-.87,.6Z"/></g></svg>