<?xml version="1.0" encoding="UTF-8"?><svg xmlns="http://www.w3.org/2000/svg" viewBox="0 0 400 400"><defs><style>.cls-1{fill:#e9e9e9;}.cls-2{fill:#fff;}.cls-3{fill:#282828;}</style></defs><g id="Kreis_mit_Rahmen_grau"><g><circle class="cls-2" cx="200" cy="200" r="113.39" transform="translate(-61.31 91.76) rotate(-22.5)"/><path class="cls-1" d="M200,100.79c54.79,0,99.21,44.42,99.21,99.21s-44.42,99.21-99.21,99.21-99.21-44.42-99.21-99.21,44.42-99.21,99.21-99.21m0-28.35c-34.07,0-66.11,13.27-90.2,37.36-24.09,24.09-37.36,56.13-37.36,90.2s13.27,66.11,37.36,90.2c24.09,24.09,56.13,37.36,90.2,37.36s66.11-13.27,90.2-37.36c24.09-24.09,37.36-56.13,37.36-90.2s-13.27-66.1-37.36-90.2-56.13-37.36-90.2-37.36h0Z"/></g></g><g id="Illu_beschnitten"><path class="cls-2" d="M125.77,268.09l.87-1.13,3.17-.44,2.38-1.06s0-.23,.49-.45c.48-.21,2.17-1.66,2.17-1.66,0,0,1.31-.53,1.77-.5,.47,.02-.81-.15,.93,.04,1.74,.19,1.62,.42,2.21,.21,.59-.21,.84-.55,1.46-1.34,.62-.79,2.65-1.99,2.65-1.99l.69,.26s-3.54,3.7-7.22,5.05c-3.68,1.36-5.72,2.67-11.57,3m-25.33-20.72l2.39,1.51,1.8,1.48,1.05,.05,.76,1.32,2.99,1.06,2.78,.59,1.61,.54,.83,2.37,.15,1.87,1.06,2.5-.09,1.98,1.81,1.25,.54,1.07,.41,1.3,1.97,.44,2.28,1.15s-2.01,.5-6.25-1.09c-4.25-1.59-6.67-2.72-10.45-6.64-3.78-3.92-6.01-9.78-6.01-9.78l.38-2.95Zm16.98-29.46s4.84-1.53,11.47-.89c6.62,.64,12.41,4.62,12.41,4.62l-.21,2.21,.75,1.55-3.25-1.61-2.84-1.32-3.66,1.58-.86,.9,8.7,4,1.92,1.37,1.36-1.81,1.72,3.46-.13,5.6,2.46,5.01-1.24,4.38,.17,1.41-1.43,6.01-4.2,2.62-2.96-4.45-2.28-1.27,1.31-3.33-2.56-2.91-3.2-1.54-1.07-2.26-2.69,.23-1.61-.42-3.7,4.62-6.81-1.7-2.27-4.07,1.44-6.24,2.77-4.55,3.38-2.65-.05,1.05,2.08,.44,.52-1.14,2.54,.69,.1-2.21,3.3-.67,.73-.67,.96-.66-.88-1.32-1.44,.87-1.85-.43-.56-.61-.4,1.15-.61,.67-1.25-.76-2.48,.59,2.78,.59-.64,1.37-.2-.83-3.48-.5-.84,.66-1.6,1.8-.54,1.73-2.99,1.62-.22-3.04,2.62-1.29,1.19-.65-1.84-.66-.18-1.29,1.19-.41,1.33-1.11-.77-1.08-.61,.67-.7-.03,.33-2.32,1.55-.75Zm109.26-30.39l-1.1-8.47,2.86-2.97,1.99,7.71c-1.55,15.55-2.43,25.42-.95,46.7,.49,6.97,2.65,22.88,2.79,23.92l-7.64,3.33-3.02-49.57,5.07-20.64Zm7.57-17.89l4-4.57-3.4,10.59,4.16,7.18,4.76,49.79-7.07,19.85-3.47,1.52,1.09-.55s-2.42-15.7-3.25-22.96c-1.86-16.31,.13-40.73,.6-46.02l2.59-14.83Zm6.55,2.76l3.19,1.41-.12,2.67-2.51,.83-1.91-1.93,1.35-2.99Zm-58.25,72.58l-.72,2.58-2.63,.24-1.42-2.31,1.99-2.61,2.79,2.09Z"/><path class="cls-3" d="M235.05,202.24c.83-.11,1.4-1.04,1.27-2.08-.13-1.04-.92-1.8-1.75-1.69-.83,.11-1.4,1.04-1.27,2.08,.13,1.04,.92,1.8,1.75,1.69Z"/><path class="cls-3" d="M235.13,219.02c-.83,.11-1.4,1.04-1.26,2.08,.13,1.04,.91,1.8,1.75,1.69,.83-.11,1.4-1.04,1.27-2.08-.13-1.04-.91-1.8-1.75-1.69Z"/><path class="cls-3" d="M299.21,200c0-8.27-1.03-16.29-2.93-23.97l-16.87-9.19-33.94-3.08-5.24-3.62-6.86,6.55-10.41-9.23,13.18-17.1c.64-.46,1.52-1.15,2.75-2.21,7.5-6.43,6.6-13.69,6.6-13.69,0,0-.57,3.51-2.5,6.85-1.65,2.87-4.85,5.51-6.42,6.71l.38-2.03s7.03-5.03,8.99-14.93c.84-4.24,.16-7.09,.16-7.09,0,0,2.14-8-1.53-18.82-1.14-3.36-2.57-4.2-3.47-4.31-.32-1.17-.65-2.32-1.01-3.35-1.82-5.23-4.58-7.43-4.58-7.43,0,0,1.44,3.41,1.96,6.51,.52,3.11,.18,5.83,.18,5.83,0,0-1.21-5-1.94-6.36-.21-.39-.49-.78-.79-1.15,.15-.64,.24-1.28,.19-1.94-.11-1.48-1.06-2.85-1.61-3.54-.65-1.7-1.55-3.1-2.17-3.94-.67-2.02-1.73-3.26-1.73-3.26,0,0,1.83,3.65,1.18,6.77-.34,1.62-2.04,2.29-3.6,2.58-1.08-1.38-2.09-2.61-2.7-3.14-3.44-3.05-15.68-7.52-24.64-3.74,0,0,4.8-4.6,16.51-1.11,5.64,1.68,8.23,3.64,8.23,3.64,0,0-5.56-7.9-23.27-7.56,0,0-5.11,.02-9.53,1.27-4.71,1.33-11.39,3.93-11.39,3.93,0,0,5.93-3.24,10.16-4.9,4.23-1.66,10.93-3.04,10.93-3.04,0,0-7.65-.4-18.44,4.69l-4.23,2,2.62-2.24s-4.24,2.33-7.46,4.02c-3.21,1.68-9.03,4.93-11.61,8.32-2.58,3.39-.6,8.29,0,9.19,0,0-3.67-4.12-1.96-7.81,1.14-2.47,4.22-5.11,4.22-5.11,0,0-5.48,3.25-6.09,6.55-.51,2.7,.76,5.1,1.74,6.38-1.2-.56-2.58-1.55-3-3.25-.77-3.16,.69-8.2,.69-8.2,0,0-1.52,2.96-2.31,5.95-1.4,1.32-3.68,3.82-3.42,6.07,.09,.8,.61,1.6,1.34,2.35,.67,2.85,2.42,4.49,3.92,5.42-1.12,3.03-2.03,6.34-1.79,8.66,.55,5.42,.59,6.57,.59,6.57l-.46,2.22-4.29-6.85s1.95,5.78,2.39,7.08c0,0-2.02-1.68-3.21-3.57-1.11-1.77-3.41-6.43-3.41-6.43,0,0,.42,4.42,1.54,7.1,.88,2.12,2.43,4.84,2.43,4.84l-5.39-6.36s1.13,5.7,3.84,9.16c2.34,2.98,6.43,5.4,6.43,5.4l2.83,8.88s-.43,.52-1.01,1.28c-.2-.65-.42-1.31-.72-1.98-1.9-4.26-5.18-6.94-7.33-5.99-2.14,.95-2.34,5.17-.43,9.43,1.33,2.98,3.33,5.15,5.15,5.88-.03,1.24-.22,2.52-1.99,4.27-2.77,2.73-8.9,5.76-5.9,9.62,2.46,3.17,6.4,3.13,10.02,1.05,5.43-3.12,11.08-8.33,11.08-8.33l1.75,4.67-3.68,6.91s8.75-1.61,15.02-5.37c6.27-3.76,10.28-9.49,10.28-9.49,0,0,5.42,2.94,4.06,9.78-1.36,6.84-25.32,6.42-27.98,9.05-2.67,2.62-2.75,4.46-2.75,4.46,0,0,3.76-1.72,5.87-1.83,2.12-.11-5.38,3.65-2.11,9.99,3.83,7.41,19.56-1.06,19.56-1.06,0,0,17.42,2.47,20.81-.09,6.35-4.78,9.91-16.35,9.91-16.35,0,0,1.37,1.27,3.25,3.07-.54,.46-2.22,1.98-2.09,3.16,.16,1.4,1.12,2.71,2.62,3.36,1.05,.45,2.41-1.64,3.12-2.92,.64,.64,1.27,1.29,1.89,1.94l-5.76,5.49,.59,4.39-16.46,11.86-7.56,16.26,3.96,28.43-10.82-13.23-4.62,4.1-4.4-3.15-7.06-13.39-1.74-8.08,1.89,1.26,1.77,.38,2.09-2.06,.4-3.85-1.54-3.01-2.16-.21-2.35,1.33,.21-5.5s-2.25-1.78-9.2-6.24c0,0-1.58,2.45,2.39,6.27,1.92,1.85,3.1,2.13,3.1,2.13l-.93,4.59-.8-1.38h-.03s-5.94-6.84-5.94-6.84l-6.74-4.26-9.86-1.61s.68,2.58,3.92,4.58c.82,.5,3.45,1.2,4.82,1.03,0,0,1.12,1.43,2.09,2.11,.97,.68,2.79,1.34,2.79,1.34l2.95,4.92-5.95-4.1-9.68-2.75-14.37-.11s2.03,3.89,5.75,4.64c3.71,.74,7.65,0,7.65,0,0,0,.92,1.52,3.62,2.64,2.48,1.03,6.55,.98,6.55,.98l2.58,2.39-.03,.02,.57,1.31-1.87-.58v-.06s-.6-.17-.6-.17l.32-1.04-3.73-1.23-.39,1.23-2.71-.74-9.62,.5-9.68,8.19s1.19,1.8,6.22,.32c4.24-1.25,4.98-4.15,4.98-4.15,0,0,1.64,.78,3.38,.89,1.74,.11,4.68-.6,4.68-.6l1.13,.65-.3,.93,3.62,1.84,.23-.74,1.2,.68,7.07,8.44,2.56,3.14-3.11,3.08s-5.8-.78-9.25,4.35c-.39,.58-.57,1.3-.64,2.01-.99-2.56-2.35-5.03-4.12-7.32-7.65-9.92-20.43-13.51-31.73-10l-.75-6.35-5.07-5.19-.77,5.95-2.91,1.62c-1.33,.76-2.62,1.61-3.87,2.56-16.38,12.35-19.65,35.64-7.3,52.03,9.98,13.24,27.1,17.89,41.95,12.68l.52,1.34c-.77-.05-1.31,.01-1.31,.01l-8.08,5.8,.87,3.34-1.28,.39,.83,3.73,.67,.21-.26,1.44,.62,3.93,1.24,.41-.62,1.66,1.04,3.31,7.25,.21,6.63-.41-.13-.11,1.15-.04,.13,1.07s-3.23,.94-3.21,3.91c0,0-2.67,1.19-5.33,4.18-2.66,2.99-1.54,7.36-1.54,7.36,0,0,6.17,1.8,16.86-2.16,10.69-3.96,14.45-8.58,14.45-8.58,0,0-1.85-4.11-5.8-4.79-3.95-.67-6.77,.06-6.77,.06-1.91-2.51-4.96-1.14-4.96-1.14l-.63-.99,8.13-6.26,9.06-1.3,4.24,14.68h0l12.87-2.73,2.51-2.24,2.4,1.19,59.5-12.64,2.38-7.33v-.73c28.66-17.4,47.81-48.88,47.81-84.85Zm-56.56-106.42c1.04,1.85,1.81,6.33,1.99,7.41,0,0-1-.7-1.35-.03,0,0-.77-4.57-1.92-9.06,.4,.4,.86,.95,1.28,1.69Zm-9.48-4.86c.28-.42,.56-.87,.8-1.33l.58,3.89s-.67-.84-1.67-2.19c.1-.12,.19-.23,.28-.37Zm-1.31-9.23c.07-.92-.01-1.76-.15-2.54,.52,1.4,.99,3.19,.74,4.67-.22,1.33-1.5,2.4-2.82,3.17-.09-.11-.17-.23-.26-.35,1.26-1.01,2.31-2.54,2.49-4.95Zm-75.9,65.3c-1.47,.65-3.83-1.45-5.28-4.7-1.45-3.24-1.43-6.4,.03-7.05,1.47-.65,3.83,1.45,5.28,4.69,1.45,3.24,1.44,6.4-.03,7.05Zm3.53-48.4c-2.19-.52-5.1-1.57-5.32-3.55-.2-1.72,.54-3.41,1.27-4.62-.34,1.57-.42,3.06,.09,4.06,.86,1.7,2.76,2.76,4.3,3.39-.11,.23-.22,.46-.34,.72Zm81.33,76.01l3.19,1.41-.12,2.67-2.51,.83-1.91-1.93,1.35-2.99Zm-6.55-2.76l4-4.57-3.4,10.59,4.16,7.18,4.76,49.79-7.07,19.85-3.47,1.52,1.09-.55s-2.42-15.7-3.25-22.96c-1.86-16.31,.13-40.73,.6-46.02l2.59-14.83Zm-7.57,17.89l-1.1-8.47,2.86-2.97,1.99,7.71c-1.55,15.55-2.43,25.42-.95,46.7,.49,6.97,2.65,22.88,2.79,23.92l-7.64,3.33-3.02-49.57,5.07-20.64Zm-44.12,57.45l-.72,2.58-2.63,.24-1.42-2.31,1.99-2.61,2.79,2.09Zm-65.71-24.63l-.61,.67-.7-.03,.33-2.32,1.55-.75s4.84-1.53,11.47-.89c6.62,.64,12.41,4.62,12.41,4.62l-.21,2.21,.75,1.55-3.25-1.61-2.84-1.32-3.66,1.58-.86,.9,8.7,4,1.92,1.37,1.36-1.81,1.72,3.46-.13,5.6,2.46,5.01-1.24,4.38,.17,1.41-1.43,6.01-4.2,2.62-2.96-4.45-2.28-1.27,1.31-3.33-2.56-2.91-3.2-1.54-1.07-2.26-2.69,.23-1.61-.42-3.7,4.62-6.81-1.7-2.27-4.07,1.44-6.24,2.77-4.55,3.38-2.65-.05,1.05,2.08,.44,.52-1.14,2.54,.69,.1-2.21,3.3-.67,.73-.67,.96-.66-.88-1.32-1.44,.87-1.85-.43-.56-.61-.4,1.15-.61,.67-1.25-.76-2.48,.59,2.78,.59-.64,1.37-.2-.83-3.48-.5-.84,.66-1.6,1.8-.54,1.73-2.99,1.62-.22-3.04,2.62-1.29,1.19-.65-1.84-.66-.18-1.29,1.19-.41,1.33-1.11-.77-1.08Zm.73,43.53l.54,1.07,.41,1.3,1.97,.44,2.28,1.15s-2.01,.5-6.25-1.09c-4.25-1.59-6.67-2.72-10.45-6.64-3.78-3.92-6.01-9.78-6.01-9.78l.38-2.95,2.39,1.51,1.8,1.48,1.05,.05,.76,1.32,2.99,1.06,2.78,.59,1.61,.54,.83,2.37,.15,1.87,1.06,2.5-.09,1.98,1.81,1.25Zm-18.21-1.83c-10.8-14.32-7.94-34.69,6.39-45.49,2.07-1.56,3.92-2.62,6.2-3.62l1.78,2.9c-2.16,.94-4.25,2.12-6.2,3.63-12.74,9.83-15.1,28.13-5.27,40.88,7.86,10.18,21.11,13.71,32.62,9.72l1.18,3.05c-12.99,4.57-27.97,.51-36.7-11.08Zm37.97,3.06c-3.68,1.36-5.72,2.67-11.57,3l.87-1.13,3.17-.44,2.38-1.06s0-.23,.49-.45c.48-.21,2.17-1.66,2.17-1.66,0,0,1.31-.53,1.77-.51,.47,.02-.81-.15,.93,.04,1.74,.19,1.62,.42,2.21,.21,.59-.21,.84-.55,1.46-1.34,.62-.79,2.65-1.99,2.65-1.99l.69,.26s-3.54,3.7-7.22,5.05Zm26.26,16.02l1.18,4.08-8.08,2.69-4.55-9.8-7.62-.7-1.75,1-3.9-10.07c1.47-.77,2.91-1.66,4.27-2.71,9.76-7.53,13.42-20.02,10.19-31.19l9.41-4.48,5.83,3.31,6.94-2.17,4.03,5-9.78,8.68,23.01,24.75-29.18,11.59Z"/></g></svg>