<?xml version="1.0" encoding="UTF-8"?><svg xmlns="http://www.w3.org/2000/svg" viewBox="0 0 400 400"><defs><style>.cls-1{fill:none;}.cls-2{fill:#e9e9e9;}.cls-3{fill:#fff;}.cls-4{fill:#282828;}</style></defs><g id="Kreis_mit_Rahmen_grau"><g><circle class="cls-3" cx="200" cy="200" r="113.39" transform="translate(-61.31 91.76) rotate(-22.5)"/><path class="cls-2" d="M200,100.79c54.79,0,99.21,44.42,99.21,99.21s-44.42,99.21-99.21,99.21-99.21-44.42-99.21-99.21,44.42-99.21,99.21-99.21m0-28.35c-34.07,0-66.11,13.27-90.2,37.36s-37.36,56.13-37.36,90.2,13.27,66.11,37.36,90.2c24.09,24.09,56.13,37.36,90.2,37.36s66.11-13.27,90.2-37.36c24.09-24.09,37.36-56.13,37.36-90.2s-13.27-66.1-37.36-90.2c-24.09-24.09-56.13-37.36-90.2-37.36h0Z"/></g></g><g id="Illu_beschnitten"><g><path class="cls-4" d="M214.3,298.18c.45-25.12,12.02-73.87,12.02-73.87,0,0,1.58-23.67,2.08-24.06,3.47-2.67,16.43-9.9,16.43-9.9,.15,0,.27,0,.41,0l-.51,6.93,5.05-.3,5.93-7.17c.25-.03,.41-.06,.41-.06l.4,3.76-3.76,7.32,1.98,20s-10.76,49.59-15.91,70.48c32.85-13.98,56.61-45.17,59.97-82.25l-31.89-9.14-1.17-11.73-11.73-3.91s-2.3-10.43-2.05-20.43c4.77-1.39,12.94-3.6,12.94-3.6,0,0-4.44-.11-8.36,.09,5.78-1.61,13.32-3.54,13.32-3.54,0,0-7.5,.49-10.5,.93-.88,.13-1.82,.28-2.7,.43l1.78-1.32,12.68-2.49s20.32-27.82,20.16-37.06c-.16-9.24-4.32-13.06-2.64-12.81,1.68,.24,3.3,.91,3.3,.91-1.52-2.79-4.73-5.83-5.12-6.1-1.11-.78,3.94-2,3.94-2-2.04-.72-4.44-.43-4.44-.43,0,0-2.28-2.25-2.75-6.19-.5-4.16,1.82-8.1,1.82-8.1-2.43,1.31-3.28,4.88-3.28,4.88-2.15-5.88-10.48-12.02-10.48-12.02,2.72,3.39,2.3,4.83,2.3,4.83-3.77-3.55-25.36-8.94-44.92-10.61-1.8-.15-3.35-.38-4.76-.66-2.42-1.47-4.7-3.17-6.15-4.99-4.47-5.63-1.22-13.44-1.22-13.44,0,0-3.74,5.16-.75,12.12,.84,1.96,2.22,3.64,3.82,5.07-7.13-2.98-6.59-8.96-6.02-17.61-23.4,12.53-19.37,31.71-8.74,37.68-6.82-1.47-9.82-5.41-9.82-5.41,0,0,.65,2.98,4.51,5.28,6.84,4.21,11.69,3.63,13.64,3.1-1.58,2.89-1.92,3.37-2.41,3.87-.75,.75,.18,1.74,.26,2.61,.09,.87-1.59,.63-2.49,.92-.9,.3-.51,2.07-.84,2.88-.33,.81-1.84,1.16-2.34,2.13-.5,.97-.12,3.77-.12,3.77l-1.42,2.14-.07-.18-1.87-2.57,.88,3.21-2.52-2.61s.77,1.86,1.35,3.7c.26,.81,.65,1.24,1.01,1.48h0s1.98,1.61,1.98,1.61l-.14,1.24-4.62,4.57-2.83-.66,5.49,3.32-5.64,6-9.93,4.84c1.88,3.4,5.26,6.62,5.26,6.62l8.16,1.62s-1.1,5.12-4.66,6.95c.03,1.29,.78,3.21,.78,3.21,0,0,4.7-.12,8.29-.68,3.59-.57,8.13-2.22,8.13-2.22,0,0-2.46,5.01-6.05,6.08-2.85,.86-11.68-.44-11.68-.44,.16,3.16,.14,5.62,.6,6.18,1.21,1.47,6.2-.87,6.2-.87l-1.65,4.14s-11.5-.65-10.22,10.25c1.5,12.77,41.41,2.75,41.41,2.75l13.5-10.03-.65,.86s1.16-.87,2.36-1.64c-.14,3.17-.35,6.63-.55,9.69-1.15-.28-5.11-1.08-5.92,.94-.95,2.37,.09,4.07,1.99,4.83,1.05,.42,2.48,.05,3.54-.36-.16,2.05-.26,3.36-.26,3.36l-21.51,10.56-1.96,5.08c-8.11,0-29.18,.08-29.18,.08l-59.42,40.37,.17-61.88c-2.87-.44-5.61-.38-8.16-.01v-5.55l8.27-12.96-3.77-9.47-1.12-7.93s-1.78,.44-3.22,1.75l2.57-18.49-29.36-4.13-2.98,21.39-1.48,.84-3.53,1.91-.06-.22,4.34-5.44-1.46-5.75-8.05,8.61-.23,15.81s13.3,7.9,16.67,10.07c3.37,2.17,11.69,7.14,11.69,7.14l1.05,5.96c-4.52,2.36-7.27,4.94-7.27,4.94,6.7,58.91,4.75,74.06,4.75,74.06l12.49,10.82,61.32-28.3v54.71c4.47,.62,9.02,.95,13.66,.95s9.63-.36,14.3-1.03ZM108.85,158.45c-1.96-.14-4.86-.99-7.64-1.95l-.77-1,18.89,2.65c-1.73,.17-6.53,.57-10.48,.29Zm15.88-23.09l-24.94-.81,1.35-10.06,24.59,3.45-1,7.42Z"/><path class="cls-3" d="M252.75,200.85l3.76-7.32-.4-3.76s-.16,.03-.41,.06l-5.93,7.17-5.05,.3,.51-6.93c-.14,0-.26,0-.41,0,0,0-12.97,7.23-16.43,9.9-.5,.38-2.08,24.06-2.08,24.06,0,0-11.56,48.76-12.02,73.87,8.58-1.24,16.8-3.57,24.53-6.86,5.15-20.89,15.91-70.48,15.91-70.48l-1.98-20Z"/><rect class="cls-3" x="112.52" y="188" width="3.85" height="5.56" transform="translate(-34.3 25.34) rotate(-11)"/><rect class="cls-3" x="112.52" y="188" width="3.85" height="5.56" transform="translate(-34.3 25.34) rotate(-11)"/><polygon class="cls-1" points="99.78 134.55 124.73 135.37 125.73 127.94 101.13 124.49 99.78 134.55"/><path class="cls-1" d="M101.21,156.5c2.77,.97,5.67,1.81,7.64,1.95,3.95,.28,8.76-.13,10.48-.29l-18.89-2.65,.77,1Z"/><path class="cls-4" d="M217.19,297.73c5.47-.96,10.79-2.36,15.91-4.18,2.51-21.8,6.49-53.8,9.95-69.74l.81-4.03,1.64,.18s4.09-5.45,3.8-11.92c-7.83-3.23-17.05-1.16-17.05-1.16,0,0,.01,3.99,.31,6.24,.29,2.25,2.01,5.68,2.01,5.68l1.54,.16c-1.6,4.67-9.17,26.98-13.26,42.27-2.31,8.63-4.28,23.68-5.67,36.49Z"/></g></g></svg>