<?xml version="1.0" encoding="UTF-8"?><svg xmlns="http://www.w3.org/2000/svg" viewBox="0 0 400 400"><defs><style>.cls-1{fill:#e9e9e9;}.cls-2{fill:#fff;}.cls-3{fill:#282828;}</style></defs><g id="Kreis_mit_Rahmen_grau"><g><circle class="cls-2" cx="200" cy="200" r="113.39"/><path class="cls-1" d="M200,100.79c54.79,0,99.21,44.42,99.21,99.21s-44.42,99.21-99.21,99.21-99.21-44.42-99.21-99.21,44.42-99.21,99.21-99.21m0-28.35c-34.07,0-66.11,13.27-90.2,37.36-24.09,24.09-37.36,56.13-37.36,90.2s13.27,66.11,37.36,90.2c24.09,24.09,56.13,37.36,90.2,37.36s66.1-13.27,90.2-37.36c24.09-24.09,37.36-56.13,37.36-90.2s-13.27-66.1-37.36-90.2c-24.09-24.09-56.13-37.36-90.2-37.36h0Z"/></g></g><g id="Illu_beschnitten"><path class="cls-2" d="M291.72,137.4l-2.17,2.21c-1.65-5.04-4.78-21.23-18.26-37.73-10.92-13.35-28.96-22.8-36.9-26.37l.82-.46,6.88,3.2c10.07,5.13,23.19,13.59,31.07,22.69,11.54,13.32,16.89,29.92,18.55,36.46Zm-28.88,88.86c-.76-1.21-4.05-12.98-4.81-15.74l-.28,.95-.89,11.48s.02,7.87-.47,9.21c-.48,1.34-2.73,1.28-3.68,3.05-.95,1.77-2.81,4.42-5.96,4.34-3.15-.08-4.86-3.27-8.02-2.91-3.16,.37-5.5,3.9-9.99,3.78-4.49-.12-6.66-3.32-9.78-4.3-3.12-.98-3.22,2.61-5.46,2.55-2.25-.06-4.64-11.82-4.64-11.82l-.15-11.47,1.21-4.76v-1.37c-2.29,3.27-10.72,15.68-9.61,18.05,1.28,2.73,6.22,3.08,6.22,3.08,0,0-.05,1.8-2.41,6.24-2.37,4.43,5.6,9.59,10.56,8.82,4.97-.77,3.26-4.41,4.19-5.29,.92-.87,5.22,6.88,11.06,7.04,5.84,.15,4.13-3.04,6.86-4.32,2.73-1.28,4.91,1.48,7.57,2.9,2.66,1.42,4.96-.32,7.24-1.61,2.28-1.29,2.33-3.09,3.71-4.4,1.38-1.31,3.18-1.27,5.04-3.47,1.86-2.2,3.38-8.68,2.51-10.06Zm-41.12-13.49c.9,.12,1.72-.52,1.84-1.42,.12-.9-.52-1.73-1.41-1.84-.9-.12-1.72,.52-1.84,1.42-.12,.9,.51,1.73,1.41,1.84Zm3.65,4.75c.9,.12,1.72-.51,1.84-1.41,.12-.9-.52-1.73-1.41-1.84-.9-.12-1.72,.51-1.84,1.41-.12,.9,.51,1.73,1.41,1.84Zm16.43-4.75c.9,.12,1.73-.52,1.85-1.42,.12-.9-.52-1.73-1.41-1.84-.9-.12-1.72,.52-1.84,1.42-.12,.9,.51,1.73,1.41,1.84Zm-5.43,3.27c-.12,.9,.52,1.73,1.41,1.84,.9,.12,1.72-.52,1.84-1.42,.12-.9-.51-1.73-1.41-1.84-.9-.12-1.72,.52-1.84,1.41Zm-4.8,4.95c.9,.12,1.72-.52,1.84-1.41,.12-.9-.52-1.73-1.41-1.84-.9-.12-1.72,.52-1.84,1.42-.12,.9,.52,1.73,1.41,1.84Zm8.07-48.28l-.77-10.17-2.45,.16-2.05,9.61,2.44,3.25,2.84-2.84Zm-1.82-12.98c.9,.12,1.72-.52,1.84-1.41,.12-.9-.51-1.73-1.41-1.84-.9-.12-1.72,.52-1.84,1.41-.12,.9,.52,1.73,1.41,1.84ZM109.72,239.22l-15.5-11.34,14.62,13.15,37.35-5.98,6.44-19.68-8.16,18.17-34.74,5.69Z"/><g><path class="cls-3" d="M223.36,204.18c.13-.99-.56-1.9-1.55-2.03-.99-.13-1.9,.56-2.03,1.55-.13,.99,.57,1.9,1.55,2.03,.99,.13,1.9-.57,2.03-1.56Z"/><path class="cls-3" d="M162.53,311.09s19.86-53.67,25.57-68.19c.81,2.38,1.74,5.74,2.73,9.66-2.57,4.35-4.97,8.45-5.38,9.23-.86,1.6,6.06,14.76,11.67,19.06,1.49,7.25,2.78,13.89,3.64,18.35,21.62-.16,41.58-7.24,57.81-19.13l13.95-32.69s2.14,5.11,5.44,13.98c4.05-5.14,7.6-10.68,10.58-16.56-1.71-6.62-3.18-12.37-4.22-16.41l.05,.02s7.47-10.6-1.39-15.78c-1.16-.68-5.2-.9-5.2-.9,0,0,.31-1.59-2.89-3.27-3.21-1.69-3.16-.34-4.11-1.66-.95-1.32-1.92-3.53-1.92-3.53,0,0-1.34-1.39-4.5-1.02-3.16,.37-5.96,4.34-5.96,4.34l-.38,3.94c.77,2.76,4.05,14.53,4.81,15.74,.86,1.37-.66,7.85-2.51,10.06-1.86,2.2-3.65,2.15-5.04,3.47-1.38,1.31-1.43,3.11-3.71,4.4-2.28,1.29-4.58,3.03-7.24,1.61-2.66-1.42-4.84-4.18-7.57-2.9-2.73,1.28-1.02,4.47-6.86,4.32-5.84-.15-10.14-7.91-11.06-7.04-.92,.88,.78,4.52-4.19,5.29-4.97,.77-12.93-4.39-10.56-8.82,2.37-4.44,2.41-6.24,2.41-6.24,0,0-4.94-.35-6.22-3.08-1.11-2.37,7.33-14.78,9.6-18.05,.25-1.39,.5-2.9,.52-3.55,.04-1.35-3.9-5.5-7.6-1.77-.71,.71-2.2-1.86-4.91-1.48-2.71,.38-2.78,3.07-4.58,3.03-1.8-.05-4.01-3.17-7.26-1.55-6.44,3.22-7.53,13.28-7.59,14.85h-.05c-8.59,35.88-14.68,54.96-18.74,70.79l-28.48-40.63,28.74-4.9,5.72-4.57-12.58-28.45-26.2,5.92-.89-1.25-2.84-2.43-3.03,3.02-2.5-4.16s-1.95,1.38-2.6,2.43c-.6,.98-.9,2.68-.9,2.68l-1.22-3.9s-2.43,.81-3.25,2.03c-.81,1.22-1.01,3.25-1.01,3.25l-2.03-1.42s-1.86,.89-2.43,2.23c-.38,.89-.44,2.02-.44,2.74l-12.27,2.77-4.82,27.83,6.06,2.72,31.43-5.35,38.38,60.93Zm-68.31-83.22l15.5,11.34,34.74-5.69,8.16-18.17-6.44,19.68-37.35,5.98-14.62-13.15Z"/><path class="cls-3" d="M239.42,72.37s.18,.21,.45,.55c-2.02,.79-3.55,1.53-4.66,2.13,10.02,4.11,28.09,14.51,37.95,25.89,11.54,13.32,16.89,29.92,18.55,36.46,4.14-4.09,8.97-10.07,11.92-17.8,6-15.71-18.19-52.65-39.81-51.42-1.39,.08-2.72,.18-4.01,.31-.78-2.78-2.35-4.74-4.11-4.83-4.21-.22-8.72,5.03-8.72,5.03,0,0-1.21-1.78-2.73-1.66,0,0-1.46-8.6-4.23-10.65-2.77-2.05-7.05-3.13-10.82,1.85-3.78,4.97-3.65,6.23-1.9,8.08,1.75,1.84,12.1,6.07,12.1,6.07Zm8.03-1.97s6.43-5.07,8.28-4.53c.69,.2,1.1,1.44,1.36,2.93-3.67,.46-6.9,1.07-9.69,1.76l.05-.16Zm-15.8-10.41c1.99-2.88,3.8-4.06,3.8-4.06,0,0,1.19,.4,2.42,1.71,1.22,1.31,4.43,9.88,4.43,9.88-2.75,1.02-2.96,2.75-2.96,2.75,0,0-4.19-1.88-6.48-2.97-2.33-1.11-4.14-2.63-4.14-2.63,0,0,.94-1.8,2.94-4.69Z"/><path class="cls-3" d="M242.22,203.95c-.13,.99,.57,1.9,1.55,2.03,.99,.13,1.9-.57,2.03-1.55,.13-.99-.57-1.9-1.56-2.03-.99-.13-1.9,.57-2.02,1.55Z"/><path class="cls-3" d="M176.12,114.87c4.09,3.29,7.12,3.74,7.12,3.74,0,0-5.49-3.76-8.06-8.36,3.46,4.49,8.23,7.67,13.97,8.32-4.18-3.48,1.79-15.28,10.82-9.61-3.35,5.7-6.8,19.29-6.8,19.29,0,0,.96,.73,1.92,1.83-.12,1.49-.58,4.08-2.07,5.77-.25-.03-.51-.07-.79-.14-2.37-.62-3.06-1.86-3.06-1.86,0,0,.26,1.96,2.65,2.99-1.06-.12-2.07-.33-2.82-.75-2.61-1.44-3.14-2.15-3.14-2.15,0,0,1.14,2.24,3.73,3.47,2.4,1.14,5.54,1.23,6.18,1.15,.1-.01,.24-.05,.39-.1-.71,2.84-2.01,6.79-4.01,8.24-3.04,.2-7.71-1.02-7.71-1.02,0,0-1.07,2.79,1.62,6.49,1.62,2.23,6.29,4.06,9.74,2.44-.4,3.25-4.46,6.09-4.46,6.09l-2.36-.61s-2.11,6.49,8.69,4.63c-3.08,3-7.22,2.27-7.22,2.27,0,0-.24,4.14,3.49,3.49,3.29-.57,5.97,10.75,2.03,13.72,9.33,7.31,24.8,1.67,32.51-5.84,0,0,.77,6.2,.58,13.2-.18,7-1.72,14.12-1.72,14.12l-17.44,4.94-1.21,4.76,.15,11.47s2.39,11.76,4.64,11.81c2.25,.06,2.34-3.54,5.47-2.55,3.12,.98,5.29,4.19,9.78,4.3s6.84-3.42,9.99-3.79c3.16-.37,4.87,2.83,8.02,2.91,3.15,.08,5.02-2.57,5.96-4.34,.95-1.78,3.19-1.72,3.68-3.05,.49-1.34,.47-9.21,.47-9.21l.89-11.48-19.56-5.48s-5.36-7.81-4.64-26.68c0,0,25.89,42.57,67.29-6.24,0,0-6.29,3.31-11.19,1.89,6.49,.15,9.6-3.2,9.6-3.2,0,0-4.61,2.1-9.6,1.64-2.81-.26-4.34-2.17-5.16-4.4-1.81-8.36,9.23-13.86,5.11-29.23,0,0,0,0,0,0-1.63-4.86-4.69-21.22-18.31-37.88-10.92-13.35-28.96-22.8-36.9-26.37-.02,.01-.05,.03-.07,.04-46.61-21.3-64.63-3.75-65.28,14.96-.52,4.82-1.05,17.81,7.08,24.35Zm47.44,96.49c-.12,.9-.94,1.53-1.84,1.42-.9-.12-1.53-.94-1.41-1.84,.12-.9,.94-1.53,1.84-1.42,.9,.12,1.53,.95,1.41,1.84Zm3.65,4.75c-.12,.9-.94,1.53-1.84,1.41-.9-.12-1.53-.94-1.41-1.84,.12-.9,.94-1.53,1.84-1.41,.9,.12,1.53,.94,1.41,1.84Zm13.18-5.18c.12-.9,.94-1.53,1.84-1.42,.9,.12,1.53,.95,1.41,1.84-.12,.9-.94,1.53-1.84,1.42-.9-.12-1.53-.94-1.41-1.84Zm-4.02,5.11c.12-.9,.94-1.53,1.84-1.41,.9,.12,1.53,.94,1.41,1.84-.12,.9-.94,1.53-1.84,1.42-.9-.12-1.53-.94-1.41-1.84Zm.04-58.16c.12-.9,.94-1.53,1.84-1.41,.9,.12,1.53,.94,1.41,1.84-.12,.9-.94,1.53-1.84,1.41-.9-.12-1.53-.94-1.41-1.84Zm.01,4.82l2.45-.16,.77,10.17-2.84,2.84-2.44-3.25,2.05-9.61Zm-6.26,56.44c.12-.9,.94-1.53,1.84-1.42,.9,.12,1.53,.95,1.41,1.84-.12,.9-.94,1.53-1.84,1.41-.9-.12-1.53-.94-1.41-1.84Z"/><path class="cls-3" d="M153.34,258.75c.13-.99-.56-1.9-1.56-2.02-.99-.13-1.9,.56-2.03,1.55-.13,.99,.57,1.9,1.55,2.03,.99,.13,1.9-.56,2.03-1.55Z"/><path class="cls-3" d="M119.11,278.64c-.99-.13-1.9,.56-2.03,1.55-.13,.99,.57,1.9,1.55,2.03,.99,.13,1.9-.57,2.03-1.55,.13-.99-.56-1.9-1.55-2.02Z"/><path class="cls-3" d="M114.45,276.61c-.99-.13-1.9,.57-2.03,1.55-.13,.99,.57,1.9,1.55,2.03,.99,.13,1.9-.57,2.03-1.56,.13-.99-.56-1.9-1.55-2.03Z"/><path class="cls-3" d="M110.79,273.4c-.99-.13-1.9,.57-2.03,1.55-.13,.99,.57,1.9,1.56,2.03,.99,.13,1.9-.57,2.03-1.56,.13-.99-.56-1.9-1.56-2.03Z"/><path class="cls-3" d="M123.78,280.06c-.99-.13-1.9,.57-2.03,1.55-.13,.99,.57,1.9,1.55,2.03,.99,.13,1.9-.56,2.03-1.55,.13-.99-.56-1.89-1.56-2.02Z"/><path class="cls-3" d="M129.06,280.26c-.99-.13-1.9,.57-2.03,1.55-.13,.99,.57,1.9,1.55,2.03,.99,.13,1.9-.57,2.03-1.55,.13-.99-.57-1.9-1.56-2.03Z"/><path class="cls-3" d="M152.33,263.82c.13-.99-.57-1.9-1.56-2.03-.99-.13-1.9,.57-2.02,1.55-.13,.99,.57,1.9,1.55,2.03,.99,.13,1.9-.57,2.03-1.55Z"/><path class="cls-3" d="M133.93,279.25c-.99-.13-1.9,.57-2.03,1.55-.13,.99,.57,1.9,1.55,2.03,.99,.13,1.9-.57,2.03-1.55,.13-.99-.57-1.9-1.56-2.03Z"/><path class="cls-3" d="M138.72,277.48c-.98-.2-1.93,.43-2.13,1.41-.2,.98,.43,1.93,1.41,2.13,.98,.2,1.93-.43,2.13-1.41,.2-.98-.43-1.93-1.41-2.13Z"/><path class="cls-3" d="M152.8,246.37c-.99-.13-1.9,.57-2.03,1.55-.13,.99,.57,1.9,1.55,2.03,.99,.13,1.9-.57,2.03-1.56,.13-.99-.57-1.9-1.56-2.03Z"/><path class="cls-3" d="M153.95,253.68c.13-.99-.56-1.9-1.56-2.03-.99-.13-1.9,.57-2.03,1.55-.13,.99,.57,1.9,1.55,2.03,.99,.13,1.9-.57,2.03-1.56Z"/><path class="cls-3" d="M148.74,266.46c-.99-.13-1.9,.57-2.03,1.55-.13,.99,.57,1.9,1.55,2.03,.99,.13,1.9-.57,2.03-1.55,.13-.99-.56-1.9-1.56-2.03Z"/><path class="cls-3" d="M107.34,269.71c-.99-.13-1.89,.57-2.03,1.55-.13,.99,.57,1.9,1.55,2.03,.99,.13,1.9-.57,2.03-1.55,.13-.99-.56-1.89-1.56-2.03Z"/><path class="cls-3" d="M106.06,267.88c.13-.99-.56-1.9-1.56-2.03-.99-.13-1.89,.57-2.03,1.55-.13,.99,.57,1.9,1.55,2.03,.99,.13,1.9-.56,2.03-1.55Z"/><path class="cls-3" d="M103.22,258.34c.13-.99-.56-1.9-1.55-2.03-.99-.13-1.9,.57-2.03,1.55-.13,.99,.57,1.9,1.55,2.03,.99,.13,1.9-.57,2.03-1.55Z"/><path class="cls-3" d="M104.44,263.25c.13-.99-.57-1.89-1.56-2.02-.99-.13-1.9,.56-2.03,1.55-.13,.99,.57,1.9,1.55,2.03,.99,.13,1.9-.56,2.03-1.55Z"/></g></g></svg>