<?xml version="1.0" encoding="UTF-8"?><svg xmlns="http://www.w3.org/2000/svg" viewBox="0 0 400 400"><g id="Kreis_mit_Rahmen_grau"><g><circle cx="200" cy="200" r="113.39" transform="translate(-61.31 91.76) rotate(-22.5)" fill="#fff"/><path d="M200,100.79c54.79,0,99.21,44.42,99.21,99.21s-44.42,99.21-99.21,99.21-99.21-44.42-99.21-99.21,44.42-99.21,99.21-99.21m0-28.35c-34.07,0-66.11,13.27-90.2,37.36-24.09,24.09-37.36,56.13-37.36,90.2s13.27,66.11,37.36,90.2c24.09,24.09,56.13,37.36,90.2,37.36s66.1-13.27,90.2-37.36,37.36-56.13,37.36-90.2-13.27-66.1-37.36-90.2-56.13-37.36-90.2-37.36h0Z" fill="#e9e9e9"/></g></g><g id="Kreis"><circle cx="200" cy="200" r="99.21" fill="#fff"/></g><g id="Illu_beschnitten"><g><g><rect x="111.23" y="157.16" width="4.25" height="5.48" transform="translate(-68.58 232.81) rotate(-76.51)" fill="#282828"/><path d="M114.52,155.11c-.49-1.43-1.46-4.89-.77-8.25,.63-3.07,2.52-6.16,8.43-6.97,4.69-.64,5.39-3.11,6.21-4.74,0,0,1.59,6.65-5.58,8.07-6.48,1.29-8.36,4.3-8.33,7.62,.02,1.34,.21,2.38,.43,3.16,3.61-10.13,7.13-5.25,13.64-9.7,6.77-4.63,6.7-15.05,.99-18.34-6.75-3.89-11.29-.54-11.29-.54,4.96,.65,10.93,8.86,.71,12.09-10.21,3.23-9.05,12.86-4.48,17.72,.02-.04,.03-.08,.04-.12Z" fill="#282828"/><path d="M140.58,293.16l13.94,5.86s18.49-29.47,23.23-39.03l7.73,38.15c4.74,.7,9.58,1.07,14.52,1.07,5.8,0,11.48-.5,17-1.46,1.36-19.84,4.21-60.12,6.3-79.44l1.42-10.62-9.91-8.14s1.06-2.39,9.91-6.02c9.98-4.09,15.93-3.19,15.93-3.19l-10.97,7.08,3.54,23.72,20-18.41-2.12-10.44s9.85,2.26,14.34,7.9c2.76,3.47,2.83,7.72,2.83,7.72l-17.84,3.82-3.05,8.36s-13.01,37.6-18.65,74.89c37.88-11.44,66.2-44.92,70.04-85.53-6.9,1.86-15.64,2.12-24.31-3.35l3.19-4.42s-16.35-12.29-25.21-13.97c.91-2.9,2.23-7.01,2.68-7.99,1.79-.1,3.97-.85,5.1-1.5,1.02-.59,1.76-2.05,1.96-2.92,.44-.28,.89-.62,1.33-1.09,2.6-2.74-1.63-5.35-3.17-5.93,.96-2.26,1.46-3.64,2.71-5.21,1.44,.87,3,1.99,4.37,2.77,1.88,1.1,5.17,2.87,7.07,3,0,0-3.17-1.62-4.3-3.82-.06-.11-.09-.21-.14-.31,2.02,1.96,5.93,4.52,11.94,3.29,8.37-1.72,10.14-6.5,14-15.88,3.86-9.38,28.44-33.93,11.81-65.37-9.43-17.84-26.85-18.11-31.69-18.43-4.31-.29-22.43-3.92-32.48-1.44h0s-8.37,.61-10.28,3.79c-1.92,3.18-.8,7.79-.8,7.79,0,0,.3-6.81,5.38-8.75-1.06,.91-2.17,2.17-2.59,3.74-.9,3.35,.46,5.37,.46,5.37,0,0-.15-5.2,2.23-6.91,1.71-1.23-.25,6.54-.25,6.54,0,0-5.23,4.21-8.19,8.45,0,0-7.49,4.11-8.05,5.42-.36,.84-.04,3.88,.23,5.96-.61,.59-1.4,1.4-2.49,2.54-1.66,1.75-2.96,2.67-3.92,3.4l-1.66,.08c-1.32-1.85-2.97-6.14-2.97-6.14,0,0,.14,3.67,.72,5.78l-2.49-2.42c-.67,.75,2.03,4.91,2.99,5.11,.65,.14,1.18,.13,1.46,.11,0,0,0,.01,0,.02l4.67,.15-4.07,3.85-14.04,.88c-.51-3-1.46-5.05-2.48-5.02-1.43,.04-2.46,4.09-2.31,9.04,.15,4.95,1.43,8.92,2.86,8.88,1.43-.04,2.46-4.09,2.31-9.04-.02-.62-.05-1.22-.11-1.81l11.43-.71-16.23,15.34,17.02,4.87s-1.35,3.07-4.37,3.92c-3.01,.85-4.95-1.42-4.95-1.42,0,0-1.75,2.15-1.77,3.54-.02,1.28,1.61,1.77,3.54,2.48,3.36,1.24,7.79,0,10.8-.18,3.01-.18,6.2,2.12,6.2,2.12,0,0-.71,2.3-3.54,4.78-2.56,2.24-8.67-1.42-11.15-2.12-.1-.03-.2-.02-.31-.04l2.8-.4-.33-1.69s-16.2,2.36-24.29,2.64l-.5,.04c-4.42,.15-6.08-.61-6.08-.61l.14,1.38-20.65,1.93,.31,3.11,20.63-2.22,.16,1.58s4.68-2.53,13.91-3.78l12.13-1.73c-1.24,.53-2.17,1.56-2.17,1.56l5.92,7.11-4.08,9.35,11.4,7.21s15.98-.72,34.43-6.8l-3.62,8.89s-3.16-1.78-6.51,.23c-3.35,2.02-.2,5.56,1.61,5.85,1.81,.3,2.26,.4,2.26,.4l-2.12,5.3c-1.65,.06-6.9,.32-11.72,1.16l.22-.12-20.18,4.39,.13,4.88c-6.5,1.3-17.94,1.69-25.62-8.71l-33.51,68.56-19.89-50.61-4.55,.19-2.5-6.43-3.12,.83-.78-1.79s10.32-9.04,9.53-17.16l3.1-10.93s-1.87-1.54-4.2-5.47c-2.12-3.58-1.33-11.57-1.33-11.57,0,0-6.38,2.89-7.52,6.78-1.32,4.49,3.95,9.32,3.95,9.32l-2.81,5.97-4.4,.85-1.22-1.27,2.36-10.21-10.26-2.37-2.85-10.28-6.26,1.74,2.95,10.65,5.07-1.41-.8,3.46-11.05-.13-1.43,5.91,3.81,2.25-6.7-.26-.71,4.57,4.49,3.7-4.87-.02-1.1,4.41,6.56,3.66-3.76,.23-.51,3.87,11.57,3.77,8.04,2.51,1.26,2.82-2.55,1.4,2.65,5.27-3.36,3.1,32.18,80.06Zm104.15-34.13s3.75,.76,11.35,2.21c7.59,1.44,15.41,1.76,15.41,1.76-18.32,4.67-26.76-3.97-26.76-3.97Zm14.81-89.19c.99,.24,3.7,1.27,3.32,3.04-.1,.39-.32,.79-.64,1.17-.08-.47-.18-.84-.84-1.22-.65-.38-2.34-.77-2.82-.89,.3-.58,.64-1.48,.97-2.09Zm-1.58,3.38c.61,.08,2.79,.57,3.1,.86,.31,.29,.32,.48,.36,.7-.76,.57-3.68,.58-4.28,.36,.36-.76,.44-1.14,.83-1.92Zm-1.29,3.07c1.47,.16,3.45-.02,4.54-.47-.31,.57-.86,1.11-1.51,1.43-.63,.31-3.12,.8-3.7,.71,.17-.56,.38-1.06,.67-1.67Z" fill="#282828"/></g><g><path d="M223.3,218.32c-2.09,19.31-4.95,59.6-6.3,79.44,3.99-.69,7.91-1.62,11.72-2.77,5.64-37.29,18.65-74.89,18.65-74.89l3.05-8.36,17.84-3.82s-.07-4.25-2.83-7.72c-4.49-5.64-14.34-7.9-14.34-7.9l2.12,10.44-20,18.41-3.54-23.72,10.97-7.08s-5.95-.91-15.93,3.19c-8.85,3.63-9.91,6.02-9.91,6.02l9.91,8.14-1.42,10.62Z" fill="#fff"/><path d="M244.72,259.03s8.44,8.64,26.76,3.97c0,0-7.81-.32-15.41-1.76-7.6-1.44-11.35-2.21-11.35-2.21Z" fill="#fff"/><path d="M122.18,139.89c-5.91,.81-7.81,3.91-8.43,6.97-.68,3.35,.28,6.81,.77,8.25l.39-1.11c-.22-.78-.41-1.81-.43-3.16-.03-3.32,1.85-6.33,8.33-7.62,7.17-1.42,5.58-8.07,5.58-8.07-.82,1.63-1.52,4.1-6.21,4.74Z" fill="#fff"/></g></g></g></svg>